<ttFont>
<head>
    <!-- Most of this table will be recalculated by the compiler -->
    <tableVersion value="1.0"/>
    <fontRevision value="2.004"/>
    <checkSumAdjustment value="0xe2d85867"/>
    <magicNumber value="0x5f0f3cf5"/>
    <flags value="00000000 00000011"/>
    <unitsPerEm value="1000"/>
    <created value="Thu Oct  8 10:01:51 2009"/>
    <modified value="Thu Oct  8 10:01:51 2009"/>
    <xMin value="-447"/>
    <yMin value="-327"/>
    <xMax value="737"/>
    <yMax value="986"/>
    <macStyle value="00000000 00000000"/>
    <lowestRecPPEM value="3"/>
    <fontDirectionHint value="2"/>
    <indexToLocFormat value="0"/>
    <glyphDataFormat value="0"/>
  </head>
          <CharString index="0">
            rmoveto
            12 -11 11 -11 -8 -5 -4 -5 -5 vhcurveto
            -31 -34 -30 -17 -15 hhcurveto
            -13 -10 10 29 -32 hvcurveto
            9 -12 -15 9 -20 hhcurveto
            -25 -27 -16 -16 -22 hvcurveto
            -18 -14 -29 -21 -14 vvcurveto
            -11 11 -11 11 8 5 4 4 5 vhcurveto
            32 34 30 16 15 hhcurveto
            13 10 -9 -29 32 hvcurveto
            -10 12 15 -8 20 hhcurveto
            26 26 15 17 22 hvcurveto
            18 13 29 22 13 vvcurveto
            endchar
          </CharString>
          <CharString index="1">
            rmoveto
            15 -11 11 -15 vhcurveto
            0 -6 0 -9 -4 vhcurveto
            -138 -62 rlineto
            -10 -5 -9 -4 -12 vvcurveto
            -6 4 -25 20 vhcurveto
            0 5 1 2 1 vhcurveto
            144 64 rlineto
            19 8 4 10 8 vvcurveto
            endchar
          </CharString>
          <CharString index="2">
            518 590 rmoveto
            21 -20 0 -12 vhcurveto
            -133 34 callsubr
            21 -53 callsubr
            41 -363 hlineto
            -119 -74 -56 -58 -59 -73 56 119 vhcurveto
            363 41 vlineto
            67 callgsubr
            21 46 callgsubr
            -133 hlineto
            -12 -20 -18 callsubr
            41 -368 hlineto
            -121 85 -91 98 98 85 91 121 vhcurveto
            -20 callsubr
            return
          </CharString>
          <CharString index="3">
            460 102 rmoveto
            19 -21 0 -4 -12 -6 -1 -10 -4 vhcurveto
            -63 -28 -60 -11 -32 hhcurveto
            -82 -82 55 106 -20 hvcurveto
            320 hlineto
            17 14 0 28 112 -62 97 -128 -117 -95 -99 -121 -121 100 -99 128 127 47 84 24 hvcurveto
            -51 137 rmoveto
            -299 hlineto
            93 18 65 60 77 hhcurveto
            58 70 -27 -126 11 hvcurveto
            return
          </CharString>
          <CharString index="4">
            rmoveto
            14 -11 11 -15 vhcurveto
            0 -6 0 -9 -4 vhcurveto
            -138 -62 rlineto
            -10 -4 -9 -4 -12 vvcurveto
            -7 4 -24 20 vhcurveto
            0 5 0 2 1 vhcurveto
            144 64 rlineto
            19 8 4 10 9 vvcurveto
            endchar
          </CharString>
          <CharString index="5">
            513 22 rmoveto
            20 -20 0 -12 -41 -15 6 6 -16 vhcurveto
            230 vlineto
            70 -54 80 -140 -41 -99 0 -65 -24 17 -13 19 12 23 7 30 1 vhcurveto
            19 38 4 31 85 57 -36 -90 vhcurveto
            return
          </CharString>
          <CharString index="6">
            500 31 callsubr
            -26 66 callgsubr
            -82 -297 254 157 vlineto
            -44 0 -15 25 25 74 callgsubr
            96 vlineto
            14 0 18 -25 -25 0 -15 -44 vhcurveto
            -157 231 hlineto
            return
          </CharString>
          <CharString index="7">
            442 -17 callgsubr
            -122 527 122 hlineto
            -11 callgsubr
            46 callgsubr
            -295 34 callsubr
            21 -53 callsubr
            122 -527 -122 115 callsubr
            21 -53 callsubr
            295 -16 callgsubr
            hvcurveto
            return
          </CharString>
          <CharString index="8">
            rmoveto
            12 -7 10 -17 -6 -14 -4 -3 -10 vhcurveto
            -89 -30 -89 30 rlineto
            3 -10 -14 4 -6 hhcurveto
            -17 -7 -10 -12 -8 9 -9 13 -5 hvcurveto
            107 -40 9 -3 8 0 9 3 rlinecurve
            109 40 rlineto
            13 5 9 9 8 vvcurveto
            endchar
          </CharString>
          <CharString index="9">
            14 callsubr
            hintmask 01100011
            -102 callsubr
            hintmask 10000100
            -73 callsubr
            hintmask 01000000
            -77 callgsubr
            hintmask 10000101
            -67 callsubr
            hintmask 00011000
            return
          </CharString>
          <CharString index="10">
            rmoveto
            13 -8 9 -101 callgsubr
            -9 -13 -74 108 0 64 64 108 0 74 hvcurveto
            return
          </CharString>
          <CharString index="11">
            451 -17 callgsubr
            -119 -12 callgsubr
            -147 34 callsubr
            21 -53 callsubr
            128 -341 -136 94 callsubr
            11 hvcurveto
            305 -16 callgsubr
            hvcurveto
            return
          </CharString>
          <CharString index="12">
            rmoveto
            23 40 callgsubr
            -23 -24 -59 callsubr
            24 vhcurveto
            return
          </CharString>
          <CharString index="13">
            rmoveto
            12 -7 10 -17 -6 -14 -9 -6 -10 vhcurveto
            -89 -54 -89 54 rlineto
            6 -10 -14 9 -6 hhcurveto
            -17 -7 -10 -12 -8 11 -7 11 -7 hvcurveto
            105 -66 11 -7 12 0 11 7 rlinecurve
            103 66 rlineto
            11 7 11 7 8 vvcurveto
            endchar
          </CharString>
          <CharString index="14">
            -77 callsubr
            57 return
          </CharString>
          <CharString index="15">
            -84 callgsubr
            -78 callgsubr
          </CharString>
          <CharString index="16">
            -72 callgsubr
            11 hvcurveto
            return
          </CharString>
          <CharString index="17">
            rmoveto
            23 -18 0 -13 vhcurveto
            -308 15 callsubr
            -22 19 0 13 hvcurveto
            307 -10 callsubr
            hvcurveto
            endchar
          </CharString>
          <CharString index="18">
            26 callgsubr
            -17 10 -16 29 -10 vhcurveto
            -16 -24 -10 -6 -14 -2 rrcurveto
            24 -40 -57 0 -51 hhcurveto
            -64 -75 0 -47 -30 hvcurveto
            -33 -50 0 -127 -93 vvcurveto
            -92 0 -127 33 -50 vhcurveto
            -47 30 75 0 64 hhcurveto
            65 74 0 47 31 hvcurveto
            33 50 0 127 92 vvcurveto
            81 0 107 -26 68 vhcurveto
            38 21 17 36 36 vvcurveto
            -81 -336 rmoveto
            -81 -1 -112 -22 -44 vhcurveto
            -44 -22 -56 -6 -50 hhcurveto
            -50 -55 6 44 -22 hvcurveto
            -23 44 -1 112 81 vvcurveto
            75 1 101 23 40 vhcurveto
            43 24 54 3 49 hhcurveto
            50 54 -3 -43 24 hvcurveto
            22 -40 1 -101 -75 vvcurveto
            return
          </CharString>
          <CharString index="19">
            rmoveto
            38 3 -28 7 -10 hhcurveto
            -10 -29 -9 -36 3 hvcurveto
            13 -210 rlineto
            -11 1 3 -17 19 hhcurveto
            19 2 14 13 1 hvcurveto
            return
          </CharString>
          <CharString index="20">
            455 119 rmoveto
            99 -126 20 -31 5 vhcurveto
            -71 12 rlineto
            -33 5 -76 18 45 vvcurveto
            29 34 40 108 95 15 -37 -41 5 vhcurveto
            -9 2 5 -6 16 hhcurveto
            104 callgsubr
            hvcurveto
            71 vlineto
            12 0 20 -20 -17 -3 -9 -17 -5 vhcurveto
            26 -54 -44 0 -19 hhcurveto
            -162 -24 -77 -34 -88 105 -16 90 -13 hvcurveto
            55 -9 87 -19 -59 vvcurveto
            -42 -40 -41 -103 -52 -62 13 97 -31 vhcurveto
            7 -4 -5 5 -14 hhcurveto
            40 callsubr
            -100 vlineto
            -12 0 -20 21 7 11 2 44 14 vhcurveto
            -44 60 53 -2 27 hhcurveto
            154 32 78 47 hvcurveto
            return
          </CharString>
          <CharString index="21">
            rmoveto
            12 -9 4 -10 5 vhcurveto
            -138 62 rlineto
            -9 4 -6 0 0 vvcurveto
            -15 -11 -11 -15 -8 4 -10 19 -8 hvcurveto
            144 -64 rlineto
            2 -1 5 -1 0 vvcurveto
            20 4 25 6 hvcurveto
            endchar
          </CharString>
          <CharString index="22">
            498 403 rmoveto
            49 callgsubr
            vhcurveto
            -121 -63 callsubr
            40 hlineto
            -115 -348 -132 348 rlineto
            41 -36 callgsubr
            35 hlineto
            0 156 -393 -1 -3 vhcurveto
            0 -28 -89 -14 -26 vhcurveto
            -61 -32 -24 -4 -30 hhcurveto
            -6 -6 13 0 hvcurveto
            return
          </CharString>
          <CharString index="23">
            58 callsubr
            351 -70 callgsubr
            -231 hlineto
            return
          </CharString>
          <CharString index="24">
            496 503 rmoveto
            76 vlineto
            70 callsubr
            -405 hlineto
            -25 -7 -6 -26 hvcurveto
            -76 vlineto
            -49 callsubr
            17 15 vhcurveto
            66 158 -527 -64 20 callsubr
            179 -52 callsubr
            -19 0 -12 hvcurveto
            -64 527 157 -66 hlineto
            -49 callsubr
            17 15 vhcurveto
            return
          </CharString>
          <CharString index="25">
            485 31 callsubr
            -25 0 -16 -16 vhcurveto
            -82 -270 527 68 vlineto
            -11 callgsubr
            46 callgsubr
            -167 15 callsubr
            -20 -32 callsubr
            48 -527 -48 -33 callsubr
            388 15 callgsubr
            return
          </CharString>
          <CharString index="26">
            511 589 rmoveto
            22 150 callsubr
            -82 -59 callgsubr
            34 hlineto
            -68 -535 rlineto
            -4 hlineto
            -63 308 rlineto
            18 -4 -23 -1 -7 hhcurveto
            -8 -21 1 -17 -4 hvcurveto
            -65 -309 rlineto
            -4 hlineto
            -67 535 rlineto
            34 hlineto
            -66 callgsubr
            -82 134 callsubr
            21 0 7 hvcurveto
            10 hlineto
            75 -550 rlineto
            -27 4 23 0 10 hhcurveto
            7 17 0 14 8 hvcurveto
            68 306 65 -302 rlineto
            -18 4 24 0 5 hhcurveto
            10 23 0 27 4 hvcurveto
            75 550 rlineto
            17 21 0 20 hvcurveto
            return
          </CharString>
          <CharString index="27">
            21 callgsubr
            hintmask 1110011010000000
            -101 callsubr
            hintmask 1010010100000000
            -71 callgsubr
            return
          </CharString>
          <CharString index="28">
            rmoveto
            12 -9 4 -10 4 vhcurveto
            -138 62 rlineto
            -9 4 -6 0 0 vvcurveto
            -15 -11 -11 -14 -9 4 -10 19 -8 hvcurveto
            144 -64 rlineto
            2 -1 5 0 0 vvcurveto
            20 4 24 7 hvcurveto
            endchar
          </CharString>
          <CharString index="29">
            -15 6 -19 29 -10 vhcurveto
            -19 -26 -22 1 -7 hhcurveto
            -102 hlineto
            -12 -6 -11 -12 hvcurveto
            -10 1 7 -10 10 hhcurveto
            69 -240 hlineto
            -57 -54 -47 -69 -37 -22 4 13 -17 vhcurveto
            -12 8 -9 18 23 vvcurveto
            302 vlineto
            11 -8 8 -10 vhcurveto
            -102 hlineto
            -12 -6 -11 -12 hvcurveto
            -10 1 7 -10 10 hhcurveto
            70 -278 hlineto
            -32 11 -32 26 -19 vhcurveto
            -22 29 34 -4 41 hhcurveto
            50 61 36 17 18 hvcurveto
            -28 vlineto
            return
          </CharString>
          <CharString index="30">
            vhcurveto
            -75 hlineto
            -12 -20 -91 callsubr
            return
          </CharString>
          <CharString index="31">
            465 305 rmoveto
            288 -19 29 -184 -184 -19 -28 -289 -288 19 -28 184 return
          </CharString>
          <CharString index="32">
            -3 10 14 -4 6 hhcurveto
            17 7 10 12 hvcurveto
            40 209 rmoveto
            21 -11 21 -19 13 vhcurveto
            13 -20 -20 4 -29 hhcurveto
            -43 -41 -29 -44 -14 5 -5 15 15 4 14 5 18 20 18 25 22 16 -4 -7 11 hvcurveto
            8 -5 5 -10 -12 vvcurveto
            0 -4 -9 -7 -5 vhcurveto
            return
          </CharString>
          <CharString index="33">
            111 83 42 57 62 18 -32 -70 vhcurveto
            -245 -51 vlineto
            -12 41 callsubr
            21 -53 callsubr
            158 -38 callgsubr
            return
          </CharString>
          <CharString index="34">
            -185 -3 -125 -46 -95 vvcurveto
            -67 62 -61 99 36 62 7 36 55 vhcurveto
            return
          </CharString>
          <CharString index="35">
            481 163 rmoveto
            24 -18 0 -8 -6 -17 0 -20 -2 vhcurveto
            -109 -7 -91 -27 -45 hhcurveto
            -98 -96 113 162 161 97 113 96 66 62 -50 -90 15 hvcurveto
            -13 3 2 -12 21 hhcurveto
            26 0 16 16 hvcurveto
            143 vlineto
            12 0 20 -21 116 callgsubr
            vhcurveto
            -1 -4 -1 -4 -19 -35 rrcurveto
            36 -42 -45 19 -50 hhcurveto
            -129 -110 -134 -182 -183 110 -134 130 113 85 86 88 hvcurveto
            return
          </CharString>
          <CharString index="36">
            rmoveto
            -22 -25 -12 -27 -27 -25 12 22 23 25 13 27 27 25 -13 -23 vhcurveto
            50 hmoveto
            39 -43 34 -59 -59 -43 -34 -39 -38 43 -33 59 59 43 33 38 vhcurveto
            return
          </CharString>
          <CharString index="37">
            24 -4 8 -27 vhcurveto
            -113 -33 callsubr
            94 -341 -94 hlineto
            -12 -19 -46 callgsubr
            269 5 callsubr
            -125 140 hlineto
            return
          </CharString>
          <CharString index="38">
            493 21 rmoveto
            21 -21 0 -29 vhcurveto
            -179 319 165 208 rlineto
            34 36 callgsubr
            46 callgsubr
            -91 134 callsubr
            22 0 32 hvcurveto
            -250 -315 rlineto
            315 33 vlineto
            11 21 112 callsubr
            -104 hlineto
            -11 125 callsubr
            31 -527 -31 hlineto
            -11 126 callgsubr
            104 -16 callgsubr
            21 151 callgsubr
            -33 152 hlineto
            108 136 161 -288 rlineto
            -29 -20 144 callgsubr
            77 hlineto
            12 21 0 21 hvcurveto
            return
          </CharString>
          <CharString index="39">
            -56 hlineto
            -12 -20 0 -21 129 callgsubr
            21 -20 0 -12 hvcurveto
            -56 return
          </CharString>
          <CharString index="40">
            -19 -39 -49 0 -8 hhcurveto
            -71 -46 41 45 53 91 46 168 5 hvcurveto
            return
          </CharString>
          <CharString index="41">
            hlineto
            -11 41 callsubr
            19 0 return
          </CharString>
          <CharString index="42">
            465 305 rmoveto
            205 -8 70 -73 31 vhcurveto
            19 59 1 8 0 vvcurveto
            19 -20 2 -3 -14 -4 -14 -10 -3 vhcurveto
            -18 -55 rlineto
            2 -35 -22 0 -23 hhcurveto
            -184 -19 -28 -289 -46 0 -67 5 -49 hvcurveto
            8 -76 11 -42 57 -26 rrcurveto
            -19 -58 -1 -8 0 vvcurveto
            -19 20 -2 3 14 4 14 10 3 vhcurveto
            18 55 rlineto
            -2 35 21 0 24 hhcurveto
            8 callgsubr
            hvcurveto
            -38 1 rmoveto
            -64 0 -84 -13 -50 vhcurveto
            -67 -19 -45 -10 -88 hhcurveto
            -27 -3 0 1 -11 hvcurveto
            -6 -8 3 3 -10 hvcurveto
            171 527 rlineto
            34 -26 25 -19 -214 vvcurveto
            -100 267 rmoveto
            -171 -527 rlineto
            -34 26 -25 19 214 vvcurveto
            64 0 84 13 50 vhcurveto
            67 19 45 10 88 hhcurveto
            27 3 0 -1 11 hvcurveto
            6 8 -3 -3 10 hvcurveto
            return
          </CharString>
          <CharString index="43">
            36 hlineto
            -66 callgsubr
            -123 -88 callgsubr
            return
          </CharString>
          <CharString index="44">
            -66 callsubr
            12 hvcurveto
            return
          </CharString>
          <CharString index="45">
            -87 callgsubr
            endchar
          </CharString>
          <CharString index="46">
            510 21 rmoveto
            21 -20 0 -12 vhcurveto
            -56 251 hlineto
            96 -48 42 -76 -65 -44 -33 -36 -37 vhcurveto
            return
          </CharString>
          <CharString index="47">
            5 3 17 9 23 vhcurveto
            -9 14 36 -22 48 hhcurveto
            89 71 70 86 29 -9 28 -22 37 hvcurveto
            33 18 26 5 24 2 rrcurveto
            -30 6 18 -6 8 hhcurveto
            13 18 9 23 hvcurveto
            -165 -115 rmoveto
            -65 -51 -50 -59 vhcurveto
            return
          </CharString>
          <CharString index="48">
            18 -18 23 23 18 18 return
          </CharString>
          <CharString index="49">
            524 262 rmoveto
            143 -118 117 -143 -144 -118 -117 -143 -145 118 -117 144 143 118 117 145 vhcurveto
            -19 hmoveto
            -134 -109 -109 -133 -134 -109 109 134 132 109 109 134 133 109 -109 -132 vhcurveto
            return
          </CharString>
          <CharString index="50">
            -97 callsubr
            -73 134 -106 callsubr
          </CharString>
          <CharString index="51">
            -62 -48 54 60 65 51 50 59 62 48 -54 -60 hvcurveto
            111 -371 rmoveto
            -49 -81 -51 -110 -111 -80 51 49 21 10 37 37 23 vhcurveto
            17 27 10 1 79 hhcurveto
            98 121 -5 -94 hvcurveto
            return
          </CharString>
          <CharString index="52">
            463 102 rmoveto
            19 -22 0 -4 -10 -6 -1 -7 -5 vhcurveto
            -23 -11 -24 -54 -81 hhcurveto
            -93 -79 77 100 53 30 126 148 26 47 -9 -11 -28 15 -12 20 19 17 14 23 59 -101 6 -43 -170 -59 -134 -87 -118 93 -101 124 134 35 92 16 hvcurveto
            return
          </CharString>
          <CharString index="53">
            hlineto
            -23 callsubr
            return
          </CharString>
          <CharString index="54">
            0 11 hvcurveto
            return
          </CharString>
          <CharString index="55">
            -61 callgsubr
            21 return
          </CharString>
          <CharString index="56">
            482 301 rmoveto
            159 -83 151 -133 vhcurveto
            -213 27 callgsubr
            11 hvcurveto
            33 -527 -33 94 callsubr
            11 hvcurveto
            213 hlineto
            130 86 141 160 hvcurveto
            -50 hmoveto
            -127 -65 -132 -121 vhcurveto
            -109 527 109 hlineto
            123 63 -143 -125 hvcurveto
            return
          </CharString>
          <CharString index="57">
            -11 -20 -46 callgsubr
            return
          </CharString>
          <CharString index="58">
            -14 callsubr
            26 0 return
          </CharString>
          <CharString index="59">
            -43 1 17 0 14 hhcurveto
            75 hlineto
            12 20 0 22 hvcurveto
            return
          </CharString>
          <CharString index="60">
            0 -21 -21 return
          </CharString>
          <CharString index="61">
            -45 callsubr
            endchar
          </CharString>
          <CharString index="62">
            149 callsubr
            -328 hlineto
            -10 -29 0 -26 -26 29 0 10 hvcurveto
            328 hlineto
            10 29 0 26 hvcurveto
            return
          </CharString>
          <CharString index="63">
            494 589 rmoveto
            49 callgsubr
            vhcurveto
            -110 -59 callgsubr
            return
          </CharString>
          <CharString index="64">
            40 callsubr
            -50 -314 vlineto
            341 324 rlineto
            18 17 2 3 14 vvcurveto
            25 -18 0 -14 vhcurveto
            -352 hlineto
            -26 -6 -6 -26 hvcurveto
            -48 vlineto
            -49 callsubr
            17 15 vhcurveto
            38 vlineto
            return
          </CharString>
          <CharString index="65">
            hhcurveto
            58 21 62 35 hvcurveto
            -142 362 rmoveto
            -55 -49 -66 -102 vhcurveto
            -85 242 85 hlineto
            return
          </CharString>
          <CharString index="66">
            -6 42 -36 -24 callgsubr
            150 42 hstemhm
            116 51 52 62 131 51 -21 51 hintmask 01111010
            493 171 rmoveto
            48 -15 103 -111 77 vhcurveto
            81 44 15 43 29 vvcurveto
            63 -80 39 -93 -62 -112 -19 -90 vhcurveto
            -83 -66 vlineto
            -12 -19 -91 callsubr
            66 -341 -66 43 callsubr
            86 15 callgsubr
            468 vlineto
            25 0 16 41 18 vhcurveto
            11 25 28 5 28 hhcurveto
            71 52 -34 -27 -25 -31 -61 -114 -3 hvcurveto
            -9 -1 -10 -5 -16 vvcurveto
            -15 13 -5 3 -1 vhcurveto
            hintmask 10000101
            146 -9 32 -143 -59 vvcurveto
            -87 -69 -48 -59 -9 -11 2 6 -13 vhcurveto
            27 0 3 -6 8 vhcurveto
            7 -5 -9 5 -10 hhcurveto
            -17 -15 -12 -21 -34 32 -33 63 90 89 69 108 hvcurveto
            endchar
          </CharString>
          <CharString index="67">
            -6 42 -36 -24 callgsubr
            102 73 94 142 callgsubr
            -11 72 99 72 -12 44 callsubr
            hintmask 1010001000000000
            -95 callgsubr
            hintmask 0100000000000000
            -48 callsubr
            hintmask 0001110110000000
            -1 callsubr
            return
          </CharString>
          <CharString index="68">
            213 -37 callsubr
            return
          </CharString>
          <CharString index="69">
            -32 callgsubr
            vhcurveto
            return
          </CharString>
          <CharString index="70">
            563 -87 callgsubr
            return
          </CharString>
          <CharString index="71">
            -21 -19 callsubr
            return
          </CharString>
          <CharString index="72">
            26 callgsubr
            -16 8 -14 28 -15 vhcurveto
            -18 -25 -20 1 -6 hhcurveto
            -86 hlineto
            -13 65 callgsubr
            11 hhcurveto
            return
          </CharString>
          <CharString index="73">
            25 -24 1 -25 -47 vvcurveto
            -64 0 -31 20 -35 vhcurveto
            -25 16 25 -13 30 -42 callsubr
            return
          </CharString>
          <CharString index="74">
            24 callgsubr
            -32 callsubr
            return
          </CharString>
          <CharString index="75">
            19 -18 callgsubr
            return
          </CharString>
          <CharString index="76">
            42 527 42 return
          </CharString>
          <CharString index="77">
            rmoveto
            8 -9 9 -13 5 vhcurveto
            -107 40 -9 3 -8 0 -9 -3 rlinecurve
            -109 -40 rlineto
            -13 -5 -9 -9 -8 vvcurveto
            hintmask 0010000000000000
            127 callsubr
            hintmask 0001000000000000
            6 14 4 3 10 hvcurveto
            hintmask 0010000100000000
            89 30 rlineto
            hintmask 0001000000000000
            89 -30 rlineto
            hintmask 0010010101100000
            -75 callsubr
            hintmask 0000100010000000
            -39 -22 -31 -27 -42 vvcurveto
            -19 vlineto
            hintmask 0000100001000000
            -10 8 -8 11 vhcurveto
            return
          </CharString>
          <CharString index="78">
            -23 callgsubr
            hstem
            494 -17 callgsubr
            -30 hlineto
            -152 285 122 242 rlineto
            30 hlineto
            -11 callgsubr
            46 callgsubr
            6 callsubr
            35 hvcurveto
            -90 -185 -97 185 rlineto
            32 65 callsubr
            -107 hlineto
            -11 125 callsubr
            30 hlineto
            129 -243 -143 -284 rlineto
            -29 hlineto
            -12 -19 117 callsubr
            21 -20 0 -35 hvcurveto
            111 235 120 -235 rlineto
            -35 -18 117 callsubr
            hvcurveto
            endchar
          </CharString>
          <CharString index="79">
            32 -26 23 -28 -33 -22 -27 -27 -32 26 -23 28 33 22 27 27 vhcurveto
            return
          </CharString>
          <CharString index="80">
            -33 callgsubr
            -33 -6 51 62 62 0 9 -9 22 vhcurveto
            -12 28 -22 20 -26 20 rrcurveto
            return
          </CharString>
          <CharString index="81">
            10 -6 15 -29 -24 -35 -9 -6 -24 vhcurveto
            -1 -4 -30 -5 -33 hhcurveto
            1 43 3 31 5 15 rrcurveto
            7 34 8 40 28 vvcurveto
            6 0 24 -31 -9 -21 -2 -28 -8 1 -11 2 -11 vhcurveto
            19 -98 3 -27 -1 -36 rrcurveto
            -31 -13 1 5 -25 hvcurveto
            7 -22 -34 8 -25 hhcurveto
            -32 -3 -20 -4 -10 6 -13 29 25 34 6 6 25 hvcurveto
            2 6 27 5 33 hhcurveto
            -34 -5 -41 -4 -15 vhcurveto
            -7 -33 -8 -40 -29 vvcurveto
            -26 20 -4 10 27 4 20 10 9 -1 10 -2 12 vhcurveto
            -19 97 -1 28 -1 36 rrcurveto
            32 12 -1 -6 25 hvcurveto
            -6 22 35 -8 24 hhcurveto
            32 3 20 4 hvcurveto
            return
          </CharString>
          <CharString index="82">
            42 129 42 368 42 return
          </CharString>
          <CharString index="83">
            58 callsubr
            537 -70 callgsubr
            -197 hlineto
            43 -50 -40 16 -42 hhcurveto
            -107 -94 -94 -125 hvcurveto
            return
          </CharString>
          <CharString index="84">
            11 20 0 return
          </CharString>
          <CharString index="85">
            -22 -32 callsubr
            return
          </CharString>
          <CharString index="86">
            -11 42 274 51 224 42 hstemhm
            47 51 -37 51 300 51 -37 51 hintmask 00101100
            477 170 rmoveto
            73 -44 56 -104 30 vhcurveto
            109 37 25 46 55 vvcurveto
            80 -85 75 -116 -117 -84 -76 -79 -55 26 -47 109 -36 vhcurveto
            hintmask 11010010
            -106 -30 -43 -56 -73 vvcurveto
            -96 92 -85 123 124 91 85 96 vhcurveto
            -65 296 rmoveto
            -64 -68 -46 -82 vhcurveto
            hintmask 10101100
            -82 -68 48 62 58 62 56 88 87 63 -56 -58 hvcurveto
            14 -295 rmoveto
            -77 -72 -63 -92 vhcurveto
            hintmask 01010010
            -92 -72 63 77 67 63 67 101 102 62 -67 -67 hvcurveto
            endchar
          </CharString>
          <CharString index="87">
            368 41 vlineto
            12 20 0 21 hvcurveto
            return
          </CharString>
          <CharString index="88">
            -21 -8 callgsubr
            return
          </CharString>
          <CharString index="89">
            -47 callsubr
            35 callsubr
            return
          </CharString>
          <CharString index="90">
            46 10 47 hstemhm
            hintmask 11100000
            -107 callgsubr
            return
          </CharString>
          <CharString index="91">
            42 161 42 153 42 return
          </CharString>
          <CharString index="92">
            495 21 rmoveto
            9 -3 7 -10 4 vhcurveto
            1 -6 -20 0 -21 hhcurveto
            -127 549 rlineto
            32 -8 -12 0 -26 hhcurveto
            -24 -14 0 -31 -8 hvcurveto
            -127 -550 rlineto
            -21 -21 0 -1 -6 hvcurveto
            -8 -4 -4 -7 -9 vvcurveto
            -21 22 0 12 vhcurveto
            106 hlineto
            14 36 callgsubr
            -18 0 -42 hvcurveto
            28 129 rlineto
            184 hlineto
            28 -129 rlineto
            -42 60 callsubr
            16 0 49 hvcurveto
            -67 -43 -22 25 callsubr
            return
          </CharString>
          <CharString index="93">
            -14 0 -18 25 return
          </CharString>
          <CharString index="94">
            0 -25 callsubr
            return
          </CharString>
          <CharString index="95">
            -8 vvcurveto
            -26 callgsubr
            6 14 return
          </CharString>
          <CharString index="96">
            rmoveto
            240 -108 70 -95 -109 -100 -81 -119 -112 87 -88 108 51 51 17 58 64 vhcurveto
            -160 -13 -86 -106 -104 hhcurveto
            -10 -40 2 24 -32 hvcurveto
            9 12 4 5 14 vvcurveto
            19 -14 16 -21 -20 -16 -14 -24 -31 18 -65 122 132 122 126 197 vhcurveto
            -60 80 rmoveto
            -62 -60 -64 -92 -90 -59 74 82 96 78 62 80 49 31 -26 -22 18 vhcurveto
            29 -37 13 -56 -8 vvcurveto
            hintmask 00000100
            0 3 -23 -16 vvcurveto
            endchar
          </CharString>
          <CharString index="97">
            hlineto
            12 19 0 21 return
          </CharString>
          <CharString index="98">
            hlineto
            -12 -19 0 return
          </CharString>
          <CharString index="99">
            0 42 211 43 273 42 hstem
            102 50 274 51 vstem
            477 432 113 callgsubr
            -232 34 callsubr
            21 -53 callsubr
            42 -527 -42 94 callsubr
            11 hvcurveto
            134 -16 callgsubr
            21 46 callgsubr
            -42 211 140 hlineto
            113 72 88 91 hvcurveto
            -51 hmoveto
            -59 -47 -77 -107 vhcurveto
            -120 273 120 hlineto
            107 47 -78 -59 hvcurveto
            endchar
          </CharString>
          <CharString index="100">
            0 -24 callgsubr
            return
          </CharString>
          <CharString index="101">
            0 20 22 return
          </CharString>
          <CharString index="102">
            -237 42 199 38 78 41 229 41 -36 41 -38 38 return
          </CharString>
          <CharString index="103">
            53 callgsubr
            hintmask 11011000
            -104 callgsubr
            return
          </CharString>
          <CharString index="104">
            -6 42 153 42 161 42 hstem
            460 214 rmoveto
            121 -100 99 -128 -127 -47 -84 -24 -19 21 0 4 12 6 1 10 4 vhcurveto
            63 28 60 11 32 hhcurveto
            82 82 -55 -106 20 hvcurveto
            -320 hlineto
            -17 -14 0 -28 -112 62 -97 128 117 95 99 121 hvcurveto
            -52 -25 rmoveto
            -93 -18 -65 -60 -77 hhcurveto
            -58 -70 27 126 -11 hvcurveto
            endchar
          </CharString>
          <CharString index="105">
            -7 3 -13 -2 22 callgsubr
            -23 hhcurveto
            -23 -33 20 31 45 31 40 35 28 hvcurveto
            153 4 21 36 276 vvcurveto
            -51 9 rmoveto
            -65 0 -74 -12 -56 vhcurveto
            -63 -12 -28 -25 -100 hhcurveto
            -99 -27 25 56 -13 hvcurveto
            -13 54 0 91 57 vvcurveto
            65 0 71 12 49 vhcurveto
            66 14 34 15 92 hhcurveto
            84 38 -12 -62 17 hvcurveto
            13 -49 0 -79 -64 vvcurveto
            return
          </CharString>
          <CharString index="106">
            -297 541 -87 callgsubr
            return
          </CharString>
          <CharString index="107">
            524 655 rmoveto
            26 -9 32 -33 1 vhcurveto
            -35 callsubr
            return
          </CharString>
          <CharString index="108">
            hlineto
            -50 callsubr
            return
          </CharString>
          <CharString index="109">
            293 hlineto
            -341 -324 rlineto
            -18 -17 -1 -3 -14 vvcurveto
            -25 17 0 15 vhcurveto
            390 hlineto
            return
          </CharString>
          <CharString index="110">
            rmoveto
            23 -18 0 -13 vhcurveto
            -132 15 callsubr
            -22 19 0 13 hvcurveto
            131 -10 callsubr
            hvcurveto
            endchar
          </CharString>
          <CharString index="111">
            0 42 242 43 242 42 hstemhm
            91 51 return
          </CharString>
          <CharString index="112">
            hlineto
            12 -40 callgsubr
            return
          </CharString>
          <CharString index="113">
            -108 -66 callsubr
            return
          </CharString>
          <CharString index="114">
            -59 58 42 -9 31 hhcurveto
            107 95 94 125 hvcurveto
            -50 hmoveto
            -106 -78 -71 -77 -88 -40 98 53 vhcurveto
            76 vlineto
            return
          </CharString>
          <CharString index="115">
            rmoveto
            99 -76 96 -116 -34 -44 -6 -30 -56 vhcurveto
            224 259 2 callgsubr
            -279 hlineto
            -25 -6 -7 -25 hvcurveto
            -275 vlineto
            -14 0 -18 23 10 5 2 4 4 vhcurveto
            41 34 45 20 63 hhcurveto
            92 50 -81 -72 -88 -78 -67 -92 -32 -71 10 67 -34 hvcurveto
            return
          </CharString>
          <CharString index="116">
            10 callsubr
            55 -31 callsubr
            return
          </CharString>
          <CharString index="117">
            -218 -21 108 76 return
          </CharString>
          <CharString index="118">
            100 46 51 46 91 callgsubr
            12 20 0 21 21 -17 0 -40 hvcurveto
            196 vlineto
            100 47 51 47 91 callgsubr
            11 21 0 21 hvcurveto
            return
          </CharString>
          <CharString index="119">
            333 -21 217 82 hstem
            221 42 28 42 vstem
            333 503 rmoveto
            72 -32 36 -38 -27 -15 -21 -20 -23 16 -19 25 6 8 1 0 vhcurveto
            8 7 -14 -12 -20 -3 -80 -87 -50 hvcurveto
            -6 -4 -7 -5 -9 vvcurveto
            -13 11 -10 10 24 100 69 122 vhcurveto
            endchar
          </CharString>
          <CharString index="120">
            507 391 rmoveto
            20 -18 25 -47 -11 -48 -1 -37 -50 vhcurveto
            return
          </CharString>
          <CharString index="121">
            45 callgsubr
            211 51 return
          </CharString>
          <CharString index="122">
            -9 callsubr
            -22 return
          </CharString>
          <CharString index="123">
            442 -17 callgsubr
            -122 527 122 hlineto
            -11 callgsubr
            46 callgsubr
            -295 34 callsubr
            21 -53 callsubr
            122 -527 -122 115 callsubr
            21 -53 callsubr
            137 hlineto
            -57 -44 -15 -38 -40 vvcurveto
            return
          </CharString>
          <CharString index="124">
            385 82 216 -20 hstem
            191 42 28 42 vstem
            336 661 rmoveto
            12 -11 10 -10 -24 -100 -68 -123 -72 32 -35 38 27 15 21 20 22 -16 19 -25 -7 -7 -1 0 vhcurveto
            -8 -7 15 11 21 3 79 87 51 hvcurveto
            6 3 7 5 10 vvcurveto
            endchar
          </CharString>
          <CharString index="125">
            -38 callsubr
            endchar
          </CharString>
          <CharString index="126">
            -62 -51 -92 -86 -78 -68 78 98 106 78 71 77 72 56 -63 -62 vhcurveto
            return
          </CharString>
          <CharString index="127">
            vlineto
            -50 callsubr
            return
          </CharString>
          <CharString index="128">
            -6 24 callsubr
            return
          </CharString>
          <CharString index="129">
            -7 5 -12 -4 22 callgsubr
            -24 hhcurveto
            -23 return
          </CharString>
          <CharString index="130">
            -207 83 124 -31 callsubr
            return
          </CharString>
          <CharString index="131">
            42 -36 42 350 42 return
          </CharString>
          <CharString index="132">
            -34 135 callgsubr
            36 36 96 callgsubr
            -1 12 -7 5 rrcurveto
            return
          </CharString>
          <CharString index="133">
            -10 8 -9 11 vhcurveto
            100 hlineto
            11 8 9 11 1 hvcurveto
            return
          </CharString>
          <CharString index="134">
            rrcurveto
            13 -34 -15 4 -17 hhcurveto
            -60 -60 -31 -56 -48 40 -37 49 58 56 23 51 31 hvcurveto
            -38 51 49 -36 44 hhcurveto
            69 38 74 76 hvcurveto
            -295 -48 rmoveto
            -38 -16 -43 -13 -42 hhcurveto
            -20 -17 16 18 29 35 7 33 hvcurveto
            return
          </CharString>
          <CharString index="135">
            42 353 42 138 42 hstem
            102 50 283 50 vstem
            39 callsubr
            212 -75 callgsubr
            return
          </CharString>
          <CharString index="136">
            -6 49 callsubr
            return
          </CharString>
          <CharString index="137">
            34 callgsubr
            262 39 26 37 -18 37 25 37 return
          </CharString>
          <CharString index="138">
            32 rmoveto
            92 vlineto
            15 0 17 -25 return
          </CharString>
          <CharString index="139">
            -5 8 -26 vhcurveto
            return
          </CharString>
          <CharString index="140">
            -7 5 -13 -4 -4 -4 rrcurveto
            -19 -14 -27 -23 -23 hhcurveto
            -23 -33 20 31 return
          </CharString>
          <CharString index="141">
            72 callsubr
            -21 -21 return
          </CharString>
          <CharString index="142">
            20 -18 callgsubr
            return
          </CharString>
          <CharString index="143">
            43 -3 -16 0 -14 hhcurveto
            -33 34 callsubr
            17 0 40 hvcurveto
            -341 vlineto
            -40 -17 -47 callsubr
            22 0 10 hvcurveto
            91 120 callsubr
            return
          </CharString>
          <CharString index="144">
            10 callsubr
            55 -24 callgsubr
            return
          </CharString>
          <CharString index="145">
            10 -4 8 -9 10 vhcurveto
            41 41 78 1 10 hhcurveto
            77 55 -43 -51 -34 -16 -39 -31 -25 hvcurveto
            -35 -29 -27 -2 -40 -2 rrcurveto
            -49 -4 -16 -1 -19 vvcurveto
            -22 19 0 12 vhcurveto
            48 hlineto
            return
          </CharString>
          <CharString index="146">
            485 213 rmoveto
            121 -87 97 -104 -47 -44 -18 -46 -51 vhcurveto
            return
          </CharString>
          <CharString index="147">
            -6 callgsubr
            hvcurveto
            return
          </CharString>
          <CharString index="148">
            -20 -47 callsubr
            return
          </CharString>
          <CharString index="149">
            -12 -4 callgsubr
            return
          </CharString>
          <CharString index="150">
            hlineto
            42 callsubr
            return
          </CharString>
          <CharString index="151">
            50 hintmask 0110000001000000
            -84 callsubr
            return
          </CharString>
          <CharString index="152">
            39 26 37 44 37 return
          </CharString>
          <CharString index="153">
            280 52 hstem
            525 306 rmoveto
            149 callsubr
            -447 hlineto
            -10 -29 0 -26 -26 29 0 10 hvcurveto
            447 107 callgsubr
          </CharString>
          <CharString index="154">
            -122 88 -96 104 55 40 26 47 46 vhcurveto
            return
          </CharString>
          <CharString index="155">
            102 50 220 50 return
          </CharString>
          <CharString index="156">
            42 356 42 return
          </CharString>
          <CharString index="157">
            -28 callsubr
            endchar
          </CharString>
          <CharString index="158">
            vvcurveto
            68 56 56 68 51 49 -26 -48 19 vhcurveto
            -10 -11 -4 -8 -10 vvcurveto
            -19 16 -16 19 19 16 16 19 89 -82 66 -93 -97 -78 -79 -97 return
          </CharString>
          <CharString index="159">
            hstemhm
            60 callgsubr
            return
          </CharString>
          <CharString index="160">
            -210 35 0 42 return
          </CharString>
          <CharString index="161">
            rmoveto
            69 -46 57 -82 37 vhcurveto
            71 46 27 55 53 vvcurveto
            72 -72 63 -112 -116 -70 -43 -67 -27 20 -12 16 17 18 14 23 vhcurveto
            return
          </CharString>
          <CharString index="162">
            464 213 rmoveto
            123 -92 98 -110 -110 -92 -98 -123 -113 72 -85 117 -20 vhcurveto
            -48 -39 -22 -40 -38 vvcurveto
            return
          </CharString>
          <CharString index="163">
            hvcurveto
            -9 54 0 71 56 vvcurveto
            59 0 80 11 50 vhcurveto
            62 14 24 24 103 hhcurveto
            100 30 -21 -72 13 hvcurveto
            9 -54 0 -71 -56 vvcurveto
            return
          </CharString>
          <CharString index="164">
            -40 33 -48 59 114 callgsubr
            return
          </CharString>
          <CharString index="165">
            510 22 rmoveto
            20 -20 0 -11 vhcurveto
            -57 return
          </CharString>
          <CharString index="166">
            42 255 42 230 42 return
          </CharString>
          <CharString index="167">
            -18 -47 callsubr
            return
          </CharString>
          <CharString index="168">
            483 306 rmoveto
            26 -31 0 -11 vhcurveto
            -358 hlineto
            -11 -31 0 -26 -26 27 0 9 hvcurveto
            370 hlineto
            9 27 0 26 hvcurveto
            return
          </CharString>
          <CharString index="169">
            67 callsubr
            hstemhm
            return
          </CharString>
          <CharString index="170">
            9 10 7 6 16 vvcurveto
            23 -19 13 -17 -12 -24 -8 -32 -81 83 -66 110 123 98 88 109 vhcurveto
            endchar
          </CharString>
          <CharString index="171">
            -236 43 0 43 533 42 return
          </CharString>
          <CharString index="172">
            36 callgsubr
            -20 0 -11 hvcurveto
            return
          </CharString>
          <CharString index="173">
            42 538 42 return
          </CharString>
          <CharString index="174">
            -21 117 -20 return
          </CharString>
          <CharString index="175">
            97 callgsubr
            138 42 return
          </CharString>
          <CharString index="176">
            hstemhm
            31 40 1 50 -38 50 return
          </CharString>
          <CharString index="177">
            24 32 callsubr
            return
          </CharString>
          <CharString index="178">
            37 callsubr
            144 42 hstemhm
            108 44 125 44 -32 28 122 44 return
          </CharString>
          <CharString index="179">
            hlineto
            -11 -21 0 return
          </CharString>
          <CharString index="180">
            66 65 60 71 82 65 -80 -96 vhcurveto
            endchar
          </CharString>
          <CharString index="181">
            -46 vlineto
            -12 -20 -18 callsubr
            143 5 callsubr
            -46 return
          </CharString>
          <CharString index="182">
            vhcurveto
            -222 -192 rlineto
            -5 -4 -6 -7 -12 vvcurveto
            -9 3 -8 5 -4 vhcurveto
            225 -194 rlineto
            -6 return
          </CharString>
          <CharString index="183">
            -23 callgsubr
            hstem
            237 51 vstem
            return
          </CharString>
          <CharString index="184">
            hstemhm
            78 52 210 52 1 52 -4 83 return
          </CharString>
          <CharString index="185">
            vstem
            395 231 rmoveto
            78 -63 55 -68 -80 -53 -65 -66 -79 63 -55 68 81 52 65 67 vhcurveto
            return
          </CharString>
          <CharString index="186">
            hstemhm
            41 50 303 51 -50 50 return
          </CharString>
          <CharString index="187">
            hstemhm
            51 71 -5 50 144 50 return
          </CharString>
          <CharString index="188">
            16 callgsubr
            72 -21 return
          </CharString>
          <CharString index="189">
            -51 7 rmoveto
            -102 -70 -82 -81 -82 -69 82 102 101 73 71 78 79 72 -71 -101 vhcurveto
            endchar
          </CharString>
          <CharString index="190">
            hlineto
            16 130 rlineto
            29 4 -17 8 -12 hhcurveto
            -24 -2 -24 -9 -1 hvcurveto
            -16 -134 rlineto
            return
          </CharString>
          <CharString index="191">
            42 -36 94 callgsubr
            39 50 return
          </CharString>
          <CharString index="192">
            42 -36 -24 callgsubr
            hstemhm
            102 50 return
          </CharString>
          <CharString index="193">
            hstem
            161 50 104 50 vstem
            315 return
          </CharString>
          <CharString index="194">
            -20 hstem
            236 52 vstem
            return
          </CharString>
          <CharString index="195">
            103 48 -68 -53 hvcurveto
            return
          </CharString>
          <CharString index="196">
            -21 118 -20 return
          </CharString>
          <CharString index="197">
            170 -460 rmoveto
            26 -19 12 -17 -17 -18 -13 -23 -8 1 -9 12 -13 vhcurveto
            return
          </CharString>
          <CharString index="198">
            23 40 callgsubr
            -23 -24 -59 callsubr
            24 vhcurveto
            endchar
          </CharString>
          <CharString index="199">
            89 callsubr
            hstemhm
            return
          </CharString>
          <CharString index="200">
            42 231 42 return
          </CharString>
          <CharString index="201">
            133 callsubr
            21 0 return
          </CharString>
          <CharString index="202">
            43 354 42 11 42 return
          </CharString>
          <CharString index="203">
            43 -37 42 339 43 return
          </CharString>
          <CharString index="204">
            -8 7 -12 -6 22 callgsubr
            -23 hhcurveto
            -23 -33 20 31 return
          </CharString>
          <CharString index="205">
            17 -7 -14 0 -5 hhcurveto
            -25 0 -18 -15 hvcurveto
            -43 vlineto
            -14 callsubr
            return
          </CharString>
          <CharString index="206">
            -40 34 -48 58 37 35 96 callgsubr
            0 11 -7 6 rrcurveto
            return
          </CharString>
          <CharString index="207">
            145 callgsubr
            141 72 return
          </CharString>
          <CharString index="208">
            hstemhm
            101 50 220 51 2 83 -48 51 return
          </CharString>
          <CharString index="209">
            hstemhm
            79 51 -4 128 callsubr
            -5 51 return
          </CharString>
          <CharString index="210">
            hstemhm
            46 63 -63 69 return
          </CharString>
          <CharString index="211">
            hlineto
            -6 -5 -5 -6 -2 hvcurveto
            -4 -17 rlineto
            -8 -2 6 -8 9 hhcurveto
            return
          </CharString>
          <CharString index="212">
            hstemhm
            102 50 146 40 -29 50 -21 50 0 51 -13 51 -28 51 return
          </CharString>
          <CharString index="213">
            91 38 callgsubr
            hvcurveto
            -160 22 rmoveto
            -258 hlineto
            231 return
          </CharString>
          <CharString index="214">
            69 callsubr
            98 69 callgsubr
            return
          </CharString>
          <CharString index="215">
            156 -21 145 52 145 -20 hstem
            493 306 rmoveto
            return
          </CharString>
          <CharString index="216">
            hlineto
            -18 -143 rlineto
            -13 10 -13 16 21 4 24 10 2 vhcurveto
            return
          </CharString>
          <CharString index="217">
            -207 83 113 32 callgsubr
            return
          </CharString>
          <CharString index="218">
            hstemhm
            160 50 157 50 0 67 return
          </CharString>
          <CharString index="219">
            -6 callsubr
            151 callgsubr
            return
          </CharString>
          <CharString index="220">
            43 callgsubr
            83 -21 return
          </CharString>
          <CharString index="221">
            45 51 -20 hstem
            435 return
          </CharString>
          <CharString index="222">
            72 callsubr
            -20 -22 return
          </CharString>
          <CharString index="223">
            -20 0 -20 -22 return
          </CharString>
          <CharString index="224">
            -41 callgsubr
            108 -16 callgsubr
            return
          </CharString>
          <CharString index="225">
            -21 125 -20 return
          </CharString>
          <CharString index="226">
            33 -32 42 -40 -47 -27 -41 -35 -31 24 -42 46 vhcurveto
            return
          </CharString>
          <CharString index="227">
            hlineto
            12 20 0 21 21 -17 0 -40 hvcurveto
            196 vlineto
            return
          </CharString>
          <CharString index="228">
            109 hlineto
            123 63 -143 -125 hvcurveto
            endchar
          </CharString>
          <CharString index="229">
            142 callsubr
            hstemhm
            return
          </CharString>
          <CharString index="230">
            -4 42 167 42 136 42 return
          </CharString>
          <CharString index="231">
            -52 callsubr
            -20 0 return
          </CharString>
          <CharString index="232">
            -21 -18 callsubr
            return
          </CharString>
          <CharString index="233">
            -47 -33 -58 -70 -70 33 -57 47 return
          </CharString>
          <CharString index="234">
            -26 callgsubr
            vhcurveto
            return
          </CharString>
          <CharString index="235">
            72 129 72 return
          </CharString>
          <CharString index="236">
            44 callgsubr
            4 6 return
          </CharString>
          <CharString index="237">
            12 -6 7 -5 4 vhcurveto
            -222 192 rlineto
            6 return
          </CharString>
          <CharString index="238">
            -23 -18 -18 -24 -32 callgsubr
            return
          </CharString>
          <CharString index="239">
            116 callsubr
            20 0 return
          </CharString>
          <CharString index="240">
            hlineto
            -12 41 callsubr
            return
          </CharString>
          <CharString index="241">
            72 callsubr
            -22 -20 return
          </CharString>
          <CharString index="242">
            37 70 37 138 -20 return
          </CharString>
          <CharString index="243">
            16 callgsubr
            hstem
            return
          </CharString>
          <CharString index="244">
            -20 102 callsubr
            return
          </CharString>
          <CharString index="245">
            493 654 rmoveto
            26 -9 33 -33 1 vhcurveto
            return
          </CharString>
          <CharString index="246">
            60 callgsubr
            vstem
            464 213 rmoveto
            return
          </CharString>
          <CharString index="247">
            81 callsubr
            118 -20 hstemhm
            return
          </CharString>
          <CharString index="248">
            26 rmoveto
            -116 679 116 hlineto
            endchar
          </CharString>
          <CharString index="249">
            -23 callgsubr
            52 72 return
          </CharString>
          <CharString index="250">
            vlineto
            14 0 18 -25 -26 0 return
          </CharString>
          <CharString index="251">
            6 13 vvcurveto
            14 -5 8 -7 return
          </CharString>
          <CharString index="252">
            -11 42 61 42 435 42 return
          </CharString>
          <CharString index="253">
            49 callsubr
            hstemhm
            76 42 return
          </CharString>
          <CharString index="254">
            -10 12 12 10 10 12 vhcurveto
            return
          </CharString>
          <CharString index="255">
            141 72 99 72 return
          </CharString>
          <CharString index="256">
            26 -29 0 -10 vhcurveto
            return
          </CharString>
          <CharString index="257">
            -21 0 -11 vhcurveto
            return
          </CharString>
          <CharString index="258">
            0 -29 -9 vhcurveto
            -707 vlineto
            -9 0 -29 return
          </CharString>
          <CharString index="259">
            -21 37 47 42 46 10 47 hstem
            405 return
          </CharString>
          <CharString index="260">
            vlineto
            12 -9 9 -12 -12 -9 -9 -12 vhcurveto
            return
          </CharString>
          <CharString index="261">
            hlineto
            -14 -12 -12 -14 -15 12 -11 14 hvcurveto
            return
          </CharString>
          <CharString index="262">
            -13 6 -9 rlinecurve
            6 -9 12 -3 10 7 return
          </CharString>
          <CharString index="263">
            59 callsubr
            hstemhm
            91 51 return
          </CharString>
          <CharString index="264">
            hstemhm
            59 51 74 41 0 51 138 51 return
          </CharString>
        <CharString name=".notdef">
          173 endchar
        </CharString>
        <CharString name="A">
          -13 callsubr
          hstem
          -107 callgsubr
          endchar
        </CharString>
        <CharString name="AE">
          -44 callgsubr
        </CharString>
        <CharString name="AE.dup">
          -44 callgsubr
        </CharString>
        <CharString name="AEacute">
          0 42 147 43 64 93 callsubr
          83 92 callsubr
          73 38 0 38 -19 37 13 37 57 38 129 37 -27 37 -29 38 hintmask 0000000000000100
          497 32 rmoveto
          92 vlineto
          hintmask 0000000000010000
          11 0 21 -19 vhcurveto
          hintmask 1010000000100100
          -19 0 -21 -11 hvcurveto
          -82 -147 254 vlineto
          hintmask 0011000000110000
          129 hlineto
          -66 callgsubr
          -129 231 hlineto
          hintmask 1101001011101000
          139 -66 hlineto
          -10 0 -22 19 18 0 22 10 vhcurveto
          76 70 callgsubr
          -290 -66 callsubr
          25 hvcurveto
          -107 -527 rlineto
          -29 -4 callgsubr
          74 124 callsubr
          -30 hvcurveto
          30 147 rlineto
          133 -147 hlineto
          -20 126 callgsubr
          201 hlineto
          hintmask 0101000101100100
          25 callgsubr
          -223 200 rmoveto
          -125 hlineto
          68 337 rlineto
          57 hlineto
          hintmask 0000110000000000
          88 196 -106 callsubr
        </CharString>
        <CharString name="Aacute">
          -13 callsubr
          71 92 callsubr
          hintmask 11100000
          -107 callgsubr
          hintmask 00011000
          96 184 -106 callsubr
        </CharString>
        <CharString name="Abreve">
          -13 callsubr
          50 150 callgsubr
          hintmask 11100000
          -107 callgsubr
          hintmask 00011000
          169 166 -97 callsubr
          endchar
        </CharString>
        <CharString name="Abreveacute">
          -13 callsubr
          50 45 189 -20 hstemhm
          hintmask 11100000
          -107 callgsubr
          hintmask 00011000
          169 166 -57 callsubr
        </CharString>
        <CharString name="Abrevedotbelow">
          -207 83 124 -25 callsubr
          50 150 callgsubr
          222 82 hintmask 01111100
          -107 callgsubr
          169 166 -97 callsubr
          hintmask 10000010
          -131 -912 rmoveto
          91 callsubr
        </CharString>
        <CharString name="Abrevegrave">
          -13 callsubr
          50 150 callgsubr
          hintmask 11100000
          -107 callgsubr
          hintmask 00011000
          169 166 -56 callgsubr
        </CharString>
        <CharString name="Abrevehookabove">
          -13 callsubr
          50 45 51 35 callgsubr
          172 45 callsubr
          hintmask 1110000010000000
          -107 callgsubr
          hintmask 0001111110000000
          169 166 -97 callsubr
          -80 167 -105 callgsubr
        </CharString>
        <CharString name="Abrevetilde">
          -13 callsubr
          50 45 91 -17 callsubr
          hintmask 00011100
          169 166 -97 callsubr
          -1 142 -107 callsubr
        </CharString>
        <CharString name="Acaron">
          -13 callsubr
          127 -20 hstemhm
          hintmask 11100000
          -107 callgsubr
          hintmask 00010000
          139 147 -99 callsubr
        </CharString>
        <CharString name="Acircumflex">
          -13 callsubr
          61 -21 hstemhm
          hintmask 11100000
          -107 callgsubr
          hintmask 00010000
          139 104 -106 callgsubr
          endchar
        </CharString>
        <CharString name="Acircumflexacute">
          -13 callsubr
          61 -21 224 -20 hstemhm
          hintmask 11100000
          -107 callgsubr
          hintmask 00011000
          139 104 -92 callsubr
        </CharString>
        <CharString name="Acircumflexdotbelow">
          -207 83 124 -25 callsubr
          61 -21 hstemhm
          222 82 hintmask 01111000
          -107 callgsubr
          139 104 -106 callgsubr
          hintmask 10000100
          -101 -850 rmoveto
          91 callsubr
        </CharString>
        <CharString name="Acircumflexgrave">
          -13 callsubr
          61 -21 hstemhm
          hintmask 11100000
          -107 callgsubr
          hintmask 00010000
          139 104 -92 callgsubr
        </CharString>
        <CharString name="Acircumflexhookabove">
          -13 callsubr
          40 30 callsubr
          hintmask 1110000100000000
          -107 callgsubr
          hintmask 0000100001000000
          139 104 -39 callgsubr
        </CharString>
        <CharString name="Acircumflextilde">
          -13 callsubr
          61 -21 37 47 42 -17 callsubr
          hintmask 00011110
          139 104 -106 callgsubr
          28 184 -107 callsubr
        </CharString>
        <CharString name="Adblgrave">
          -13 callsubr
          71 118 callsubr
          hstemhm
          hintmask 11100000
          -107 callgsubr
          hintmask 00011000
          133 122 -103 callgsubr
        </CharString>
        <CharString name="Adieresis">
          -13 callsubr
          40 72 hstemhm
          133 callgsubr
          hintmask 11100000
          -107 callgsubr
          hintmask 00011100
          -68 118 -89 callgsubr
          endchar
        </CharString>
        <CharString name="Adotbelow">
          -207 83 124 -25 callsubr
          hstemhm
          222 82 hintmask 01110000
          -107 callgsubr
          hintmask 10001000
          38 -746 rmoveto
          91 callsubr
        </CharString>
        <CharString name="Agrave">
          -13 callsubr
          71 92 callsubr
          hintmask 11100000
          -107 callgsubr
          hintmask 00011000
          95 123 -86 callsubr
        </CharString>
        <CharString name="Ahookabove">
          -13 callsubr
          51 58 callgsubr
          44 37 hintmask 11100001
          -107 callgsubr
          hintmask 00011111
          88 238 -105 callgsubr
        </CharString>
        <CharString name="Alpha">
          -13 callsubr
          hstem
          -107 callgsubr
          endchar
        </CharString>
        <CharString name="Amacron">
          -13 callsubr
          60 44 hstemhm
          hintmask 11100000
          -107 callgsubr
          hintmask 00010000
          182 123 -90 callsubr
        </CharString>
        <CharString name="Aogonek">
          53 callsubr
          133 -25 callsubr
          hstemhm
          258 40 0 40 16 40 hintmask 10111011
          -15 callsubr
          hintmask 01110011
          22 callsubr
          -33 20 31 48 39 40 61 36 hvcurveto
          24 -8 0 6 hhcurveto
          13 22 0 21 hvcurveto
          -152 192 rmoveto
          -162 hlineto
          hintmask 00011100
          77 368 rlineto
          7 hlineto
          endchar
        </CharString>
        <CharString name="Aogonekacute">
          53 callsubr
          133 -25 callsubr
          71 92 callsubr
          258 40 0 40 16 40 hintmask 1011100011000000
          -15 callsubr
          hintmask 0111000011000000
          22 callsubr
          -33 20 31 48 39 40 61 36 hvcurveto
          24 -8 0 6 hhcurveto
          13 22 0 21 hvcurveto
          -152 192 rmoveto
          -162 hlineto
          hintmask 0001100100000000
          77 368 rlineto
          7 hlineto
          hintmask 0000011000000000
          97 184 -106 callsubr
        </CharString>
        <CharString name="Aring">
          -13 callsubr
          0 37 70 37 hstemhm
          161 50 104 50 hintmask 11100000
          -107 callgsubr
          hintmask 00011110
          49 113 -50 callgsubr
        </CharString>
        <CharString name="Aringacute">
          -13 callsubr
          0 135 callsubr
          hstemhm
          161 50 104 50 hintmask 11100000
          -107 callgsubr
          hintmask 00011111
          49 113 -71 callsubr
          -3 185 -106 callsubr
        </CharString>
        <CharString name="Atilde">
          -13 callsubr
          40 -17 callsubr
          hintmask 00011000
          168 162 -107 callsubr
        </CharString>
        <CharString name="B">
          -22 callgsubr
        </CharString>
        <CharString name="Beta">
          -22 callgsubr
        </CharString>
        <CharString name="C">
          136 callsubr
          43 50 vstem
          -72 callsubr
          endchar
        </CharString>
        <CharString name="Cacute">
          140 callsubr
          43 50 hintmask 11001000
          -72 callsubr
          hintmask 00110000
          -92 602 -106 callsubr
        </CharString>
        <CharString name="Ccaron">
          16 callgsubr
          128 -20 hstemhm
          43 50 hintmask 11010000
          -72 callsubr
          hintmask 00100000
          -49 565 -99 callsubr
        </CharString>
        <CharString name="Ccedilla">
          -215 43 160 43 536 43 -30 42 hstemhm
          43 50 141 50 0 50 52 51 -7 51 hintmask 0101100010000000
          481 163 rmoveto
          24 -18 0 -8 -6 -17 0 -20 -2 vhcurveto
          -109 -7 -91 -27 -45 hhcurveto
          -98 -96 113 162 161 97 113 96 66 62 -50 -90 15 hvcurveto
          -13 3 2 -12 21 hhcurveto
          26 0 16 16 hvcurveto
          143 vlineto
          12 0 20 -21 vhcurveto
          hintmask 0010000000000000
          116 callgsubr
          hvcurveto
          -1 -4 -1 -4 -19 -35 rrcurveto
          hintmask 1101110100000000
          36 -42 -45 19 -50 hhcurveto
          -129 -110 -134 -182 -179 105 -132 136 -7 hvcurveto
          -23 vlineto
          -16 0 -16 23 -1 vhcurveto
          33 callgsubr
          vhcurveto
          hintmask 0000001010000000
          81 -103 10 0 vhcurveto
          24 vlineto
          49 7 98 61 100 vvcurveto
          endchar
        </CharString>
        <CharString name="Ccircumflex">
          16 callgsubr
          62 -21 hstemhm
          43 50 hintmask 11010000
          -72 callsubr
          hintmask 00100000
          -49 522 -106 callgsubr
          endchar
        </CharString>
        <CharString name="Cdotaccent">
          16 callgsubr
          52 83 hstemhm
          43 50 156 82 hintmask 11010000
          -72 callsubr
          hintmask 00101000
          -150 552 -30 callgsubr
        </CharString>
        <CharString name="Chi">
          -29 callsubr
        </CharString>
        <CharString name="D">
          0 42 527 42 hstem
          86 51 295 50 vstem
          -51 callsubr
          endchar
        </CharString>
        <CharString name="Dcaron">
          85 callgsubr
          86 51 295 50 hintmask 11011000
          -51 callsubr
          hintmask 00100000
          -90 427 -99 callsubr
        </CharString>
        <CharString name="Dcroat">
          -19 callgsubr
        </CharString>
        <CharString name="Ddotbelow">
          23 callsubr
          hstemhm
          86 51 22 82 191 50 hintmask 01110100
          -51 callsubr
          hintmask 10001000
          -191 -466 rmoveto
          91 callsubr
        </CharString>
        <CharString name="Delta">
          0 49 532 42 hstem
          487 12 rmoveto
          1 vlineto
          -178 580 rlineto
          28 -9 -10 2 -28 hhcurveto
          -19 -20 0 -26 -8 hvcurveto
          -178 -584 rlineto
          -1 vlineto
          -12 15 0 10 vhcurveto
          400 hlineto
          10 15 -18 callgsubr
          -63 37 rmoveto
          -324 hlineto
          160 532 rlineto
          4 hlineto
          endchar
        </CharString>
        <CharString name="Dlinebelow">
          157 callgsubr
          86 51 295 50 hintmask 01111000
          -51 callsubr
          hintmask 10000000
          -47 -452 -90 callsubr
        </CharString>
        <CharString name="E">
          14 callgsubr
          21 callgsubr
          hintmask 11111010
          -101 callsubr
          hintmask 10110100
          -99 callgsubr
          409 hlineto
          hintmask 00000010
          25 callgsubr
          endchar
        </CharString>
        <CharString name="Eacute">
          14 callgsubr
          83 -21 118 -20 -80 callgsubr
          -138 733 -106 callsubr
        </CharString>
        <CharString name="Ebreve">
          14 callgsubr
          62 45 51 -20 -80 callgsubr
          -65 715 -97 callsubr
          endchar
        </CharString>
        <CharString name="Ecaron">
          14 callgsubr
          139 -20 21 callgsubr
          hintmask 11101101
          -101 callsubr
          hintmask 10101010
          -99 callgsubr
          409 hlineto
          hintmask 00000001
          25 callgsubr
          hintmask 00010000
          -95 696 -99 callsubr
        </CharString>
        <CharString name="Ecircumflex">
          14 callgsubr
          73 -21 21 callgsubr
          hintmask 11101101
          -101 callsubr
          hintmask 10101010
          -99 callgsubr
          409 hlineto
          hintmask 00000001
          25 callgsubr
          hintmask 00010000
          -95 653 -106 callgsubr
          endchar
        </CharString>
        <CharString name="Ecircumflexacute">
          14 callgsubr
          73 -21 224 -20 -80 callgsubr
          -95 653 -92 callsubr
        </CharString>
        <CharString name="Ecircumflexdotbelow">
          -207 83 124 7 callgsubr
          73 -21 92 callgsubr
          hintmask 0111010101000000
          -101 callsubr
          hintmask 0101010010000000
          -99 callgsubr
          409 hlineto
          hintmask 0000100001000000
          25 callgsubr
          -95 653 -106 callgsubr
          hintmask 1000001000000000
          -101 -850 rmoveto
          91 callsubr
        </CharString>
        <CharString name="Ecircumflexgrave">
          14 callgsubr
          73 -21 21 callgsubr
          hintmask 11101101
          -101 callsubr
          hintmask 10101010
          -99 callgsubr
          409 hlineto
          hintmask 00000001
          25 callgsubr
          hintmask 00010000
          -95 653 -92 callgsubr
        </CharString>
        <CharString name="Ecircumflexhookabove">
          14 callgsubr
          52 34 callgsubr
          102 50 110 39 8 50 -32 37 -18 37 25 37 -19 51 -28 51 hintmask 1110000101000010
          -101 callsubr
          hintmask 1010000100000100
          -99 callgsubr
          409 hlineto
          hintmask 0000000000000010
          25 callgsubr
          hintmask 0000100000010000
          -95 653 -21 callgsubr
          hintmask 0001000010000000
          89 30 rlineto
          hintmask 0000100000000000
          89 -30 rlineto
          hintmask 0001001010011000
          1 callgsubr
          hintmask 0000010000101000
          -15 callgsubr
        </CharString>
        <CharString name="Ecircumflextilde">
          14 callgsubr
          73 -21 37 47 42 46 10 47 21 callgsubr
          hintmask 1110000110100000
          -101 callsubr
          hintmask 1010000101000000
          -99 callgsubr
          409 hlineto
          hintmask 0000000000100000
          25 callgsubr
          hintmask 0001111000000000
          -95 653 -106 callgsubr
          28 184 -107 callsubr
        </CharString>
        <CharString name="Edblgrave">
          14 callgsubr
          83 118 callsubr
          -80 callsubr
          hintmask 0001110000000000
          -72 671 -103 callgsubr
        </CharString>
        <CharString name="Edieresis">
          14 callgsubr
          52 72 hstemhm
          102 50 -26 72 111 50 -32 72 27 51 -28 51 hintmask 1110101001000000
          -101 callsubr
          hintmask 1010100010000000
          -99 callgsubr
          409 hlineto
          hintmask 0000000001000000
          25 callgsubr
          hintmask 0001010100000000
          -302 667 -89 callgsubr
          endchar
        </CharString>
        <CharString name="Edotaccent">
          14 callgsubr
          63 83 92 callgsubr
          hintmask 1110101010000000
          -101 callsubr
          hintmask 1010100100000000
          -71 callgsubr
          hintmask 0001010000000000
          -196 683 -30 callgsubr
        </CharString>
        <CharString name="Edotbelow">
          -207 83 124 7 callgsubr
          92 callgsubr
          hintmask 0111101010000000
          -101 callsubr
          hintmask 0101100100000000
          -71 callgsubr
          hintmask 1000010000000000
          -196 -197 rmoveto
          91 callsubr
        </CharString>
        <CharString name="Egrave">
          14 callgsubr
          83 -21 118 -20 -80 callgsubr
          -139 672 -86 callsubr
        </CharString>
        <CharString name="Ehookabove">
          14 callgsubr
          63 35 callgsubr
          102 50 19 39 26 37 36 50 -42 37 72 51 -28 51 hintmask 1110010010010000
          -101 callsubr
          hintmask 1010010000100000
          -99 callgsubr
          409 hlineto
          hintmask 0000000000010000
          25 callgsubr
          hintmask 0001101101000000
          -146 787 -105 callgsubr
        </CharString>
        <CharString name="Emacron">
          14 callgsubr
          72 44 21 callgsubr
          hintmask 11101101
          -101 callsubr
          hintmask 10101010
          -99 callgsubr
          409 hlineto
          hintmask 00000001
          25 callgsubr
          hintmask 00010000
          -52 672 -90 callsubr
        </CharString>
        <CharString name="Eng">
          -11 70 -59 -31 callsubr
          -40 51 hstemhm
          102 50 88 50 146 51 hintmask 00011100
          487 306 rmoveto
          156 -60 160 -137 -47 -41 -18 -47 -50 vhcurveto
          hintmask 01101100
          46 -5 8 -26 -93 callsubr
          -527 -68 callsubr
          391 hlineto
          hintmask 10010110
          76 9 55 62 74 hhcurveto
          110 36 -136 -129 -101 -3 -120 -53 -38 hvcurveto
          10 -11 -8 2 -8 hhcurveto
          -19 -16 -16 -19 -19 16 -16 19 127 7 168 149 hvcurveto
          endchar
        </CharString>
        <CharString name="Eogonek">
          53 callsubr
          133 7 callgsubr
          105 callsubr
          hintmask 0011110100010000
          -101 callsubr
          hintmask 0010110010100000
          -99 callgsubr
          328 hlineto
          hintmask 1000001000000000
          -67 -43 -23 25 callsubr
          hintmask 0110001001010000
          22 callsubr
          -33 20 31 48 40 40 61 36 hvcurveto
          30 136 callgsubr
          endchar
        </CharString>
        <CharString name="Eogonekacute">
          53 callsubr
          133 7 callgsubr
          83 -21 118 -20 105 callsubr
          hintmask 0011100101000100
          -101 callsubr
          hintmask 0010100100101000
          -99 callgsubr
          328 hlineto
          hintmask 1000000010000000
          -67 -43 -23 25 callsubr
          hintmask 0110000010010100
          22 callsubr
          -33 20 31 48 40 40 61 36 hvcurveto
          30 136 callgsubr
          hintmask 0000011000000000
          -138 733 -106 callsubr
        </CharString>
        <CharString name="Epsilon">
          14 callgsubr
          21 callgsubr
          hintmask 11111010
          -101 callsubr
          hintmask 10110100
          -99 callgsubr
          409 hlineto
          hintmask 00000010
          25 callgsubr
          endchar
        </CharString>
        <CharString name="Ereversed">
          14 callgsubr
          hstemhm
          28 51 -28 51 67 50 157 50 hintmask 11101110
          500 21 rmoveto
          21 -20 0 -12 vhcurveto
          -42 527 42 -16 callgsubr
          21 46 callgsubr
          -386 hlineto
          -26 -5 -8 -24 hvcurveto
          -76 vlineto
          -15 0 -17 26 25 0 18 14 vhcurveto
          66 274 -231 -157 vlineto
          44 0 15 -25 -25 0 -18 -14 vhcurveto
          -96 vlineto
          -15 0 -17 25 25 0 15 44 vhcurveto
          157 -254 hlineto
          hintmask 10010000
          -297 82 hlineto
          15 0 17 -26 -25 66 callgsubr
          -92 vlineto
          -25 6 -7 25 vhcurveto
          409 132 callgsubr
        </CharString>
        <CharString name="Eta">
          80 callgsubr
          hstem
          127 callgsubr
          vstem
          500 -7 callgsubr
          -36 527 36 hlineto
          -66 callgsubr
          -123 -63 callsubr
          36 -230 -240 230 -64 callsubr
          255 240 -255 -28 callgsubr
          endchar
        </CharString>
        <CharString name="Eth">
          -19 callgsubr
        </CharString>
        <CharString name="Etilde">
          14 callgsubr
          52 46 10 47 -80 callgsubr
          -66 711 -107 callsubr
        </CharString>
        <CharString name="Euro">
          218 44 0 44 0 44 hstemhm
          121 52 -50 52 -46 52 231 52 cntrmask 11100000
          hintmask 11100110
          464 8 rmoveto
          98 vlineto
          11 -9 9 -11 vhcurveto
          -12 hlineto
          -11 -8 -7 -10 -1 hvcurveto
          -44 -6 -39 -33 -44 hhcurveto
          -46 -33 36 41 -24 hvcurveto
          -17 29 -12 33 -10 47 rrcurveto
          161 hlineto
          6 5 4 6 1 hvcurveto
          4 16 rlineto
          9 3 -7 9 -8 hhcurveto
          hintmask 11101000
          -171 hlineto
          hintmask 11110000
          -2 21 0 11 12 vvcurveto
          hintmask 11101000
          12 0 11 2 21 vhcurveto
          199 hlineto
          6 5 4 6 1 hvcurveto
          4 17 rlineto
          9 3 -6 8 -9 hhcurveto
          hintmask 11100110
          -197 hlineto
          10 45 12 33 17 31 rrcurveto
          40 24 33 36 46 hhcurveto
          44 39 -33 -44 6 hvcurveto
          -10 1 8 -7 11 hhcurveto
          12 hlineto
          11 9 9 11 hvcurveto
          98 vlineto
          11 -9 8 -11 vhcurveto
          -4 hlineto
          -6 -6 -2 -4 -3 hvcurveto
          -16 -21 rlineto
          20 -32 -29 7 -30 hhcurveto
          -61 -49 -43 -53 -32 hvcurveto
          -23 -38 -14 -42 -10 -52 rrcurveto
          -46 104 callsubr
          hintmask 11101000
          44 hlineto
          hintmask 11110000
          -2 -22 0 -11 -11 vvcurveto
          hintmask 11101000
          -11 0 -11 2 -22 vhcurveto
          -40 104 callsubr
          hintmask 11100110
          50 hlineto
          10 -53 14 -41 23 -39 rrcurveto
          -53 32 49 -43 61 hhcurveto
          30 29 7 19 32 hvcurveto
          16 -19 rlineto
          -5 4 5 -2 6 hhcurveto
          4 hlineto
          11 9 8 11 hvcurveto
          endchar
        </CharString>
        <CharString name="F">
          0 42 242 43 242 42 hstem
          107 51 161 51 67 50 cntrmask 11100000
          487 503 rmoveto
          76 70 callgsubr
          -394 27 callgsubr
          11 hvcurveto
          45 -527 -45 94 callsubr
          11 hvcurveto
          160 -52 callsubr
          -19 0 -12 hvcurveto
          -64 242 161 hlineto
          -44 0 -15 26 25 0 18 14 vhcurveto
          97 143 callsubr
          -15 -44 vhcurveto
          -161 242 279 -66 hlineto
          -14 callsubr
          25 74 callgsubr
          endchar
        </CharString>
        <CharString name="G">
          -11 155 callgsubr
          303 51 -50 50 hintmask 11110100
          -90 callgsubr
          hintmask 01001000
          -35 callgsubr
          endchar
        </CharString>
        <CharString name="Gacute">
          -11 59 callgsubr
          72 -21 118 -20 79 callsubr
          hintmask 11100101
          -90 callgsubr
          hintmask 01000010
          -35 callgsubr
          hintmask 00011000
          -132 527 -106 callsubr
        </CharString>
        <CharString name="Gamma">
          -23 callgsubr
          hstem
          114 51 270 50 vstem
          485 503 rmoveto
          76 70 callgsubr
          -388 15 callsubr
          -20 -32 callsubr
          48 -527 -48 -33 callsubr
          167 -16 callgsubr
          21 46 callgsubr
          -68 527 270 -66 hlineto
          -14 0 -18 24 26 74 callgsubr
          endchar
        </CharString>
        <CharString name="Gbreve">
          -11 59 callgsubr
          51 45 51 -20 79 callsubr
          hintmask 11100101
          -90 callgsubr
          hintmask 01000010
          -35 callgsubr
          hintmask 00011101
          -59 509 -97 callsubr
          endchar
        </CharString>
        <CharString name="Gcaron">
          -11 59 callgsubr
          128 -20 79 callsubr
          hintmask 11101010
          -90 callgsubr
          hintmask 01000100
          -35 callgsubr
          hintmask 00010000
          -89 490 -99 callsubr
        </CharString>
        <CharString name="Gcedilla">
          10 callsubr
          44 155 callgsubr
          198 28 77 51 -50 50 hintmask 0011110010000000
          -90 callgsubr
          hintmask 1101001100000000
          -35 callgsubr
          -177 -360 -100 callgsubr
        </CharString>
        <CharString name="Gcircumflex">
          -11 59 callgsubr
          62 -21 79 callsubr
          hintmask 11101010
          -90 callgsubr
          hintmask 01000100
          -35 callgsubr
          hintmask 00010000
          -89 447 -106 callgsubr
          endchar
        </CharString>
        <CharString name="Gcommaaccent">
          10 callsubr
          44 155 callgsubr
          198 28 77 51 -50 50 hintmask 0011110010000000
          -90 callgsubr
          hintmask 0001000100000000
          -35 callgsubr
          hintmask 1100001000000000
          -177 -360 -100 callgsubr
        </CharString>
        <CharString name="Gdotaccent">
          -11 59 callgsubr
          52 83 hstemhm
          41 50 131 82 90 51 -50 50 hintmask 11101001
          -90 callgsubr
          hintmask 01000010
          -35 callgsubr
          hintmask 00010100
          -190 477 -30 callgsubr
        </CharString>
        <CharString name="H">
          80 callgsubr
          hstem
          127 callgsubr
          vstem
          500 -7 callgsubr
          -36 527 36 hlineto
          -66 callgsubr
          -123 -63 callsubr
          36 -230 -240 230 -64 callsubr
          255 240 -255 -28 callgsubr
          endchar
        </CharString>
        <CharString name="H_uni0303">
          80 callgsubr
          52 46 10 47 hstemhm
          127 callgsubr
          hintmask 11100110
          500 -7 callgsubr
          -36 527 36 hlineto
          -66 callgsubr
          -123 -63 callsubr
          36 -230 -240 230 -64 callsubr
          255 240 -255 -28 callgsubr
          hintmask 00011000
          -66 722 -107 callsubr
        </CharString>
        <CharString name="Hbar">
          0 42 255 42 102 44 84 42 hstem
          127 callgsubr
          vstem
          500 -7 callgsubr
          -36 399 41 hlineto
          12 10 10 12 128 callgsubr
          hvcurveto
          -41 84 36 hlineto
          -66 callgsubr
          -123 -63 callsubr
          36 -84 -240 84 36 hlineto
          -66 callgsubr
          -123 9 callgsubr
          -84 -41 102 callgsubr
          41 -399 -36 43 callsubr
          123 -52 callsubr
          -19 0 -12 hvcurveto
          -36 255 240 -255 -28 callgsubr
          -118 318 rmoveto
          -240 102 240 hlineto
          endchar
        </CharString>
        <CharString name="Hbrevebelow">
          -198 45 51 -20 122 156 callsubr
          240 51 hintmask 00111110
          500 -7 callgsubr
          -36 527 36 hlineto
          -66 callgsubr
          -123 -63 callsubr
          36 -230 -240 230 -64 callsubr
          255 240 -255 -28 callgsubr
          hintmask 11000100
          -65 -145 -97 callsubr
          endchar
        </CharString>
        <CharString name="Hcircumflex">
          80 callgsubr
          73 -21 hstemhm
          127 callgsubr
          hintmask 11101100
          500 -7 callgsubr
          -36 527 36 hlineto
          -66 callgsubr
          -123 -63 callsubr
          36 -230 -240 230 -64 callsubr
          255 240 -255 -28 callgsubr
          hintmask 00010000
          -95 664 -106 callgsubr
          endchar
        </CharString>
        <CharString name="Hdieresis">
          80 callgsubr
          52 72 hstemhm
          91 51 -16 128 callsubr
          -17 51 hintmask 11101001
          500 -7 callgsubr
          -36 527 36 hlineto
          -66 callgsubr
          -123 -63 callsubr
          36 -230 -240 230 -64 callsubr
          255 240 -255 -28 callgsubr
          hintmask 00010110
          -302 678 -89 callgsubr
          endchar
        </CharString>
        <CharString name="Hdotbelow">
          -207 83 124 156 callsubr
          80 82 78 51 hintmask 01111010
          500 -7 callgsubr
          -36 527 36 hlineto
          -66 callgsubr
          -123 -63 callsubr
          36 -230 -240 230 -64 callsubr
          255 240 -255 -28 callgsubr
          hintmask 10000100
          -196 -186 rmoveto
          91 callsubr
        </CharString>
        <CharString name="I">
          76 callsubr
          -100 callsubr
          endchar
        </CharString>
        <CharString name="Iacute">
          -23 callgsubr
          83 92 callsubr
          237 51 hintmask 11001000
          -100 callsubr
          hintmask 00110000
          -80 744 -106 callsubr
        </CharString>
        <CharString name="Ibreve">
          -23 callgsubr
          62 150 callgsubr
          237 51 hintmask 11001000
          -100 callsubr
          hintmask 00110000
          -7 726 -97 callsubr
          endchar
        </CharString>
        <CharString name="Icaron">
          85 callgsubr
          237 51 hintmask 11010000
          -100 callsubr
          hintmask 00100000
          -37 707 -99 callsubr
        </CharString>
        <CharString name="Icircumflex">
          -23 callgsubr
          73 -21 hstemhm
          237 51 hintmask 11010000
          -100 callsubr
          hintmask 00100000
          -37 664 -106 callgsubr
          endchar
        </CharString>
        <CharString name="Idblgrave">
          -23 callgsubr
          83 118 callsubr
          hstemhm
          237 51 hintmask 11001000
          -100 callsubr
          hintmask 00110000
          -14 682 -103 callgsubr
        </CharString>
        <CharString name="Idieresis">
          122 callsubr
          126 72 39 51 39 72 hintmask 11001000
          -100 callsubr
          hintmask 00110100
          -244 678 -89 callgsubr
          endchar
        </CharString>
        <CharString name="Idieresisacute">
          0 42 527 42 52 101 callgsubr
          39 51 39 72 hintmask 11000010
          -100 callsubr
          hintmask 00111101
          -244 678 -89 callgsubr
          -37 189 -106 callsubr
        </CharString>
        <CharString name="Idotaccent">
          -23 callgsubr
          63 83 hstemhm
          222 82 -67 51 hintmask 11001000
          -100 callsubr
          hintmask 00110000
          -138 694 -30 callgsubr
        </CharString>
        <CharString name="Idotbelow">
          23 callsubr
          hstemhm
          222 82 -67 51 hintmask 01101000
          -100 callsubr
          hintmask 10010000
          -138 -186 rmoveto
          91 callsubr
        </CharString>
        <CharString name="Igrave">
          -23 callgsubr
          83 92 callsubr
          237 51 hintmask 11001000
          -100 callsubr
          hintmask 00110000
          -81 683 -86 callsubr
        </CharString>
        <CharString name="Ihookabove">
          -23 callgsubr
          63 58 callgsubr
          -36 51 29 37 hintmask 11000010
          -100 callsubr
          hintmask 00111101
          -88 798 -105 callgsubr
        </CharString>
        <CharString name="Imacron">
          -23 callgsubr
          72 44 hstemhm
          237 51 hintmask 11010000
          -100 callsubr
          hintmask 00100000
          6 683 -90 callsubr
        </CharString>
        <CharString name="Imacron.alt">
          -23 callgsubr
          72 44 hstemhm
          237 51 hintmask 11010000
          -100 callsubr
          hintmask 00100000
          -82 683 3 callsubr
        </CharString>
        <CharString name="Iogonek">
          53 callsubr
          133 -31 callsubr
          hstemhm
          180 41 0 51 -35 51 hintmask 00111010
          16 callsubr
          hintmask 10000100
          99 callsubr
          hintmask 01101000
          61 callgsubr
          endchar
        </CharString>
        <CharString name="Iogonekacute">
          53 callsubr
          133 -31 callsubr
          83 92 callsubr
          180 41 0 51 -35 51 hintmask 0011001010000000
          16 callsubr
          hintmask 1000000100000000
          99 callsubr
          hintmask 0110001000000000
          61 callgsubr
          hintmask 0000110000000000
          -80 744 -106 callsubr
        </CharString>
        <CharString name="Iota">
          76 callsubr
          -100 callsubr
          endchar
        </CharString>
        <CharString name="Itilde">
          -23 callgsubr
          52 46 10 47 hstemhm
          237 51 hintmask 11001000
          -100 callsubr
          hintmask 00110000
          -8 722 -107 callsubr
        </CharString>
        <CharString name="J">
          145 callsubr
          hstem
          75 71 205 51 vstem
          -48 callgsubr
          endchar
        </CharString>
        <CharString name="J_uni030C.cap">
          -11 42 61 42 314 -21 108 76 -42 42 hstemhm
          75 71 205 51 193 28 hintmask 11001110
          -48 callgsubr
          148 -46 -47 callgsubr
          vhcurveto
          hintmask 00110001
          -24 18 -15 20 11 8 2 4 8 vhcurveto
          -59 -45 -21 -27 -9 vhcurveto
          -4 -1 -5 -4 -5 vvcurveto
          -7 7 -8 8 22 72 40 77 vhcurveto
          endchar
        </CharString>
        <CharString name="Jacute">
          145 callsubr
          83 92 callsubr
          75 71 205 51 hintmask 11100110
          -48 callgsubr
          hintmask 00011000
          -28 175 -106 callsubr
        </CharString>
        <CharString name="Jcircumflex">
          145 callsubr
          73 -21 hstemhm
          75 71 205 51 hintmask 11101100
          -48 callgsubr
          hintmask 00010000
          15 95 -106 callgsubr
          endchar
        </CharString>
        <CharString name="K">
          -23 callgsubr
          hstem
          91 40 vstem
          -69 callsubr
          endchar
        </CharString>
        <CharString name="Kappa">
          -23 callgsubr
          hstem
          91 40 vstem
          -69 callsubr
          endchar
        </CharString>
        <CharString name="Kcedilla">
          9 callsubr
          hstem
          91 40 158 28 vstem
          -69 callsubr
          -176 -143 -100 callgsubr
        </CharString>
        <CharString name="Kcommaaccent">
          9 callsubr
          hstemhm
          91 40 158 28 hintmask 00111000
          -69 callsubr
          hintmask 11000100
          -176 -143 -100 callgsubr
        </CharString>
        <CharString name="L">
          -23 callgsubr
          hstem
          114 51 270 50 vstem
          -82 callsubr
          endchar
        </CharString>
        <CharString name="L_uni0303">
          -23 callgsubr
          52 46 10 47 hstemhm
          114 51 270 50 hintmask 11001100
          -82 callsubr
          hintmask 00110000
          -170 711 -107 callsubr
        </CharString>
        <CharString name="Lacute">
          -23 callgsubr
          83 92 callsubr
          114 51 270 50 hintmask 11001100
          -82 callsubr
          hintmask 00110000
          -242 733 -106 callsubr
        </CharString>
        <CharString name="Lambda">
          0 42 539 42 hstem
          493 21 rmoveto
          21 -20 0 -37 vhcurveto
          -127 551 rlineto
          30 -8 -16 0 -18 hhcurveto
          -10 hlineto
          -17 -17 0 -27 -7 hvcurveto
          -128 -554 rlineto
          -37 41 callsubr
          21 -53 callsubr
          112 -16 callgsubr
          21 151 callgsubr
          -35 hlineto
          119 539 rlineto
          5 hlineto
          119 -539 rlineto
          -34 hlineto
          -11 126 callgsubr
          111 hlineto
          12 21 0 21 hvcurveto
          endchar
        </CharString>
        <CharString name="Lcaron">
          0 42 406 -21 108 76 -42 42 hstemhm
          114 51 239 28 3 50 hintmask 10011010
          -82 callsubr
          -53 512 -47 callgsubr
          vhcurveto
          hintmask 01100100
          -24 18 -15 20 11 8 2 4 8 vhcurveto
          -59 -45 -21 -27 -9 vhcurveto
          -4 -1 -5 -4 -5 vvcurveto
          -7 7 -8 8 22 72 40 77 vhcurveto
          endchar
        </CharString>
        <CharString name="Lcedilla">
          9 callsubr
          hstem
          114 51 124 28 118 50 vstem
          -82 callsubr
          -168 -154 -100 callgsubr
        </CharString>
        <CharString name="Lcommaaccent">
          9 callsubr
          hstemhm
          114 51 124 28 118 50 hintmask 00111010
          -82 callsubr
          hintmask 11000100
          -168 -154 -100 callgsubr
        </CharString>
        <CharString name="Ldot">
          0 42 233 83 211 42 hstemhm
          114 51 196 82 -8 50 hintmask 11110100
          -82 callsubr
          -42 284 rmoveto
          24 -18 18 -23 vhcurveto
          hintmask 01001000
          119 callgsubr
          endchar
        </CharString>
        <CharString name="Ldotbelow">
          23 callsubr
          hstemhm
          114 51 57 82 131 50 hintmask 01110100
          -82 callsubr
          hintmask 10001000
          -181 -197 rmoveto
          91 callsubr
        </CharString>
        <CharString name="Ldotbelowmacron">
          23 callsubr
          72 44 hstemhm
          114 51 57 82 131 50 hintmask 11101110
          -82 callsubr
          -181 -197 -95 callsubr
          hintmask 00010000
          32 869 -90 callsubr
        </CharString>
        <CharString name="Lslash">
          -23 callgsubr
          hstem
          114 51 270 50 vstem
          485 31 callsubr
          -25 0 -16 -16 vhcurveto
          -82 -270 273 vlineto
          213 143 9 6 2 13 -6 9 rlinecurve
          -6 9 -12 4 -9 -6 -191 -130 rcurveline
          206 68 vlineto
          -11 callgsubr
          46 callgsubr
          -167 15 callsubr
          -20 -32 callsubr
          48 -240 hlineto
          -75 -52 -8 -6 -3 155 callsubr
          52 36 rcurveline
          -238 -48 vlineto
          -12 -19 -47 callsubr
          -32 callsubr
          388 15 callgsubr
          endchar
        </CharString>
        <CharString name="M">
          0 42 169 42 316 42 hstem
          74 38 301 37 vstem
          -55 callgsubr
          endchar
        </CharString>
        <CharString name="Mdotbelow">
          -207 83 124 42 169 42 316 42 hstemhm
          74 38 110 82 109 37 hintmask 01111010
          -55 callgsubr
          hintmask 10000100
          -201 -186 rmoveto
          91 callsubr
        </CharString>
        <CharString name="Mu">
          0 42 169 42 316 42 hstem
          74 38 301 37 vstem
          -55 callgsubr
          endchar
        </CharString>
        <CharString name="N">
          -23 callgsubr
          hstemhm
          61 37 0 37 254 37 0 37 hintmask 01000100
          -44 callsubr
          hintmask 11101000
          -74 callgsubr
          hintmask 11010100
          -52 callgsubr
          endchar
        </CharString>
        <CharString name="Nacute">
          -23 callgsubr
          83 92 callsubr
          61 37 0 37 254 37 0 37 hintmask 01000001
          -44 callsubr
          hintmask 11001010
          -74 callgsubr
          hintmask 11000101
          -52 callgsubr
          hintmask 00110000
          -132 -78 callgsubr
        </CharString>
        <CharString name="Ncaron">
          85 callgsubr
          61 37 0 37 254 37 0 37 hintmask 01000010
          -44 callsubr
          hintmask 11010100
          -74 callgsubr
          hintmask 11001010
          -52 callgsubr
          hintmask 00100000
          -89 139 -99 callsubr
        </CharString>
        <CharString name="Ncedilla">
          9 callsubr
          hstemhm
          61 37 0 37 154 28 72 37 0 37 hintmask 0001000010000000
          -44 callsubr
          hintmask 0011100100000000
          -74 callgsubr
          hintmask 1111011010000000
          -52 callgsubr
          -177 -711 -100 callgsubr
        </CharString>
        <CharString name="Ncommaaccent">
          9 callsubr
          hstemhm
          61 37 0 37 154 28 72 37 0 37 hintmask 0001000010000000
          -44 callsubr
          hintmask 0011100100000000
          -74 callgsubr
          hintmask 0011010010000000
          -52 callgsubr
          hintmask 1100001000000000
          -177 -711 -100 callgsubr
        </CharString>
        <CharString name="Ndotaccent">
          -23 callgsubr
          52 83 hstemhm
          61 37 0 37 87 82 85 37 0 37 hintmask 01000001
          -44 callsubr
          hintmask 11010010
          -74 callgsubr
          hintmask 11001001
          -52 callgsubr
          hintmask 00100100
          -190 115 -30 callgsubr
        </CharString>
        <CharString name="Ndotbelow">
          23 callsubr
          hstemhm
          61 37 0 37 87 82 85 37 0 37 hintmask 00100001
          -44 callsubr
          hintmask 01110010
          -74 callgsubr
          hintmask 01101001
          -52 callgsubr
          hintmask 10000100
          -190 -754 rmoveto
          91 callsubr
        </CharString>
        <CharString name="Ntilde">
          -23 callgsubr
          52 46 10 47 hstemhm
          61 37 0 37 254 37 0 37 hintmask 01000001
          -44 callsubr
          hintmask 11001010
          -74 callgsubr
          hintmask 11000101
          -52 callgsubr
          hintmask 00110000
          -60 154 -107 callsubr
        </CharString>
        <CharString name="Nu">
          -23 callgsubr
          hstemhm
          61 37 0 37 254 37 0 37 hintmask 01000100
          -44 callsubr
          hintmask 11101000
          -74 callgsubr
          hintmask 11010100
          -52 callgsubr
          endchar
        </CharString>
        <CharString name="O">
          136 callsubr
          54 callgsubr
          vstem
          -104 callgsubr
          endchar
        </CharString>
        <CharString name="OE">
          -45 callgsubr
        </CharString>
        <CharString name="OE.dup">
          -45 callgsubr
        </CharString>
        <CharString name="Oacute">
          140 callsubr
          59 51 304 51 hintmask 11001100
          -104 callgsubr
          hintmask 00110000
          -52 451 -106 callsubr
        </CharString>
        <CharString name="Obreve">
          16 callgsubr
          51 45 51 -20 53 callgsubr
          hintmask 11001100
          -104 callgsubr
          hintmask 00110000
          21 433 -97 callsubr
          endchar
        </CharString>
        <CharString name="Ocaron">
          16 callgsubr
          128 -20 -4 callsubr
          hintmask 00100000
          -9 414 -99 callsubr
        </CharString>
        <CharString name="Ocircumflex">
          16 callgsubr
          62 -21 -4 callsubr
          hintmask 00100000
          -9 371 -106 callgsubr
          endchar
        </CharString>
        <CharString name="Ocircumflexacute">
          16 callgsubr
          62 -21 224 -20 53 callgsubr
          hintmask 11001100
          -104 callgsubr
          hintmask 00110000
          -9 371 -92 callsubr
        </CharString>
        <CharString name="Ocircumflexdotbelow">
          110 callsubr
          62 -21 hstemhm
          59 51 112 82 110 51 hintmask 01111010
          -104 callgsubr
          -9 371 -106 callgsubr
          hintmask 10000100
          -101 -850 rmoveto
          91 callsubr
        </CharString>
        <CharString name="Ocircumflexgrave">
          16 callgsubr
          62 -21 -4 callsubr
          hintmask 00100000
          -9 371 -92 callgsubr
        </CharString>
        <CharString name="Ocircumflexhookabove">
          16 callgsubr
          41 34 callgsubr
          59 51 152 39 26 37 -18 37 25 37 -31 51 hintmask 1100001100010000
          -104 callgsubr
          hintmask 0001000001000000
          -9 371 -30 callsubr
          hintmask 0000100010010000
          10 8 8 10 hvcurveto
          19 vlineto
          18 15 21 35 19 vhcurveto
          hintmask 0000000000100000
          18 9 13 19 22 vvcurveto
          endchar
        </CharString>
        <CharString name="Ocircumflextilde">
          16 callgsubr
          62 -21 37 47 42 46 10 47 53 callgsubr
          hintmask 11000011
          -104 callgsubr
          hintmask 00111100
          -9 371 -106 callgsubr
          28 184 -107 callsubr
        </CharString>
        <CharString name="Odblgrave">
          81 callsubr
          125 -20 53 callgsubr
          hintmask 11001100
          -104 callgsubr
          hintmask 00110000
          14 389 -103 callgsubr
        </CharString>
        <CharString name="Odieresis">
          16 callgsubr
          41 72 hstemhm
          59 51 16 128 callsubr
          15 51 hintmask 11010010
          -104 callgsubr
          hintmask 00101100
          -216 385 -89 callgsubr
          endchar
        </CharString>
        <CharString name="Odotbelow">
          110 callsubr
          hstemhm
          59 51 112 82 110 51 hintmask 01110100
          -104 callgsubr
          hintmask 10001000
          -110 -479 rmoveto
          91 callsubr
        </CharString>
        <CharString name="Ograve">
          140 callsubr
          59 51 304 51 hintmask 11001100
          -104 callgsubr
          hintmask 00110000
          -53 390 -86 callsubr
        </CharString>
        <CharString name="Ohookabove">
          16 callgsubr
          52 35 callgsubr
          59 51 61 45 callsubr
          60 51 hintmask 1100100010000000
          -104 callgsubr
          hintmask 0011011100000000
          -60 505 -105 callgsubr
        </CharString>
        <CharString name="Ohorn">
          16 callgsubr
          92 -20 hstem
          59 51 302 81 vstem
          138 callsubr
          -89 callsubr
          endchar
        </CharString>
        <CharString name="Ohornacute">
          81 callsubr
          41 -20 97 -20 hstemhm
          59 51 302 81 hintmask 00010000
          138 callsubr
          hintmask 11100110
          -89 callsubr
          hintmask 00101000
          -79 447 -106 callsubr
        </CharString>
        <CharString name="Ohorndotbelow">
          110 callsubr
          92 -20 hstemhm
          59 51 112 82 108 81 hintmask 01111010
          138 callsubr
          -89 callsubr
          hintmask 10000100
          -108 -483 rmoveto
          91 callsubr
        </CharString>
        <CharString name="Ohorngrave">
          81 callsubr
          41 -20 97 -20 hstemhm
          59 51 302 81 hintmask 00010000
          138 callsubr
          hintmask 11100110
          -89 callsubr
          hintmask 00101000
          -80 386 -86 callsubr
        </CharString>
        <CharString name="Ohornhookabove">
          16 callgsubr
          52 37 3 -20 160 37 hstemhm
          59 51 61 45 callsubr
          58 81 hintmask 1101010001000000
          138 callsubr
          -89 callsubr
          hintmask 0010101110000000
          -58 501 -105 callgsubr
        </CharString>
        <CharString name="Ohorntilde">
          16 callgsubr
          41 46 5 -20 25 47 hstemhm
          59 51 302 81 hintmask 11010110
          138 callsubr
          -89 callsubr
          hintmask 00101100
          -7 425 -107 callsubr
        </CharString>
        <CharString name="Ohungarumlaut">
          81 callsubr
          125 -20 53 callgsubr
          hintmask 11001100
          -104 callgsubr
          hintmask 00110000
          -184 457 -85 callgsubr
        </CharString>
        <CharString name="Omacron">
          16 callgsubr
          61 44 -4 callsubr
          hintmask 00110000
          34 390 -90 callsubr
        </CharString>
        <CharString name="Omega">
          -34 callgsubr
        </CharString>
        <CharString name="Omicron">
          136 callsubr
          54 callgsubr
          vstem
          -104 callgsubr
          endchar
        </CharString>
        <CharString name="Oogonek">
          53 callsubr
          121 43 -42 32 callgsubr
          157 callsubr
          hintmask 0010111000000000
          55 callgsubr
          hintmask 1000000100000000
          99 callgsubr
          hintmask 0101111010000000
          -2 callsubr
          endchar
        </CharString>
        <CharString name="Oogonekacute">
          53 callsubr
          121 43 -42 32 callgsubr
          72 -21 118 -20 157 callsubr
          hintmask 0010100110000000
          55 callgsubr
          hintmask 1000000001000000
          99 callgsubr
          hintmask 0101100110100000
          -2 callsubr
          hintmask 0000011000000000
          -52 451 -106 callsubr
        </CharString>
        <CharString name="Orogate">
          54 callgsubr
          vstem
          465 305 rmoveto
          277 -18 37 -164 3 vhcurveto
          123 153 callsubr
          -123 vlineto
          -164 -3 -18 -36 -278 vvcurveto
          -277 18 -36 164 -3 vhcurveto
          -123 154 callgsubr
          123 vlineto
          164 3 18 36 277 vvcurveto
          -51 9 rmoveto
          -65 0 -74 -12 -56 vhcurveto
          -63 -12 -28 -25 -100 hhcurveto
          -99 -27 25 56 -13 hvcurveto
          -13 54 0 91 57 vvcurveto
          65 0 71 12 49 vhcurveto
          66 14 34 15 92 hhcurveto
          84 38 -12 -62 17 hvcurveto
          13 -49 0 -79 -64 vvcurveto
          endchar
        </CharString>
        <CharString name="Oslash">
          -67 -21 77 32 callgsubr
          77 -20 hstem
          59 38 330 38 vstem
          -65 callsubr
          endchar
        </CharString>
        <CharString name="Oslash.dup">
          -67 -21 77 32 callgsubr
          77 -20 hstem
          59 38 330 38 vstem
          -65 callsubr
          endchar
        </CharString>
        <CharString name="Oslashacute">
          -67 -21 77 32 callgsubr
          72 -21 26 -20 112 -20 hstemhm
          59 38 330 38 hintmask 11101011
          -65 callsubr
          hintmask 00010100
          22 192 -106 callsubr
        </CharString>
        <CharString name="Otilde">
          16 callgsubr
          41 46 10 47 53 callgsubr
          hintmask 11001100
          -104 callgsubr
          hintmask 00110000
          20 429 -107 callsubr
        </CharString>
        <CharString name="P">
          -8 callsubr
        </CharString>
        <CharString name="Phi">
          0 42 117 42 209 42 117 42 hstem
          43 50 144 51 142 51 vstem
          481 305 rmoveto
          73 -78 62 -115 12 vhcurveto
          117 53 vlineto
          -11 callgsubr
          46 callgsubr
          -157 34 callsubr
          21 -53 callsubr
          53 -117 hlineto
          -118 -12 -76 -64 -70 vvcurveto
          -74 80 -62 114 -11 vhcurveto
          -117 -53 vlineto
          -11 -21 0 -20 -22 21 -53 callsubr
          157 -16 callgsubr
          21 46 callgsubr
          -53 117 hlineto
          117 13 76 64 69 vvcurveto
          -51 1 rmoveto
          -53 -61 -40 -81 -12 vhcurveto
          209 vlineto
          87 -12 55 -44 -48 vvcurveto
          -193 -105 rmoveto
          -92 13 -52 45 46 vvcurveto
          49 56 44 88 12 vhcurveto
          endchar
        </CharString>
        <CharString name="Pi">
          -23 callgsubr
          hstem
          127 callgsubr
          vstem
          500 -7 callgsubr
          -36 527 36 hlineto
          -66 callgsubr
          -414 -88 callgsubr
          527 240 -527 -28 callgsubr
          endchar
        </CharString>
        <CharString name="Psi">
          0 42 118 42 367 42 hstem
          82 51 104 51 103 51 vstem
          483 457 rmoveto
          22 -19 0 -8 -65 0 -71 -36 -61 -11 -80 -92 -29 vhcurveto
          367 46 vlineto
          12 20 112 callsubr
          -143 hlineto
          -12 -20 -72 callgsubr
          12 hvcurveto
          46 -367 hlineto
          -92 27 -12 78 66 vvcurveto
          47 -5 59 -60 -8 -19 0 -22 -16 13 -4 6 -1 vhcurveto
          15 -4 7 -40 -32 vvcurveto
          1 -74 27 -104 127 -22 rrcurveto
          -118 74 callsubr
          118 hlineto
          127 22 26 102 1 86 rrcurveto
          18 5 44 17 4 vhcurveto
          6 1 13 4 16 vvcurveto
          endchar
        </CharString>
        <CharString name="Q">
          -123 -21 133 32 callgsubr
          hstem
          54 callgsubr
          vstem
          -76 callsubr
          13 33 0 1 18 vhcurveto
          66 -126 rlineto
          -8 5 10 0 12 hhcurveto
          9 hlineto
          10 13 0 10 5 -20 35 -11 21 hvcurveto
          -39 72 53 22 16 34 8 78 rlinecurve
          7 56 0 69 47 vvcurveto
          -51 1 rmoveto
          -222 -24 -17 -33 -22 vhcurveto
          -55 100 rlineto
          11 -7 -1 0 -14 hhcurveto
          -12 hlineto
          -9 -14 0 -9 hvcurveto
          1 -4 58 -112 rlineto
          -50 hlineto
          -101 -22 33 60 -12 56 callsubr
          endchar
        </CharString>
        <CharString name="R">
          4 callsubr
          208 51 -23 50 42 50 cntrmask 11100000
          hintmask 11101010
          520 86 rmoveto
          23 -17 0 -8 -8 -16 0 -21 -1 vhcurveto
          -11 -8 -46 -22 -33 -6 51 62 62 0 9 -9 22 -62 callgsubr
          -64 0 -31 20 -35 vhcurveto
          -25 16 25 -13 30 hhcurveto
          58 21 62 35 hvcurveto
          -142 362 rmoveto
          -55 -49 -66 -102 vhcurveto
          -85 242 85 hlineto
          hintmask 11100100
          88 callsubr
          endchar
        </CharString>
        <CharString name="Racute">
          4 callsubr
          208 51 -23 50 42 50 cntrmask 11100000
          hintmask 11101010
          520 86 rmoveto
          23 -17 0 -8 -8 -16 0 -21 -1 vhcurveto
          -11 -8 -46 -22 -33 -6 51 62 62 0 9 -9 22 -62 callgsubr
          -64 0 -31 20 -35 vhcurveto
          -25 16 25 -13 30 hhcurveto
          58 21 62 35 hvcurveto
          -142 362 rmoveto
          -55 -49 -66 -102 vhcurveto
          -85 242 85 hlineto
          hintmask 11100100
          88 callsubr
          hintmask 11100000
          -16 317 -106 callsubr
        </CharString>
        <CharString name="Rcaron">
          4 callsubr
          208 51 -23 50 42 50 cntrmask 11100000
          hintmask 11101010
          520 86 rmoveto
          23 -17 0 -8 -8 -16 0 -21 -1 vhcurveto
          -11 -8 -46 -22 -33 -6 51 62 62 0 9 -9 22 -62 callgsubr
          -64 0 -31 20 -35 vhcurveto
          -25 16 25 -13 30 hhcurveto
          58 21 62 35 hvcurveto
          -142 362 rmoveto
          -55 -49 -66 -102 vhcurveto
          -85 242 85 hlineto
          hintmask 11100100
          88 callsubr
          hintmask 11100000
          27 280 -99 callsubr
        </CharString>
        <CharString name="Rcedilla">
          4 callsubr
          147 28 33 -86 callgsubr
          hintmask 11101010
          88 callsubr
          -61 -570 -100 callgsubr
        </CharString>
        <CharString name="Rcommaaccent">
          4 callsubr
          147 28 33 -86 callgsubr
          hintmask 11100010
          88 callsubr
          hintmask 11101000
          -61 -570 -100 callgsubr
        </CharString>
        <CharString name="Rdblgrave">
          4 callsubr
          208 51 -23 50 42 50 cntrmask 11100000
          hintmask 11101010
          520 86 rmoveto
          23 -17 0 -8 -8 -16 0 -21 -1 vhcurveto
          -11 -8 -46 -22 -33 -6 51 62 62 0 9 -9 22 -62 callgsubr
          -64 0 -31 20 -35 vhcurveto
          -25 16 25 -13 30 hhcurveto
          58 21 62 35 hvcurveto
          -142 362 rmoveto
          -55 -49 -66 -102 vhcurveto
          -85 242 85 hlineto
          hintmask 11100100
          88 callsubr
          hintmask 11110000
          21 255 -103 callgsubr
        </CharString>
        <CharString name="Rdotaccent">
          4 callsubr
          80 82 46 -86 callgsubr
          hintmask 11100010
          88 callsubr
          hintmask 11101000
          -74 267 -30 callgsubr
        </CharString>
        <CharString name="Rdotbelow">
          4 callsubr
          80 82 46 -86 callgsubr
          hintmask 11100010
          88 callsubr
          hintmask 11101000
          -74 -613 rmoveto
          91 callsubr
        </CharString>
        <CharString name="Rdotbelowmacron">
          4 callsubr
          80 82 46 -86 callgsubr
          hintmask 11101010
          88 callsubr
          -74 -613 -95 callsubr
          hintmask 11100000
          144 869 -90 callsubr
        </CharString>
        <CharString name="Rho">
          -8 callsubr
        </CharString>
        <CharString name="S">
          136 callsubr
          55 47 320 47 vstem
          -94 callgsubr
          endchar
        </CharString>
        <CharString name="Sacute">
          140 callsubr
          55 47 320 47 hintmask 11001100
          -94 callgsubr
          hintmask 00110000
          -107 604 -106 callsubr
        </CharString>
        <CharString name="Scaron">
          16 callgsubr
          128 -20 hstemhm
          55 47 320 47 hintmask 11011000
          -94 callgsubr
          hintmask 00100000
          -64 567 -99 callsubr
        </CharString>
        <CharString name="Scedilla">
          -226 43 172 146 callgsubr
          -47 51 2 47 -47 51 48 50 -21 50 -29 50 52 51 -19 50 -19 47 hintmask 0011000010001000
          469 161 rmoveto
          62 -35 41 -12 13 vhcurveto
          -41 40 -27 6 -78 18 -84 19 rcurveline
          -48 14 -42 40 53 vvcurveto
          58 54 55 80 vhcurveto
          hintmask 0011000000010000
          127 20 -103 -40 8 hvcurveto
          -12 3 8 -3 13 hhcurveto
          104 callgsubr
          hvcurveto
          136 vlineto
          12 0 20 -21 -17 -4 -16 -40 -11 vhcurveto
          45 -53 -53 11 -45 hhcurveto
          -108 -74 -76 -83 -65 45 -64 81 -23 hvcurveto
          118 -28 rlineto
          hintmask 0100101010001000
          32 -7 91 -23 -97 vvcurveto
          -58 -48 -67 -88 -31 -53 5 29 -43 vhcurveto
          -47 30 -5 47 -1 21 rrcurveto
          12 -1 -1 14 -23 hhcurveto
          40 callsubr
          -136 vlineto
          -12 0 -20 21 17 4 13 41 11 vhcurveto
          hintmask 1000010100100000
          44 -33 46 -14 59 -6 rrcurveto
          -37 vlineto
          -15 0 -16 23 -2 vhcurveto
          53 -2 26 -25 -24 vvcurveto
          -45 -109 -7 -43 -31 -21 0 -22 -16 12 -5 10 93 140 0 95 vhcurveto
          hintmask 0100000001001000
          36 -27 41 -76 14 vhcurveto
          29 vlineto
          104 16 58 77 79 vvcurveto
          endchar
        </CharString>
        <CharString name="Scircumflex">
          16 callgsubr
          62 -21 hstemhm
          55 47 320 47 hintmask 11011000
          -94 callgsubr
          hintmask 00100000
          -64 524 -106 callgsubr
          endchar
        </CharString>
        <CharString name="Sdotbelow">
          110 callsubr
          hstemhm
          55 47 120 82 118 47 hintmask 01110100
          -94 callgsubr
          hintmask 10001000
          -165 -326 rmoveto
          91 callsubr
        </CharString>
        <CharString name="Sigma">
          0 44 525 42 hstem
          430 51 vstem
          481 32 rmoveto
          78 143 callsubr
          -17 -15 vhcurveto
          -66 -316 vlineto
          140 243 rlineto
          7 12 1 3 7 vvcurveto
          -152 260 rlineto
          320 -66 hlineto
          -49 callsubr
          17 15 vhcurveto
          76 70 callgsubr
          -375 hlineto
          -12 -20 0 -22 -4 0 -5 7 -10 hvcurveto
          157 -265 -163 -281 rlineto
          -1 -2 0 -3 0 vvcurveto
          -19 22 0 10 vhcurveto
          375 15 callgsubr
          endchar
        </CharString>
        <CharString name="T">
          -23 callgsubr
          hstem
          123 callgsubr
          vstem
          -83 callsubr
          endchar
        </CharString>
        <CharString name="T_uni0303">
          -23 callgsubr
          52 46 10 47 hstemhm
          123 callgsubr
          hintmask 11001110
          -83 callsubr
          hintmask 00110000
          -62 240 -107 callsubr
        </CharString>
        <CharString name="T_uni0308">
          122 callsubr
          28 51 47 72 39 51 39 72 46 51 hintmask 11010101
          -83 callsubr
          hintmask 00101010
          -298 196 -89 callgsubr
          endchar
        </CharString>
        <CharString name="Tau">
          -23 callgsubr
          hstem
          123 callgsubr
          vstem
          -83 callsubr
          endchar
        </CharString>
        <CharString name="Tcaron">
          85 callgsubr
          123 callgsubr
          hintmask 11011100
          -83 callsubr
          hintmask 00100000
          -91 225 -99 callsubr
        </CharString>
        <CharString name="Tcedilla">
          -218 43 175 -31 callsubr
          hstem
          149 callgsubr
          52 50 55 51 vstem
          496 503 rmoveto
          76 vlineto
          70 callsubr
          -405 hlineto
          -25 -7 -6 -26 hvcurveto
          -76 vlineto
          -49 callsubr
          17 15 vhcurveto
          66 158 -527 -64 20 callsubr
          64 hlineto
          -3 0 -4 -3 vvcurveto
          -28 vlineto
          -16 0 -16 24 -1 vhcurveto
          10 callgsubr
          37 -27 40 -75 15 vhcurveto
          13 0 10 -1 8 vhcurveto
          65 -52 callsubr
          -19 0 -12 hvcurveto
          -64 527 157 -66 hlineto
          -49 callsubr
          17 15 vhcurveto
          endchar
        </CharString>
        <CharString name="Tdotbelow">
          23 callsubr
          hstemhm
          28 51 143 82 -67 51 157 51 hintmask 01110110
          -83 callsubr
          hintmask 10001000
          -192 -668 rmoveto
          91 callsubr
        </CharString>
        <CharString name="Theta">
          -11 42 250 49 250 42 hstem
          59 51 61 51 80 51 61 51 cntrmask 11100000
          -76 callsubr
          8 callgsubr
          vhcurveto
          -51 1 rmoveto
          -59 0 -80 -11 -50 vhcurveto
          -62 -14 -24 -24 -103 hhcurveto
          -100 -30 21 72 -13 56 callsubr
          -61 -25 rmoveto
          49 vlineto
          15 0 17 -26 -8 -15 0 -32 -2 vhcurveto
          -80 hlineto
          31 -2 -14 1 -9 hhcurveto
          40 callsubr
          -49 vlineto
          -15 0 -17 26 8 15 0 32 2 vhcurveto
          80 hlineto
          -31 2 14 -1 9 hhcurveto
          104 callgsubr
          hvcurveto
          endchar
        </CharString>
        <CharString name="Thorn">
          0 42 85 43 272 43 84 42 hstem
          91 51 274 51 vstem
          467 306 113 callgsubr
          -140 84 -64 callsubr
          85 140 hlineto
          113 72 88 91 hvcurveto
          -51 hmoveto
          -59 -47 -77 -107 vhcurveto
          -120 272 120 hlineto
          107 47 -77 -59 hvcurveto
          endchar
        </CharString>
        <CharString name="Tlinebelow">
          157 callgsubr
          123 callgsubr
          hintmask 01111100
          -83 callsubr
          hintmask 10000000
          -48 -654 -90 callsubr
        </CharString>
        <CharString name="U">
          43 callgsubr
          hstem
          79 51 264 51 vstem
          -105 callsubr
          endchar
        </CharString>
        <CharString name="U_uni032F">
          -177 -21 51 45 91 66 callsubr
          hstemhm
          79 51 264 51 hintmask 00111100
          -105 callsubr
          hintmask 11000000
          -83 -766 20 callgsubr
          -13 8 -9 -42 callgsubr
          9 13 hvcurveto
          endchar
        </CharString>
        <CharString name="Uacute">
          113 callsubr
          118 -20 hstemhm
          79 51 264 51 hintmask 11001100
          -105 callsubr
          hintmask 00110000
          -156 175 -106 callsubr
        </CharString>
        <CharString name="Ubreve">
          43 callgsubr
          62 150 callgsubr
          79 51 264 51 hintmask 11001100
          -105 callsubr
          hintmask 00110000
          -83 157 -97 callsubr
          endchar
        </CharString>
        <CharString name="Ucaron">
          43 callgsubr
          139 -20 hstemhm
          79 51 264 51 hintmask 11011000
          -105 callsubr
          hintmask 00100000
          -113 138 -99 callsubr
        </CharString>
        <CharString name="Ucircumflex">
          43 callgsubr
          73 -21 hstemhm
          79 51 264 51 hintmask 11011000
          -105 callsubr
          hintmask 00100000
          -113 95 -106 callgsubr
          endchar
        </CharString>
        <CharString name="Udblgrave">
          113 callsubr
          125 -20 hstemhm
          79 51 264 51 hintmask 11001100
          -105 callsubr
          hintmask 00110000
          -90 113 -103 callgsubr
        </CharString>
        <CharString name="Udieresis">
          43 callgsubr
          52 72 102 callsubr
          hintmask 11010010
          -105 callsubr
          hintmask 00101100
          0 callgsubr
          endchar
        </CharString>
        <CharString name="Udieresisacute">
          43 callgsubr
          52 72 82 -21 118 137 callsubr
          hintmask 1100010010000000
          -105 callsubr
          hintmask 0011101100000000
          0 callgsubr
          -37 189 -106 callsubr
        </CharString>
        <CharString name="Udieresiscaron">
          43 callgsubr
          52 72 138 137 callsubr
          hintmask 11001001
          -105 callsubr
          hintmask 00110110
          0 callgsubr
          6 152 -99 callsubr
        </CharString>
        <CharString name="Udieresisgrave">
          43 callgsubr
          52 72 82 -21 118 137 callsubr
          hintmask 1100010010000000
          -105 callsubr
          hintmask 0011101100000000
          0 callgsubr
          -38 128 -86 callsubr
        </CharString>
        <CharString name="Udotbelow">
          -207 83 113 66 callsubr
          hstemhm
          79 51 92 82 90 51 hintmask 01110100
          -105 callsubr
          hintmask 10001000
          -214 -755 rmoveto
          91 callsubr
        </CharString>
        <CharString name="Ugrave">
          113 callsubr
          118 -20 hstemhm
          79 51 264 51 hintmask 11001100
          -105 callsubr
          hintmask 00110000
          -157 114 -86 callsubr
        </CharString>
        <CharString name="Uhookabove">
          43 callgsubr
          63 35 callgsubr
          79 51 41 45 callsubr
          40 51 hintmask 1100110010000000
          -105 callsubr
          hintmask 0011011100000000
          -164 229 -105 callgsubr
        </CharString>
        <CharString name="Uhorn">
          43 callgsubr
          103 -20 77 callsubr
          hintmask 01101010
          0 callsubr
          hintmask 11011100
          -68 callgsubr
          13 callgsubr
          hintmask 00000010
          47 7 32 36 43 vvcurveto
          endchar
        </CharString>
        <CharString name="Uhornacute">
          113 callsubr
          41 -20 97 -20 77 callsubr
          hintmask 0001000000000000
          524 655 rmoveto
          26 -9 32 -33 1 vhcurveto
          hintmask 0110001010000000
          -35 callsubr
          hintmask 1100011100000000
          -68 callgsubr
          13 callgsubr
          hintmask 0000000010000000
          47 7 32 36 43 vvcurveto
          hintmask 0010100000000000
          -191 110 -106 callsubr
        </CharString>
        <CharString name="Uhorndotbelow">
          -207 83 113 66 callsubr
          103 -20 hstemhm
          78 52 92 82 36 52 1 52 -4 83 hintmask 0011001010000000
          0 callsubr
          hintmask 0110101100000000
          -68 callgsubr
          13 callgsubr
          hintmask 0000000010000000
          47 7 32 36 43 vvcurveto
          hintmask 1000010000000000
          -220 -820 rmoveto
          91 callsubr
        </CharString>
        <CharString name="Uhorngrave">
          113 callsubr
          41 -20 97 -20 77 callsubr
          hintmask 0001000000000000
          524 655 rmoveto
          26 -9 32 -33 1 vhcurveto
          hintmask 0110001010000000
          -35 callsubr
          hintmask 1100011100000000
          -68 callgsubr
          13 callgsubr
          hintmask 0000000010000000
          47 7 32 36 43 vvcurveto
          hintmask 0010100000000000
          -192 49 -86 callsubr
        </CharString>
        <CharString name="Uhornhookabove">
          43 callgsubr
          63 37 3 -20 160 37 hstemhm
          78 52 41 45 callsubr
          -14 52 1 52 -4 83 hintmask 0101000001010000
          0 callsubr
          hintmask 1100010010100000
          -68 callgsubr
          hintmask 0100000001100000
          13 callgsubr
          hintmask 0000000000010000
          47 7 32 36 43 vvcurveto
          hintmask 0010101110000000
          -170 164 -105 callgsubr
        </CharString>
        <CharString name="Uhorntilde">
          43 callgsubr
          52 46 5 -20 25 47 77 callsubr
          hintmask 0101001010000000
          0 callsubr
          hintmask 1100011100000000
          -68 callgsubr
          13 callgsubr
          hintmask 0000000010000000
          47 7 32 36 43 vvcurveto
          hintmask 0010100000000000
          -119 88 -107 callsubr
        </CharString>
        <CharString name="Uhungarumlaut">
          113 callsubr
          125 -20 hstemhm
          79 51 264 51 hintmask 11001100
          -105 callsubr
          hintmask 00110000
          -288 181 -85 callgsubr
        </CharString>
        <CharString name="Umacron">
          43 callgsubr
          72 44 hstemhm
          79 51 264 51 hintmask 11011000
          -105 callsubr
          hintmask 00100000
          -70 114 -90 callsubr
        </CharString>
        <CharString name="Uogonek">
          53 callsubr
          702 42 hstemhm
          79 51 63 40 29 40 0 51 41 51 hintmask 00100011
          518 590 rmoveto
          21 -20 0 -12 vhcurveto
          -133 34 callsubr
          21 -53 callsubr
          41 -363 hlineto
          hintmask 10111100
          -119 -74 -56 -58 -59 -73 56 119 vhcurveto
          363 41 vlineto
          67 callgsubr
          21 46 callgsubr
          -133 hlineto
          -12 -20 -18 callsubr
          41 -368 hlineto
          -112 65 -81 109 -17 vhcurveto
          -44 -39 -16 -39 -35 141 callgsubr
          4 6 0 12 -7 5 rrcurveto
          hintmask 01101011
          33 callsubr
          47 30 48 39 27 hvcurveto
          85 21 58 75 107 vvcurveto
          -20 callsubr
          endchar
        </CharString>
        <CharString name="Upsilon">
          0 42 547 33 hstem
          41 50 146 51 145 50 vstem
          483 499 rmoveto
          54 -39 69 -69 -57 -34 -37 -136 -21 vhcurveto
          135 -19 -42 38 -53 hhcurveto
          -68 -40 -68 -55 -22 18 0 7 8 17 0 22 45 17 45 42 81 6 -174 -57 hvcurveto
          -316 74 callsubr
          316 hlineto
          58 6 173 80 44 15 -49 -39 -24 16 0 9 7 18 0 22 vhcurveto
          endchar
        </CharString>
        <CharString name="Uring">
          43 callgsubr
          12 37 70 37 hstemhm
          79 51 31 50 104 50 29 51 hintmask 11001001
          -105 callsubr
          hintmask 00110110
          -203 104 -50 callgsubr
        </CharString>
        <CharString name="Utilde">
          43 callgsubr
          52 46 10 47 hstemhm
          79 51 264 51 hintmask 11001100
          -105 callsubr
          hintmask 00110100
          -84 153 -107 callsubr
        </CharString>
        <CharString name="V">
          -8 42 535 42 hstem
          504 590 -43 callgsubr
          -106 34 callsubr
          19 0 42 hvcurveto
          -129 -535 -7 -1 -130 536 rlineto
          42 36 callgsubr
          46 callgsubr
          -106 34 callsubr
          19 0 38 hvcurveto
          138 -546 rlineto
          -31 8 14 0 25 hhcurveto
          23 16 0 30 8 hvcurveto
          138 547 rlineto
          38 19 0 21 hvcurveto
          endchar
        </CharString>
        <CharString name="W">
          -8 42 535 42 hstem
          -81 callsubr
          endchar
        </CharString>
        <CharString name="Wacute">
          -8 42 535 42 83 92 callsubr
          hintmask 11000000
          -81 callsubr
          hintmask 00110000
          -149 -78 callgsubr
        </CharString>
        <CharString name="Wcircumflex">
          -8 42 535 42 73 -21 hstemhm
          hintmask 11000000
          -81 callsubr
          hintmask 00100000
          -106 96 -106 callgsubr
          endchar
        </CharString>
        <CharString name="Wdieresis">
          -8 42 535 42 52 72 hstemhm
          133 callgsubr
          hintmask 11010000
          -81 callsubr
          hintmask 00111000
          -313 110 -89 callgsubr
          endchar
        </CharString>
        <CharString name="Wgrave">
          -8 42 535 42 83 92 callsubr
          hintmask 11000000
          -81 callsubr
          hintmask 00110000
          -150 115 -86 callsubr
        </CharString>
        <CharString name="X">
          -29 callsubr
        </CharString>
        <CharString name="Xi">
          0 40 258 40 233 40 hstemhm
          36 50 -46 50 0 50 -26 51 194 51 -26 50 0 50 -46 50 hintmask 0010100101000000
          484 559 rmoveto
          20 70 callgsubr
          -381 hlineto
          -26 -6 -6 -26 hvcurveto
          -20 vlineto
          -14 callsubr
          25 0 16 28 vhcurveto
          344 hlineto
          -28 0 -16 25 25 0 18 14 vhcurveto
          -74 -266 rmoveto
          50 vlineto
          hintmask 0000000010000000
          15 0 16 -26 vhcurveto
          hintmask 0100001100000000
          -18 -7 -7 -29 hvcurveto
          -194 hlineto
          hintmask 0000010000000000
          29 -7 7 -18 vhcurveto
          hintmask 0000001000000000
          -26 0 -16 -15 hvcurveto
          -50 vlineto
          hintmask 0000010000000000
          -16 0 -15 26 vhcurveto
          hintmask 0100001100000000
          18 7 7 29 hvcurveto
          194 hlineto
          hintmask 0000000010000000
          -29 7 -7 18 vhcurveto
          hintmask 1001000100100000
          26 0 15 16 hvcurveto
          78 -261 rmoveto
          25 vlineto
          14 0 18 -24 -26 0 -16 -33 vhcurveto
          -352 hlineto
          33 0 16 -26 -24 0 -18 -14 vhcurveto
          -25 vlineto
          -26 6 -6 26 vhcurveto
          389 15 callgsubr
          endchar
        </CharString>
        <CharString name="Y">
          76 callsubr
          -93 callgsubr
          endchar
        </CharString>
        <CharString name="Yacute">
          -23 callgsubr
          83 92 callsubr
          237 51 hintmask 11001000
          -93 callgsubr
          hintmask 00110000
          -141 -78 callgsubr
        </CharString>
        <CharString name="Ycircumflex">
          -23 callgsubr
          73 -21 hstemhm
          237 51 hintmask 11010000
          -93 callgsubr
          hintmask 00100000
          -98 96 -106 callgsubr
          endchar
        </CharString>
        <CharString name="Ydieresis">
          122 callsubr
          126 72 39 51 39 72 hintmask 11001000
          -93 callgsubr
          hintmask 00110100
          -305 110 -89 callgsubr
          endchar
        </CharString>
        <CharString name="Ydotbelow">
          23 callsubr
          hstemhm
          222 82 -67 51 hintmask 01101000
          -93 callgsubr
          hintmask 10010000
          -199 -754 rmoveto
          91 callsubr
        </CharString>
        <CharString name="Ygrave">
          -23 callgsubr
          83 92 callsubr
          237 51 hintmask 11001000
          -93 callgsubr
          hintmask 00110000
          -142 115 -86 callsubr
        </CharString>
        <CharString name="Yhookabove">
          -23 callgsubr
          63 58 callgsubr
          -36 51 29 37 hintmask 11000010
          -93 callgsubr
          hintmask 00111101
          -149 230 -105 callgsubr
        </CharString>
        <CharString name="Ytilde">
          -23 callgsubr
          52 46 10 47 hstemhm
          237 51 hintmask 11001000
          -93 callgsubr
          hintmask 00110000
          -69 154 -107 callsubr
        </CharString>
        <CharString name="Z">
          -23 callgsubr
          hstem
          63 51 313 51 vstem
          -73 callgsubr
          endchar
        </CharString>
        <CharString name="Zacute">
          -23 callgsubr
          83 92 callsubr
          63 51 313 51 hintmask 11001100
          -73 callgsubr
          hintmask 00110000
          -116 733 -106 callsubr
        </CharString>
        <CharString name="Zcaron">
          85 callgsubr
          63 51 313 51 hintmask 11011000
          -73 callgsubr
          hintmask 00100000
          -73 696 -99 callsubr
        </CharString>
        <CharString name="Zdotaccent">
          -23 callgsubr
          63 83 hstemhm
          63 51 108 82 123 51 hintmask 11010100
          -73 callgsubr
          hintmask 00101000
          -174 683 -30 callgsubr
        </CharString>
        <CharString name="Zdotbelow">
          23 callsubr
          hstemhm
          63 51 108 82 123 51 hintmask 01110100
          -73 callgsubr
          hintmask 10001000
          -174 -197 rmoveto
          91 callsubr
        </CharString>
        <CharString name="Zeta">
          -23 callgsubr
          hstem
          63 51 313 51 vstem
          -73 callgsubr
          endchar
        </CharString>
        <CharString name="a">
          21 callsubr
          14 callsubr
          hintmask 01101100
          -102 callsubr
          hintmask 10010000
          -73 callsubr
          hintmask 01000000
          -77 callgsubr
          hintmask 10010100
          -67 callsubr
          endchar
        </CharString>
        <CharString name="aacute">
          21 callsubr
          92 -21 117 -20 -98 callsubr
          4 371 -103 callsubr
        </CharString>
        <CharString name="abreve">
          111 callgsubr
          51 -20 -98 callsubr
          77 364 -67 callgsubr
        </CharString>
        <CharString name="abreveacute">
          111 callgsubr
          189 -20 -98 callsubr
          77 364 -57 callsubr
        </CharString>
        <CharString name="abrevedotbelow">
          71 callgsubr
          24 callsubr
          82 45 51 -20 45 callgsubr
          75 82 54 51 hintmask 0011000101000000
          -102 callsubr
          hintmask 0100001000000000
          -73 callsubr
          hintmask 0010000000000000
          -77 callgsubr
          hintmask 0100111001000000
          -67 callsubr
          77 364 -65 callgsubr
          hintmask 1000000010000000
          -131 -755 rmoveto
          91 callsubr
        </CharString>
        <CharString name="abrevegrave">
          111 callgsubr
          51 -20 -98 callsubr
          77 364 -56 callgsubr
        </CharString>
        <CharString name="abrevehookabove">
          111 callgsubr
          51 37 143 37 45 callgsubr
          25 45 callsubr
          3 51 hintmask 0110000100010000
          -102 callsubr
          hintmask 1000001000000000
          -73 callsubr
          hintmask 0100000000000000
          -77 callgsubr
          hintmask 1000001000010000
          -67 callsubr
          hintmask 0001110011100000
          77 364 -97 callsubr
          -80 167 -105 callgsubr
        </CharString>
        <CharString name="abrevetilde">
          111 callgsubr
          91 46 10 47 14 callsubr
          hintmask 0110000110000000
          -102 callsubr
          hintmask 1000001000000000
          -73 callsubr
          hintmask 0100000000000000
          -77 callgsubr
          hintmask 1000001010000000
          -67 callsubr
          hintmask 0001110000000000
          77 364 -97 callsubr
          -1 142 -107 callsubr
        </CharString>
        <CharString name="acaron">
          21 callsubr
          187 -20 14 callsubr
          hintmask 01100110
          -102 callsubr
          hintmask 10001000
          -73 callsubr
          hintmask 01000000
          -77 callgsubr
          hintmask 10001010
          -67 callsubr
          hintmask 00010000
          48 373 -94 callsubr
        </CharString>
        <CharString name="acircumflex">
          21 callsubr
          93 -21 14 callsubr
          hintmask 01100110
          -102 callsubr
          hintmask 10001000
          -73 callsubr
          hintmask 01000000
          -77 callgsubr
          hintmask 10001010
          -67 callsubr
          hintmask 00010000
          48 302 -98 callgsubr
          endchar
        </CharString>
        <CharString name="acircumflexacute">
          21 callsubr
          93 -21 224 -20 -98 callsubr
          47 302 -92 callsubr
        </CharString>
        <CharString name="acircumflexdotbelow">
          71 callgsubr
          24 callsubr
          93 -21 45 callgsubr
          75 82 54 51 hintmask 0011001010000000
          -102 callsubr
          hintmask 0100010000000000
          -73 callsubr
          hintmask 0010000000000000
          -77 callgsubr
          hintmask 0100110010000000
          -67 callsubr
          48 302 -98 callgsubr
          hintmask 1000000100000000
          -102 -693 rmoveto
          91 callsubr
        </CharString>
        <CharString name="acircumflexgrave">
          21 callsubr
          93 -21 14 callsubr
          hintmask 01100110
          -102 callsubr
          hintmask 10001000
          -73 callsubr
          hintmask 01000000
          -77 callgsubr
          hintmask 10001010
          -67 callsubr
          hintmask 00010000
          47 302 -92 callgsubr
        </CharString>
        <CharString name="acircumflexhookabove">
          21 callsubr
          72 34 callgsubr
          48 51 -24 72 115 39 26 37 -18 37 -25 51 -1 37 hintmask 0110000010001000
          -102 callsubr
          hintmask 1000000100000000
          -73 callsubr
          hintmask 0100000000000000
          -77 callgsubr
          hintmask 1000000100001000
          -67 callsubr
          hintmask 0000100000010000
          47 302 -21 callgsubr
          hintmask 0001000001000000
          89 30 rlineto
          hintmask 0000100000000000
          89 -30 rlineto
          hintmask 0001001001010100
          1 callgsubr
          hintmask 0000010000100100
          -15 callgsubr
        </CharString>
        <CharString name="acircumflextilde">
          21 callsubr
          93 -21 37 47 42 46 10 47 14 callsubr
          hintmask 0110000011000000
          -102 callsubr
          hintmask 1000000100000000
          -73 callsubr
          hintmask 0100000000000000
          -77 callgsubr
          hintmask 1000000101000000
          -67 callsubr
          hintmask 0001111000000000
          47 302 -106 callgsubr
          28 184 -107 callsubr
        </CharString>
        <CharString name="acute">
          526 67 callsubr
          hstem
          362 597 -103 callsubr
        </CharString>
        <CharString name="acute.cap">
          513 89 callsubr
          hstem
          362 584 -106 callsubr
        </CharString>
        <CharString name="acute.dup">
          526 67 callsubr
          hstem
          362 597 -103 callsubr
        </CharString>
        <CharString name="acute.ts1">
          515 67 callsubr
          hstem
          402 586 -103 callsubr
        </CharString>
        <CharString name="adblgrave">
          21 callsubr
          88 118 callsubr
          -98 callsubr
          70 305 -103 callgsubr
        </CharString>
        <CharString name="adieresis">
          21 callsubr
          93 73 45 callgsubr
          -6 72 99 72 -26 51 hintmask 0110010010000000
          -102 callsubr
          hintmask 1000100000000000
          -73 callsubr
          hintmask 0100000100000000
          -77 callgsubr
          hintmask 1000100010000000
          -67 callsubr
          hintmask 0001001100000000
          -145 337 -62 callsubr
        </CharString>
        <CharString name="adotbelow">
          71 callgsubr
          24 callsubr
          45 callgsubr
          75 82 54 51 hintmask 00110101
          -102 callsubr
          hintmask 01001000
          -73 callsubr
          hintmask 00100000
          -77 callgsubr
          hintmask 01001001
          -67 callsubr
          hintmask 10000010
          -54 -391 rmoveto
          91 callsubr
        </CharString>
        <CharString name="ae">
          -6 42 24 42 95 42 153 42 hstem
          36 37 40 37 vstem
          -63 callgsubr
          endchar
        </CharString>
        <CharString name="ae.dup">
          -6 42 24 42 95 42 153 42 hstem
          36 37 40 37 vstem
          -63 callgsubr
          endchar
        </CharString>
        <CharString name="aeacute">
          -6 42 24 42 95 42 153 42 92 62 callsubr
          36 37 40 37 hintmask 11110011
          -63 callgsubr
          hintmask 00001100
          118 401 -103 callsubr
        </CharString>
        <CharString name="agrave">
          21 callsubr
          92 -21 117 -20 -98 callsubr
          3 310 -79 callsubr
        </CharString>
        <CharString name="ahookabove">
          21 callsubr
          21 37 143 37 45 callgsubr
          24 45 callsubr
          4 51 hintmask 0110001000100000
          -102 callsubr
          hintmask 1000010000000000
          -73 callsubr
          hintmask 0100000000000000
          -77 callgsubr
          hintmask 1000010000100000
          -67 callsubr
          hintmask 0001100111000000
          -4 374 -105 callgsubr
        </CharString>
        <CharString name="amacron">
          21 callsubr
          108 44 14 callsubr
          hintmask 01100110
          -102 callsubr
          hintmask 10001000
          -73 callsubr
          hintmask 01000000
          -77 callgsubr
          hintmask 10001010
          -67 callsubr
          hintmask 00010000
          90 337 -90 callsubr
        </CharString>
        <CharString name="ampersand">
          -11 42 352 42 155 42 hstemhm
          30 37 -37 51 27 37 2 37 -30 51 -3 51 0 37 hintmask 0100001001000000
          487 403 rmoveto
          49 callgsubr
          vhcurveto
          -95 -66 callsubr
          28 hvcurveto
          -33 -88 -34 -90 -37 -71 -23 38 -46 74 -20 54 rrcurveto
          105 110 1 58 23 vvcurveto
          hintmask 0011010100000000
          58 -18 73 -67 -48 -49 -44 -95 -44 7 -57 23 -69 vhcurveto
          -71 -77 rlineto
          -21 -26 -16 -34 -45 vvcurveto
          hintmask 1100011000000000
          -73 44 -69 73 51 39 31 47 38 vhcurveto
          -28 24 42 -50 55 hhcurveto
          62 26 64 45 23 -18 1 0 -13 -4 -9 -7 -1 hvcurveto
          -61 -6 -26 -14 -20 hhcurveto
          -41 -44 51 19 -14 hvcurveto
          25 41 20 47 11 26 64 168 rcurveline
          39 hlineto
          12 19 0 20 hvcurveto
          -234 88 rmoveto
          -31 -19 -40 -67 -75 vhcurveto
          -21 73 -1 56 9 vvcurveto
          hintmask 1010100101000000
          68 34 29 26 41 7 -78 -11 vhcurveto
          -2 -390 rmoveto
          -65 -46 -41 -5 -16 hhcurveto
          -52 -15 72 31 53 11 13 62 69 hvcurveto
          hintmask 0000000010000000
          14 -31 19 -33 15 -24 22 -40 6 -10 21 -30 rrcurveto
          endchar
        </CharString>
        <CharString name="anglearc">
          115 callgsubr
          359 52 vstem
          483 110 rmoveto
          10 -5 9 -9 3 vhcurveto
          -85 43 rlineto
          19 48 8 41 42 vvcurveto
          42 -8 41 -19 48 vhcurveto
          85 43 rlineto
          9 3 5 9 10 vvcurveto
          14 -12 12 -14 -4 -3 0 -3 -4 vhcurveto
          -85 -42 -10 18 -7 9 -8 9 rlinecurve
          6 -4 -7 3 -8 hhcurveto
          -14 -12 -12 -14 -6 2 -6 3 -4 hvcurveto
          20 -25 -261 -132 rlineto
          -9 -4 -5 -9 -10 vvcurveto
          -10 5 -9 9 -4 vhcurveto
          261 -132 -20 -25 rlineto
          -3 -4 -2 -6 -6 vvcurveto
          -14 12 -12 14 8 7 3 6 4 vhcurveto
          8 9 7 9 10 18 85 -42 rcurveline
          -3 4 3 0 4 hhcurveto
          14 12 12 14 hvcurveto
          -124 196 rmoveto
          -33 -5 -33 -16 -41 vhcurveto
          -214 107 214 107 rlineto
          16 -41 5 -33 -33 vvcurveto
          endchar
        </CharString>
        <CharString name="angleleft">
          -65 -21 784 -20 hstem
          445 -60 rmoveto
          6 -5 9 -5 8 vhcurveto
          -221 343 221 343 rlineto
          5 8 5 9 6 vvcurveto
          14 -11 11 -13 1 vhcurveto
          -10 -11 -8 -18 -12 hvcurveto
          -237 -367 237 -365 rlineto
          -18 11 12 -8 10 hhcurveto
          13 1 11 11 14 vvcurveto
          endchar
        </CharString>
        <CharString name="angleright">
          -67 -21 784 -20 hstem
          371 305 rmoveto
          -237 365 rlineto
          18 -11 -12 8 -10 hhcurveto
          -13 -1 -11 -11 -14 vvcurveto
          -6 5 -9 5 -8 vhcurveto
          221 -343 -221 -343 rlineto
          -5 -8 -5 -9 -6 vvcurveto
          -14 11 -11 13 -1 vhcurveto
          10 11 8 18 12 hvcurveto
          endchar
        </CharString>
        <CharString name="aogonek">
          -210 35 169 24 callsubr
          45 callgsubr
          178 41 -8 51 hintmask 10100010
          37 callgsubr
          hintmask 00010101
          -41 -15 6 6 -16 hvcurveto
          230 vlineto
          70 -54 80 -140 -41 -99 0 -65 -24 17 -13 19 12 23 7 30 1 vhcurveto
          19 38 4 31 85 57 -36 -90 vhcurveto
          hintmask 11001010
          12 callgsubr
          hintmask 00000001
          53 91 46 168 5 vhcurveto
          endchar
        </CharString>
        <CharString name="aogonekacute">
          -210 35 169 24 callsubr
          92 -21 117 -20 45 callgsubr
          178 41 -8 51 hintmask 1010000010000000
          37 callgsubr
          hintmask 0001000101000000
          -41 -15 6 6 -16 hvcurveto
          230 vlineto
          70 -54 80 -140 -41 -99 0 -65 -24 17 -13 19 12 23 7 30 1 vhcurveto
          19 38 4 31 85 57 -36 -90 vhcurveto
          hintmask 1100001010000000
          12 callgsubr
          hintmask 0000000001000000
          53 91 46 168 5 vhcurveto
          hintmask 0000110000000000
          4 371 -103 callsubr
        </CharString>
        <CharString name="aring">
          21 callsubr
          58 37 70 37 45 callgsubr
          14 50 104 50 -7 51 hintmask 0110001001000000
          -102 callsubr
          hintmask 1000010000000000
          -73 callsubr
          hintmask 0100000000000000
          -77 callgsubr
          hintmask 1000010001000000
          -67 callsubr
          hintmask 0001100110000000
          -43 337 -50 callgsubr
        </CharString>
        <CharString name="aringacute">
          21 callsubr
          58 135 callsubr
          45 callgsubr
          14 50 104 50 -7 51 hintmask 0110000100100000
          -102 callsubr
          hintmask 1000001000000000
          -73 callsubr
          hintmask 0100000000000000
          -77 callgsubr
          hintmask 1000001000100000
          -67 callsubr
          hintmask 0001110011000000
          -43 337 -71 callsubr
          -3 185 -106 callsubr
        </CharString>
        <CharString name="asciicircum">
          525 -21 hstem
          451 525 rmoveto
          8 -12 9 -10 5 vhcurveto
          -147 70 -15 7 -14 0 -15 -7 rlinecurve
          -147 -70 rlineto
          -10 -5 -12 -9 -8 vvcurveto
          -12 7 -9 17 6 13 5 5 11 vhcurveto
          137 60 137 -60 rlineto
          -5 11 13 -5 6 hhcurveto
          17 7 9 12 hvcurveto
          endchar
        </CharString>
        <CharString name="asciitilde">
          254 46 11 46 hstem
          434 334 -102 callgsubr
        </CharString>
        <CharString name="asciitilde.low">
          0 47 10 46 hstem
          434 81 rmoveto
          11 -11 11 -11 -8 -5 -4 -4 -5 vhcurveto
          -32 -34 -30 -16 -15 hhcurveto
          -13 -10 9 29 -32 hvcurveto
          10 -12 -15 8 -20 hhcurveto
          -25 -27 -15 -17 -22 hvcurveto
          -18 -13 -29 -22 -13 vvcurveto
          -12 11 -11 11 8 5 4 5 5 vhcurveto
          31 34 30 17 15 hhcurveto
          13 10 -10 -29 32 hvcurveto
          -9 12 15 -9 20 hhcurveto
          26 26 16 16 22 hvcurveto
          18 14 29 21 14 vvcurveto
          endchar
        </CharString>
        <CharString name="asterisk">
          -27 callgsubr
        </CharString>
        <CharString name="asterisk.math">
          -27 callgsubr
        </CharString>
        <CharString name="at">
          -6 42 74 42 307 42 74 42 hstem
          47 37 115 37 204 37 vstem
          477 72 rmoveto
          19 -22 0 -7 -11 -4 0 -4 -5 vhcurveto
          -39 -42 -42 -12 -38 hhcurveto
          -116 -106 116 153 161 110 109 111 32 51 -11 -99 38 hvcurveto
          19 -30 -26 17 -32 hhcurveto
          -78 -61 -85 -110 -116 66 -80 72 48 92 42 170 64 0 231 -172 -135 -123 -131 -180 -179 121 -133 139 87 83 50 28 hvcurveto
          -37 233 rmoveto
          -91 -53 -62 -49 -52 -50 66 87 94 54 60 47 51 52 -63 -91 vhcurveto
          endchar
        </CharString>
        <CharString name="atilde">
          21 callsubr
          78 46 11 46 -98 callsubr
          76 366 -102 callgsubr
        </CharString>
        <CharString name="b">
          -6 28 callsubr
          -537 hlineto
          -15 0 -17 26 24 0 17 45 vhcurveto
          7 callsubr
          73 callsubr
        </CharString>
        <CharString name="backslash">
          134 callgsubr
          463 -60 rmoveto
          7 -4 8 -3 5 vhcurveto
          -342 715 rlineto
          8 -4 -7 14 -16 hhcurveto
          -15 -11 -13 -13 -7 4 -8 3 -5 hvcurveto
          342 -715 rlineto
          -8 4 7 -14 16 hhcurveto
          14 12 13 13 hvcurveto
          endchar
        </CharString>
        <CharString name="baht">
          -75 -21 96 59 callsubr
          96 -20 hstemhm
          96 50 86 43 -43 50 -49 43 131 50 -29 51 hintmask 0001100011000000
          479 162 rmoveto
          67 -37 63 -113 27 vhcurveto
          95 32 33 50 60 vvcurveto
          71 -59 79 -108 vhcurveto
          -14 74 hlineto
          12 -9 10 -12 vhcurveto
          hintmask 0101010100000000
          -13 -10 -10 -12 hvcurveto
          -74 -176 vlineto
          -10 125 callsubr
          39 -527 -39 77 callgsubr
          hintmask 1100000010000000
          177 -74 hlineto
          -12 9 -10 13 vhcurveto
          hintmask 0100001000100000
          12 8 10 12 hvcurveto
          74 36 vlineto
          110 58 86 76 hvcurveto
          -72 298 rmoveto
          hintmask 0111010011000000
          -43 -30 -66 -101 -12 vhcurveto
          230 vlineto
          106 25 -71 -38 hvcurveto
          -174 -121 rmoveto
          -87 230 87 hlineto
          195 -405 rmoveto
          -55 -43 -67 -97 vhcurveto
          hintmask 0110001000000000
          -13 255 hlineto
          hintmask 0110010100100000
          7 hlineto
          96 50 -82 -51 hvcurveto
          -195 -122 rmoveto
          -87 255 hlineto
          hintmask 0110000010000000
          87 hlineto
          endchar
        </CharString>
        <CharString name="bar">
          -65 -21 783 87 callsubr
          288 -48 rmoveto
          707 vlineto
          9 0 29 -26 -26 151 callsubr
          26 26 0 29 9 vhcurveto
          endchar
        </CharString>
        <CharString name="bigcircle">
          0 19 484 19 hstem
          1 19 485 19 vstem
          -58 callsubr
          endchar
        </CharString>
        <CharString name="blanksymbol">
          -6 42 353 42 0 42 96 42 hstemhm
          102 50 283 50 hintmask 10111100
          39 callsubr
          92 vlineto
          121 103 rlineto
          5 4 3 6 6 vvcurveto
          128 callgsubr
          -6 -5 -2 -3 -3 vhcurveto
          -93 -79 rlineto
          63 -75 callgsubr
          -96 hlineto
          -81 -70 rlineto
          -5 -3 -2 -6 -6 vvcurveto
          -12 10 -10 12 5 5 2 3 4 vhcurveto
          52 44 rlineto
          -383 vlineto
          -15 0 -17 26 24 0 17 45 vhcurveto
          7 callsubr
          hintmask 01000100
          73 callsubr
        </CharString>
        <CharString name="braceleft">
          -86 42 329 42 327 43 hstem
          237 51 vstem
          464 -64 rmoveto
          17 -13 3 -8 vhcurveto
          -155 4 0 44 35 vvcurveto
          167 vlineto
          23 -3 39 -68 37 vhcurveto
          55 32 15 31 1 23 rrcurveto
          0 0 207 4 9 vhcurveto
          42 20 96 5 39 hhcurveto
          4 13 5 16 22 -20 0 -14 -68 -107 -10 -86 -17 hvcurveto
          -1 -6 0 -172 0 vvcurveto
          -43 -1 -17 -42 -19 vhcurveto
          -16 -39 -53 -1 -25 hhcurveto
          -4 -13 -5 -16 -17 11 -4 9 hvcurveto
          35 -2 120 -8 2 -61 rrcurveto
          -172 vlineto
          -28 0 -43 49 -27 vhcurveto
          -23 42 55 -7 47 hhcurveto
          14 20 0 22 hvcurveto
          endchar
        </CharString>
        <CharString name="braceright">
          -86 43 327 42 328 43 hstem
          237 51 vstem
          464 305 rmoveto
          17 -11 4 -8 vhcurveto
          -34 2 -121 7 -2 63 rrcurveto
          173 vlineto
          26 0 43 -49 27 vhcurveto
          26 -48 -63 4 -35 hhcurveto
          -12 -21 0 -22 -18 14 -3 10 hvcurveto
          153 -2 0 -44 -37 vvcurveto
          -167 vlineto
          -37 14 -30 57 -31 vhcurveto
          -68 -39 -3 -43 -4 vvcurveto
          -184 vlineto
          -32 0 -45 -160 -2 vhcurveto
          -4 -13 -5 -16 -22 21 0 12 85 94 17 79 15 hvcurveto
          1 6 0 172 0 vvcurveto
          43 1 17 42 19 vhcurveto
          16 39 51 1 26 hhcurveto
          4 13 5 16 hvcurveto
          endchar
        </CharString>
        <CharString name="bracketleft">
          -86 43 697 43 hstem
          231 51 vstem
          480 -65 rmoveto
          49 callgsubr
          vhcurveto
          -167 697 167 -61 callgsubr
          49 callgsubr
          hvcurveto
          -187 hlineto
          -26 -5 -7 -25 hvcurveto
          -719 vlineto
          -24 5 -8 26 vhcurveto
          187 -38 callgsubr
          endchar
        </CharString>
        <CharString name="bracketright">
          -86 43 697 43 hstem
          242 51 vstem
          293 -54 rmoveto
          719 vlineto
          70 callsubr
          -187 152 callgsubr
          167 -697 -167 152 callgsubr
          187 15 callgsubr
          endchar
        </CharString>
        <CharString name="breve">
          516 114 callsubr
          590 -67 callgsubr
        </CharString>
        <CharString name="breve.cap">
          492 114 callsubr
          566 -97 callsubr
          endchar
        </CharString>
        <CharString name="breve.ts1">
          514 45 53 -20 hstem
          69 40 308 40 vstem
          457 590 rmoveto
          14 -9 8 -13 -11 -7 -5 -6 -33 -106 -9 -48 -97 -57 9 33 6 -7 5 -11 -13 -9 -8 -14 -69 94 -6 100 -1 vhcurveto
          100 94 7 69 hvcurveto
          endchar
        </CharString>
        <CharString name="brokenbar">
          -65 -21 783 87 callsubr
          288 410 rmoveto
          249 vlineto
          86 callgsubr
          -249 vlineto
          -13 12 -8 14 14 12 8 13 vhcurveto
          -458 vmoveto
          249 vlineto
          13 -12 8 -14 -14 -12 -8 -13 vhcurveto
          -249 vlineto
          87 callgsubr
          endchar
        </CharString>
        <CharString name="bullet">
          99 265 hstem
          131 264 78 callsubr
          endchar
        </CharString>
        <CharString name="c">
          29 callsubr
          hstem
          77 51 251 71 vstem
          -55 callsubr
          endchar
        </CharString>
        <CharString name="cacute">
          140 callgsubr
          77 51 251 71 hintmask 11001100
          -55 callsubr
          hintmask 00110000
          -74 495 -103 callsubr
        </CharString>
        <CharString name="caron">
          621 -20 hstem
          406 599 -94 callsubr
        </CharString>
        <CharString name="caron.cap">
          569 -20 hstem
          405 547 -99 callsubr
        </CharString>
        <CharString name="caron.ts1">
          616 -20 hstem
          443 586 rmoveto
          12 -7 18 -17 -6 -14 -5 -5 -10 vhcurveto
          -127 -60 -127 60 rlineto
          5 -10 -14 5 -6 hhcurveto
          -17 -7 -18 -12 -8 11 -9 11 -5 hvcurveto
          137 -61 15 -7 13 1 15 7 rlinecurve
          138 60 rlineto
          11 5 11 9 8 vvcurveto
          endchar
        </CharString>
        <CharString name="ccaron">
          29 callsubr
          187 -20 hstemhm
          77 51 251 71 hintmask 11011000
          -55 callsubr
          hintmask 00101000
          -30 497 -94 callsubr
        </CharString>
        <CharString name="ccedilla">
          -215 43 166 49 callsubr
          hstemhm
          77 51 106 50 0 50 45 71 -64 51 hintmask 01110001
          463 102 rmoveto
          19 3 -25 0 -4 hhcurveto
          -10 -6 -1 -7 -5 hvcurveto
          -23 -11 -24 -54 -81 hhcurveto
          -93 -79 77 100 53 30 126 148 hvcurveto
          hintmask 01111010
          26 47 -9 -11 hvcurveto
          103 callgsubr
          65 -101 0 -43 -170 -59 -134 -87 -113 83 -95 124 -11 hvcurveto
          -29 vlineto
          -16 0 -16 23 -1 vhcurveto
          hintmask 10001001
          33 callgsubr
          vhcurveto
          hintmask 00000100
          79 -103 13 0 vhcurveto
          25 vlineto
          36 4 82 33 11 68 rrcurveto
          endchar
        </CharString>
        <CharString name="ccircumflex">
          29 callsubr
          93 -21 hstemhm
          77 51 251 71 hintmask 11011000
          -55 callsubr
          hintmask 00101000
          -30 426 -98 callgsubr
          endchar
        </CharString>
        <CharString name="cdotaccent">
          29 callsubr
          88 83 hstemhm
          77 51 121 82 48 71 hintmask 11010100
          -55 callsubr
          hintmask 00101000
          -132 461 -49 callgsubr
          endchar
        </CharString>
        <CharString name="cedilla">
          11 callgsubr
        </CharString>
        <CharString name="cedilla.dup">
          11 callgsubr
        </CharString>
        <CharString name="cent">
          -75 -21 617 -20 hstem
          77 51 140 44 67 71 vstem
          463 102 rmoveto
          19 -22 0 -4 -10 -7 -1 -10 -6 vhcurveto
          -8 -19 -18 -45 -76 -10 rrcurveto
          356 vlineto
          36 31 -11 -9 hvcurveto
          103 callgsubr
          62 -82 2 -56 1 hvcurveto
          138 callgsubr
          -67 vlineto
          -143 -24 -48 -117 -78 vvcurveto
          -108 76 -91 115 -19 vhcurveto
          -69 vlineto
          -12 10 147 callsubr
          68 vlineto
          120 12 31 81 15 vvcurveto
          -195 -63 rmoveto
          -85 24 -55 66 84 vvcurveto
          46 23 101 117 30 vhcurveto
          endchar
        </CharString>
        <CharString name="cent.oldstyle">
          -75 -21 90 42 355 42 -41 42 87 -20 hstemhm
          77 51 101 71 79 71 hintmask 11101111
          463 102 rmoveto
          19 -22 0 -4 -10 -6 -1 -7 -5 vhcurveto
          -23 -11 -24 -54 -81 hhcurveto
          -11 -12 1 5 -21 hvcurveto
          77 349 rlineto
          30 -2 16 -9 -8 vvcurveto
          103 callgsubr
          49 -51 10 -55 5 hvcurveto
          12 61 rlineto
          14 4 -11 13 -14 hhcurveto
          -10 -8 -8 -10 -3 hvcurveto
          -15 -68 rlineto
          -167 -9 -55 -129 -84 vvcurveto
          -85 48 -76 81 -40 vhcurveto
          -19 -82 rlineto
          -14 -3 10 -12 14 hhcurveto
          11 8 7 10 2 hvcurveto
          18 77 rlineto
          -3 21 13 -1 13 hhcurveto
          134 35 92 16 hvcurveto
          -173 290 rmoveto
          -75 -334 rlineto
          -58 41 -29 53 61 vvcurveto
          hintmask 00010000
          48 26 112 136 19 vhcurveto
          endchar
        </CharString>
        <CharString name="centigrade">
          -10 42 440 40 69 40 -40 42 hstemhm
          0 38 32 38 0 38 16 51 22 50 155 50 hintmask 1010000111000000
          490 167 rmoveto
          19 -12 3 -13 -13 -9 -4 -13 -3 vhcurveto
          -49 -5 -23 -91 -65 hhcurveto
          -59 -36 74 52 -17 hvcurveto
          -15 46 -7 48 48 vvcurveto
          84 14 96 56 67 vhcurveto
          19 14 23 15 25 hhcurveto
          41 53 -65 -90 1 hvcurveto
          -10 5 10 -1 11 hhcurveto
          22 2 15 14 hvcurveto
          151 vlineto
          hintmask 1001000111000000
          17 -6 11 -14 -17 -7 -15 -28 -8 vhcurveto
          31 -38 -23 12 -34 hhcurveto
          -77 -45 -66 -63 -26 hvcurveto
          -24 -58 -9 -67 -64 vvcurveto
          -104 26 -144 97 -53 vhcurveto
          -10 17 19 -4 20 hhcurveto
          90 59 88 89 hvcurveto
          -344 379 rmoveto
          hintmask 0110110000000000
          119 callsubr
          hintmask 0110101000000000
          72 callgsubr
        </CharString>
        <CharString name="circumflex">
          527 -21 hstem
          406 528 -98 callgsubr
          endchar
        </CharString>
        <CharString name="circumflex.cap">
          503 -21 hstem
          405 504 -106 callgsubr
          endchar
        </CharString>
        <CharString name="circumflex.dup">
          527 -21 hstem
          406 528 -98 callgsubr
          endchar
        </CharString>
        <CharString name="colon">
          0 109 207 76 callgsubr
          370 31 callgsubr
          -316 vmoveto
          50 callsubr
        </CharString>
        <CharString name="colonmonetary">
          -75 -21 803 -20 hstem
          43 50 175 44 vstem
          481 163 rmoveto
          24 -18 0 -8 -6 -17 0 -20 -2 vhcurveto
          -5 -84 -55 -35 -58 -15 rrcurveto
          546 vlineto
          63 -21 42 -46 12 -72 rrcurveto
          -13 3 2 -12 21 hhcurveto
          26 0 16 16 hvcurveto
          143 vlineto
          12 0 20 -21 116 callgsubr
          vhcurveto
          -1 -4 -1 -4 -19 -35 -33 29 -32 16 -42 8 rrcurveto
          138 callgsubr
          -62 vlineto
          -128 -17 -97 -129 -171 vvcurveto
          -172 96 -128 129 -17 vhcurveto
          -63 vlineto
          -12 10 147 callsubr
          64 vlineto
          102 18 67 77 78 vvcurveto
          -213 -132 rmoveto
          -99 25 -76 106 144 vvcurveto
          144 77 106 98 24 vhcurveto
          endchar
        </CharString>
        <CharString name="comma">
          -123 -21 144 109 hstem
          208 130 vstem
          338 16 rmoveto
          56 -34 37 -41 -35 -20 -26 -28 -33 25 -22 29 5 18 2 8 9 vhcurveto
          0 0 -12 -1 -8 vhcurveto
          -11 -62 -59 -25 -21 -7 rrcurveto
          -7 -3 -7 -5 -9 vvcurveto
          -11 10 -12 12 31 97 53 107 vhcurveto
          endchar
        </CharString>
        <CharString name="copyleft">
          105 callgsubr
          126 31 202 30 96 19 hintmask 1010111101000000
          -58 callsubr
          -96 -1 rmoveto
          109 -66 81 -77 -30 -27 -11 -22 -26 vhcurveto
          -11 21 -1 2 3 vvcurveto
          3 -3 -3 4 -6 hhcurveto
          -13 0 -12 -7 hvcurveto
          -86 vlineto
          -10 0 -9 16 12 2 7 8 1 vhcurveto
          hintmask 0101000110000000
          54 9 38 30 39 hhcurveto
          58 58 -68 -97 -97 -58 -68 -59 -27 -54 17 65 -4 hvcurveto
          12 -2 -10 0 -3 hhcurveto
          -5 -11 0 -14 -53 51 -52 68 78 66 80 110 hvcurveto
          endchar
        </CharString>
        <CharString name="copyright">
          105 callgsubr
          96 30 202 31 126 19 hintmask 1111011111000000
          -58 callsubr
          -126 -87 rmoveto
          15 -11 0 -5 -3 -10 0 -12 -2 vhcurveto
          -66 -4 -54 -16 -27 hhcurveto
          -59 -58 68 97 97 58 68 58 40 37 -30 -54 9 hvcurveto
          -8 2 1 -7 12 hhcurveto
          16 0 9 10 hvcurveto
          hintmask 0100100110000000
          86 vlineto
          7 0 12 -13 -6 -3 -4 -3 -3 vhcurveto
          -3 -1 -2 -11 -21 vhcurveto
          22 -25 -27 11 -30 hhcurveto
          -78 -66 -80 -110 -110 66 -80 78 68 51 52 52 hvcurveto
          endchar
        </CharString>
        <CharString name="currency">
          162 52 184 52 hstem
          119 52 183 52 vstem
          419 149 rmoveto
          17 17 -19 21 -6 7 -31 30 rcurveline
          18 29 8 25 28 vvcurveto
          28 -8 25 -18 29 vhcurveto
          30 29 6 7 19 22 -19 18 rlinecurve
          -16 14 -20 -18 -7 -6 -29 -30 rcurveline
          18 -29 -25 8 -27 hhcurveto
          -28 -26 -8 -18 -28 hvcurveto
          -31 31 -7 6 -21 19 -17 -17 rlinecurve
          -17 -17 19 -21 6 -7 31 -31 rcurveline
          -17 -28 -8 -26 -27 vvcurveto
          -27 8 -26 17 -28 vhcurveto
          -30 -29 -6 -8 -19 -22 19 -18 rlinecurve
          16 -14 20 18 8 6 29 30 rcurveline
          -18 28 26 -8 28 hhcurveto
          27 25 8 18 29 hvcurveto
          30 -31 7 -6 21 -19 17 17 rlinecurve
          -65 157 rmoveto
          -50 -41 -42 -50 -51 -41 42 50 50 41 42 51 50 41 -42 -50 vhcurveto
          endchar
        </CharString>
        <CharString name="cwm">
          -107 endchar
        </CharString>
        <CharString name="cwmascender">
          -107 endchar
        </CharString>
        <CharString name="cwmcapital">
          -107 endchar
        </CharString>
        <CharString name="d">
          -6 84 callsubr
          283 50 hintmask 01111100
          -24 callsubr
          hintmask 10000100
          47 callsubr
          hintmask 01000000
          19 callgsubr
          hintmask 10101100
          19 callsubr
          endchar
        </CharString>
        <CharString name="dagger">
          -202 -21 633 49 249 -20 hstemhm
          231 61 -16 61 hintmask 11110000
          453 434 rmoveto
          10 -6 15 -29 -24 -35 -8 -6 -24 vhcurveto
          -1 -4 -39 -6 -26 hhcurveto
          33 0 27 13 65 vhcurveto
          6 38 7 44 31 vvcurveto
          6 0 26 -30 -31 0 -25 -7 -27 11 -67 4 -25 vhcurveto
          10 -48 -1 -29 1 -42 rrcurveto
          -25 -20 1 6 -25 hvcurveto
          6 -22 -34 8 -25 hhcurveto
          -32 -3 -20 -4 -10 6 -15 29 25 34 9 6 25 hvcurveto
          1 6 26 3 35 hhcurveto
          -38 -1 -14 -7 -27 vhcurveto
          -17 -73 0 -8 -54 vvcurveto
          -156 13 -173 13 -105 vhcurveto
          -3 1 -1 3 5 1 3 7 1 vhcurveto
          16 111 8 137 180 vvcurveto
          hintmask 01001000
          55 0 7 -16 72 vhcurveto
          -7 24 -3 17 39 vvcurveto
          27 19 1 -5 25 hvcurveto
          -6 22 35 -9 24 hhcurveto
          32 3 20 4 hvcurveto
          endchar
        </CharString>
        <CharString name="daggerdbl">
          -191 -21 201 49 421 49 200 -20 hstem
          231 61 vstem
          453 483 rmoveto
          -26 callsubr
          -470 vmoveto
          -26 callsubr
          endchar
        </CharString>
        <CharString name="dblbracketleft">
          -85 52 679 52 hstem
          151 52 116 52 vstem
          494 -59 rmoveto
          14 -6 12 -20 vhcurveto
          -97 679 90 hlineto
          22 11 9 18 22 -17 3 -20 hvcurveto
          -255 hlineto
          -22 -29 0 -28 hvcurveto
          -725 vlineto
          -21 9 -9 21 vhcurveto
          290 hlineto
          20 3 14 12 hvcurveto
          -175 141 callsubr
        </CharString>
        <CharString name="dblbracketright">
          -85 52 679 52 hstem
          153 52 116 52 vstem
          373 -59 rmoveto
          730 vlineto
          12 -3 15 -21 vhcurveto
          -295 hlineto
          -19 -4 -14 -12 -14 6 -12 20 hvcurveto
          96 -679 -96 hlineto
          -20 -6 -12 -14 -12 4 -14 19 hvcurveto
          296 hlineto
          19 4 14 12 hvcurveto
          -52 141 callsubr
        </CharString>
        <CharString name="dblgrave.ts1">
          219 506 rmoveto
          56 callgsubr
          181 hmoveto
          56 callgsubr
          endchar
        </CharString>
        <CharString name="dblverticalbar">
          134 callgsubr
          129 51 166 51 vstem
          180 -48 rmoveto
          707 vlineto
          9 0 29 -26 -25 151 callsubr
          25 26 0 29 9 vhcurveto
          217 hmoveto
          707 vlineto
          9 0 29 -25 -26 151 callsubr
          26 25 0 29 9 vhcurveto
          endchar
        </CharString>
        <CharString name="dcaron">
          -6 42 -36 97 callgsubr
          17 -21 108 76 -42 42 hstemhm
          39 50 283 50 120 28 hintmask 0110011100000000
          -24 callsubr
          hintmask 1000000100000000
          47 callsubr
          hintmask 0100000000000000
          19 callgsubr
          hintmask 1010011100000000
          19 callsubr
          198 280 -47 callgsubr
          vhcurveto
          hintmask 0001100010000000
          -24 18 -15 20 11 8 2 4 8 vhcurveto
          -59 -45 -21 -27 -9 vhcurveto
          -4 -1 -5 -4 -5 vvcurveto
          -7 7 -8 8 22 72 40 77 vhcurveto
          endchar
        </CharString>
        <CharString name="dcroat">
          -6 42 -36 97 callgsubr
          44 43 51 42 hstemhm
          39 50 283 50 hintmask 01111110
          58 callsubr
          433 62 hlineto
          12 10 9 12 128 callgsubr
          hvcurveto
          -62 61 -70 callgsubr
          -51 -164 hlineto
          -12 -9 -10 -12 -12 9 -9 12 hvcurveto
          164 -103 hlineto
          43 -50 -40 16 -42 hhcurveto
          -107 -94 -94 -125 hvcurveto
          hintmask 10000010
          47 callsubr
          hintmask 01000000
          19 callgsubr
          hintmask 10100110
          19 callsubr
          endchar
        </CharString>
        <CharString name="ddotbelow">
          71 callgsubr
          84 callsubr
          133 82 68 50 hintmask 00111101
          -24 callsubr
          hintmask 01000001
          47 callsubr
          hintmask 00100000
          19 callgsubr
          hintmask 01010101
          19 callsubr
          hintmask 10000010
          -68 -429 rmoveto
          91 callsubr
        </CharString>
        <CharString name="degree">
          472 40 69 40 hstemhm
          190 38 32 38 0 38 hintmask 11110000
          336 546 rmoveto
          119 callsubr
          hintmask 11101000
          72 callgsubr
        </CharString>
        <CharString name="diameter">
          95 52 318 52 hstem
          51 52 318 52 vstem
          483 502 rmoveto
          14 -12 12 -14 -7 -6 -3 -4 -5 vhcurveto
          -48 -49 rlineto
          30 -41 -43 15 -45 hhcurveto
          -116 -95 -95 -116 -46 15 -43 30 -41 hvcurveto
          -48 -48 rlineto
          -4 -5 -3 -6 -7 vvcurveto
          -14 12 -12 14 7 6 3 4 5 vhcurveto
          48 49 rlineto
          -30 41 43 -15 45 hhcurveto
          116 95 95 116 46 -15 43 -30 41 hvcurveto
          48 48 rlineto
          4 5 3 6 7 vvcurveto
          -62 -196 rmoveto
          -88 -71 -71 -88 -30 -27 8 21 -36 vhcurveto
          222 223 rlineto
          21 -34 9 -29 -30 vvcurveto
          -66 130 rmoveto
          -222 -223 rlineto
          -21 34 -9 29 30 vvcurveto
          88 71 71 88 30 27 -8 -21 36 vhcurveto
          endchar
        </CharString>
        <CharString name="died">
          3 -21 324 46 195 87 callsubr
          493 330 rmoveto
          20 -16 2 -13 vhcurveto
          -176 171 hlineto
          20 -13 4 -14 -22 -3 -13 -16 vhcurveto
          -166 -176 vlineto
          -13 -16 -2 -20 -13 8 -11 16 hvcurveto
          181 -292 hlineto
          -17 2 -15 26 24 0 19 15 vhcurveto
          290 181 vlineto
          15 9 9 15 hvcurveto
          endchar
        </CharString>
        <CharString name="dieresis">
          527 73 hstem
          148 callsubr
          vstem
          -39 callsubr
          endchar
        </CharString>
        <CharString name="dieresis.cap">
          482 72 hstem
          133 callgsubr
          vstem
          -1 callgsubr
          endchar
        </CharString>
        <CharString name="dieresis.dup">
          527 73 hstem
          148 callsubr
          vstem
          -39 callsubr
          endchar
        </CharString>
        <CharString name="dieresis.ts1">
          530 82 hstem
          116 82 128 82 vstem
          408 572 rmoveto
          19 -15 22 -23 vhcurveto
          -3 -3 -1 -3 hhcurveto
          -23 -3 -12 -19 -18 vvcurveto
          -17 12 -25 26 24 20 16 26 vhcurveto
          -210 hmoveto
          18 -15 23 -24 vhcurveto
          -3 -3 -1 -3 hhcurveto
          -20 -3 -14 -17 -20 vvcurveto
          -19 15 -23 23 27 17 20 22 vhcurveto
          endchar
        </CharString>
        <CharString name="discount">
          9 139 -126 -21 550 139 8 -20 hstemhm
          106 138 36 138 hintmask 01010000
          463 669 rmoveto
          2 vlineto
          15 -12 11 -14 1 vhcurveto
          -5 -1 -8 -1 -7 -7 -5 -8 rlinecurve
          -333 -615 rlineto
          -7 -12 -11 -20 -7 vvcurveto
          -14 11 -12 15 vhcurveto
          2 hlineto
          14 1 9 16 8 13 327 606 rcurveline
          6 10 8 15 2 7 rrcurveto
          -219 -50 rmoveto
          hintmask 10101100
          -37 -28 -23 -32 -8 vhcurveto
          -49 -29 29 41 38 28 23 33 8 hvcurveto
          48 29 -30 -41 hvcurveto
          174 -541 rmoveto
          -38 -28 -23 -33 -8 vhcurveto
          -48 -29 30 41 37 28 23 32 8 hvcurveto
          49 29 -30 -40 hvcurveto
          endchar
        </CharString>
        <CharString name="divide">
          32 109 139 52 138 109 hstem
          207 109 vstem
          61 callsubr
          -167 218 31 callgsubr
          -438 vmoveto
          50 callsubr
        </CharString>
        <CharString name="divorced">
          -46 -21 161 48 329 48 -48 49 161 -20 hstemhm
          -214 47 270 49 84 52 84 50 268 47 hintmask 0110011000000000
          152 308 rmoveto
          104 -71 107 -117 -109 -69 -112 -101 -104 77 -108 110 110 69 114 100 vhcurveto
          585 -2 rmoveto
          hintmask 1101111111000000
          100 -73 114 -106 -112 -74 -113 -102 -105 78 -106 109 109 69 113 99 vhcurveto
          -449 -341 rmoveto
          688 vlineto
          19 -10 9 -16 -14 -12 -7 -27 vhcurveto
          -688 vlineto
          -21 11 -5 13 28 0 16 16 vhcurveto
          -185 340 rmoveto
          -77 -52 -86 -83 -85 -50 99 68 78 53 84 82 85 50 -85 -81 vhcurveto
          587 6 rmoveto
          -57 -39 -112 -95 -83 -51 90 76 75 50 88 84 83 51 -83 -77 vhcurveto
          endchar
        </CharString>
        <CharString name="dlinebelow">
          -172 44 122 84 callsubr
          283 50 hintmask 00111110
          -24 callsubr
          hintmask 01000010
          47 callsubr
          hintmask 00100000
          19 callgsubr
          hintmask 01010110
          19 callsubr
          hintmask 10000000
          76 -415 -90 callsubr
        </CharString>
        <CharString name="dollar">
          134 callgsubr
          61 46 134 43 133 46 vstem
          463 166 rmoveto
          48 -29 97 -150 28 vhcurveto
          235 vlineto
          48 -6 56 -16 20 -65 rrcurveto
          -13 -10 -4 -10 -10 vvcurveto
          -18 14 -17 21 17 20 10 30 75 -55 69 -124 11 vhcurveto
          48 vlineto
          12 0 20 -21 -22 0 -20 -12 vhcurveto
          -49 vlineto
          -116 -13 -64 -74 -72 vvcurveto
          -24 7 -104 173 -32 vhcurveto
          -260 vlineto
          -62 8 -46 25 -19 65 rrcurveto
          12 7 7 6 18 vvcurveto
          23 -19 14 -16 -8 -29 -4 -38 -81 58 -74 122 -12 vhcurveto
          -48 vlineto
          -12 0 -20 22 21 0 20 12 vhcurveto
          48 vlineto
          128 20 51 84 68 vvcurveto
          -222 182 rmoveto
          -76 14 -58 42 57 vvcurveto
          54 53 46 81 14 vhcurveto
          176 -413 rmoveto
          -57 -50 -53 -83 -15 vhcurveto
          251 vlineto
          86 -17 47 -52 -57 vvcurveto
          endchar
        </CharString>
        <CharString name="dollar.oldstyle">
          -64 -21 80 43 -26 43 106 43 110 43 219 43 79 -20 hstemhm
          50 47 -46 46 76 43 0 43 2 46 0 44 76 46 -46 47 hintmask 0000011000101000
          474 462 rmoveto
          71 -45 44 -78 34 vhcurveto
          58 vlineto
          16 -6 13 -16 -19 -3 -15 -16 vhcurveto
          -50 vlineto
          0 -29 2 -19 -17 -26 -2 0 vhcurveto
          50 vlineto
          16 -3 15 -18 vhcurveto
          hintmask 0001100011000000
          -17 -4 -12 -18 -1 hvcurveto
          -60 vlineto
          -69 -18 -53 -69 -60 vvcurveto
          -74 61 -45 61 -28 vhcurveto
          -260 vlineto
          -38 22 -26 33 21 10 13 8 18 vvcurveto
          19 -13 19 -22 vhcurveto
          hintmask 1101000101010000
          -21 -16 -18 -25 -64 49 -75 74 -13 hvcurveto
          -69 vlineto
          -14 7 -11 15 18 3 16 15 vhcurveto
          53 vlineto
          -4 22 8 0 15 hhcurveto
          20 26 4 0 hvcurveto
          -53 vlineto
          -15 4 -16 18 vhcurveto
          hintmask 0010000000001100
          15 7 11 15 hvcurveto
          71 vlineto
          69 17 53 74 64 vvcurveto
          78 -56 52 -66 25 vhcurveto
          239 vlineto
          37 -19 26 -29 -18 vvcurveto
          -1 vlineto
          -11 -12 -8 -16 vvcurveto
          -18 12 -18 22 vhcurveto
          hintmask 0000110010101010
          21 17 14 25 hvcurveto
          -167 -128 rmoveto
          -91 23 rlineto
          216 vlineto
          0 23 3 14 vhcurveto
          21 1 33 -4 0 vvcurveto
          -134 -204 rmoveto
          -47 29 -29 27 40 vvcurveto
          hintmask 0010000001001100
          38 30 28 46 30 vhcurveto
          254 -394 rmoveto
          -49 -25 -29 -51 -34 vhcurveto
          213 vlineto
          50 -28 26 -33 -40 vvcurveto
          -120 -126 rmoveto
          hintmask 0100000000101000
          0 -30 -3 -11 vhcurveto
          -50 1 rlineto
          265 vlineto
          91 -23 rlineto
          endchar
        </CharString>
        <CharString name="dong">
          -64 43 47 39 -33 39 -19 43 306 39 43 40 49 39 hstemhm
          37 47 269 48 hintmask 0010111110000000
          483 52 rmoveto
          19 -18 0 -11 vhcurveto
          -53 412 58 hlineto
          11 10 9 10 11 -10 10 -11 hvcurveto
          -58 58 hlineto
          23 -5 7 -24 vhcurveto
          -73 hlineto
          -11 -19 0 -20 -19 20 0 9 hvcurveto
          55 -49 -156 hlineto
          -11 -9 -10 -11 -10 9 -9 11 hvcurveto
          156 -100 hlineto
          43 -47 -38 14 -40 hhcurveto
          -102 -89 -89 -118 hvcurveto
          hintmask 0100000000000000
          -116 83 -91 99 vhcurveto
          hintmask 0001000010000000
          52 38 25 44 44 hvcurveto
          hintmask 0010000000000000
          -52 0 -11 29 vhcurveto
          71 hlineto
          hintmask 1001000100000000
          12 18 0 20 hvcurveto
          -94 vmoveto
          12 -9 9 -12 vhcurveto
          -404 hlineto
          -12 -9 -9 -12 -12 9 -10 12 hvcurveto
          404 hlineto
          12 9 10 12 hvcurveto
          -130 254 rmoveto
          hintmask 0100100110000000
          -59 -49 -88 -81 -75 -64 73 95 100 74 68 74 69 52 -60 -60 vhcurveto
          endchar
        </CharString>
        <CharString name="dotaccent">
          522 125 callgsubr
          563 -49 callgsubr
          endchar
        </CharString>
        <CharString name="dotaccent.alt">
          487 125 callgsubr
          528 -30 callgsubr
        </CharString>
        <CharString name="dotaccent.cap">
          482 125 callgsubr
          523 -30 callgsubr
        </CharString>
        <CharString name="dotlessi">
          -7 callsubr
          hstem
          250 50 vstem
          -96 callsubr
          endchar
        </CharString>
        <CharString name="dotlessj">
          64 callsubr
          80 callsubr
          hintmask 01101100
          -51 callgsubr
          hintmask 10010100
          -10 callgsubr
          endchar
        </CharString>
        <CharString name="e">
          -6 -16 callsubr
          hstem
          -104 callsubr
          endchar
        </CharString>
        <CharString name="eacute">
          -6 -16 callsubr
          92 62 callsubr
          hintmask 11100000
          -104 callsubr
          hintmask 00011000
          -47 358 -103 callsubr
        </CharString>
        <CharString name="ebreve">
          -6 -16 callsubr
          82 150 callgsubr
          hintmask 11100000
          -104 callsubr
          hintmask 00011000
          26 351 -67 callgsubr
        </CharString>
        <CharString name="ecaron">
          -6 -16 callsubr
          187 -20 hstemhm
          hintmask 11100000
          -104 callsubr
          hintmask 00010000
          -3 360 -94 callsubr
        </CharString>
        <CharString name="ecircumflex">
          -6 -16 callsubr
          93 -21 hstemhm
          hintmask 11100000
          -104 callsubr
          hintmask 00010000
          -3 289 -98 callgsubr
          endchar
        </CharString>
        <CharString name="ecircumflexacute">
          -6 -16 callsubr
          93 -21 224 -20 hstemhm
          hintmask 11100000
          -104 callsubr
          hintmask 00011000
          -4 289 -92 callsubr
        </CharString>
        <CharString name="ecircumflexdotbelow">
          71 callgsubr
          -16 callsubr
          93 -21 hstemhm
          222 82 hintmask 01111000
          -104 callsubr
          -3 289 -98 callgsubr
          hintmask 10000100
          -102 -693 rmoveto
          91 callsubr
        </CharString>
        <CharString name="ecircumflexgrave">
          -6 -16 callsubr
          93 -21 hstemhm
          hintmask 11100000
          -104 callsubr
          hintmask 00010000
          -4 289 -92 callgsubr
        </CharString>
        <CharString name="ecircumflexhookabove">
          -6 -16 callsubr
          72 30 callsubr
          hintmask 1110000000000000
          -104 callsubr
          hintmask 0000100001000000
          -4 289 -39 callgsubr
        </CharString>
        <CharString name="ecircumflextilde">
          -6 -16 callsubr
          93 -21 37 47 42 46 10 47 hstemhm
          hintmask 11100000
          -104 callsubr
          hintmask 00011110
          -4 289 -106 callgsubr
          28 184 -107 callsubr
        </CharString>
        <CharString name="edblgrave">
          -6 -16 callsubr
          88 118 callsubr
          hstemhm
          hintmask 11100000
          -104 callsubr
          hintmask 00011000
          19 292 -103 callgsubr
        </CharString>
        <CharString name="edieresis">
          -6 -16 callsubr
          93 73 hstemhm
          148 callsubr
          hintmask 11100000
          -104 callsubr
          hintmask 00011100
          -196 324 -62 callsubr
        </CharString>
        <CharString name="edotaccent">
          -6 -16 callsubr
          88 83 hstemhm
          222 82 hintmask 11100000
          -104 callsubr
          hintmask 00011000
          -105 324 -49 callgsubr
          endchar
        </CharString>
        <CharString name="edotbelow">
          71 callgsubr
          -16 callsubr
          hstemhm
          222 82 hintmask 01110000
          -104 callsubr
          hintmask 10001000
          -105 -404 rmoveto
          91 callsubr
        </CharString>
        <CharString name="egrave">
          -6 -16 callsubr
          92 62 callsubr
          hintmask 11100000
          -104 callsubr
          hintmask 00011000
          -48 297 -79 callsubr
        </CharString>
        <CharString name="ehookabove">
          -6 -16 callsubr
          21 58 callgsubr
          44 37 hintmask 11100000
          -104 callsubr
          hintmask 00011111
          -55 361 -105 callgsubr
        </CharString>
        <CharString name="eight">
          -21 callsubr
        </CharString>
        <CharString name="eight.taboldstyle">
          -21 callsubr
        </CharString>
        <CharString name="ellipsis">
          0 109 hstem
          27 109 72 109 72 109 cntrmask 01110000
          136 54 31 callgsubr
          181 hmoveto
          -28 callsubr
          181 hmoveto
          50 callsubr
        </CharString>
        <CharString name="emacron">
          -6 -16 callsubr
          108 44 hstemhm
          hintmask 11100000
          -104 callsubr
          hintmask 00010000
          39 324 -90 callsubr
        </CharString>
        <CharString name="emdash">
          280 52 hstem
          465 306 rmoveto
          -46 callsubr
        </CharString>
        <CharString name="emdash.alt">
          46 callsubr
        </CharString>
        <CharString name="endash">
          280 52 hstem
          465 306 rmoveto
          -46 callsubr
        </CharString>
        <CharString name="eng">
          -241 52 189 143 callgsubr
          138 51 87 50 82 50 hintmask 00011010
          458 53 rmoveto
          240 vlineto
          96 -48 42 -76 -65 -44 -33 -36 -36 vhcurveto
          hintmask 01101100
          50 0 13 -31 vhcurveto
          -76 27 callgsubr
          10 hvcurveto
          57 -341 -56 77 callgsubr
          164 hlineto
          11 -40 callgsubr
          -55 194 hlineto
          hintmask 10010110
          111 82 42 57 62 18 -32 -70 vhcurveto
          -234 vlineto
          -110 -7 -132 -75 -15 -11 -12 -14 -15 11 -11 15 57 32 37 54 19 vhcurveto
          19 57 5 75 71 vvcurveto
          endchar
        </CharString>
        <CharString name="eogonek">
          53 callsubr
          127 -16 callsubr
          hstemhm
          215 41 hintmask 10111100
          3 callgsubr
          hintmask 01011100
          28 callgsubr
          endchar
        </CharString>
        <CharString name="eogonekacute">
          53 callsubr
          127 -16 callsubr
          92 62 callsubr
          215 41 hintmask 10111001
          3 callgsubr
          hintmask 01011001
          28 callgsubr
          hintmask 00000110
          -47 358 -103 callsubr
        </CharString>
        <CharString name="equal">
          202 51 106 51 hstem
          483 385 rmoveto
          25 -31 0 -11 vhcurveto
          -358 hlineto
          -11 -31 0 -25 -26 27 0 9 hvcurveto
          370 hlineto
          9 27 0 26 hvcurveto
          -158 vmoveto
          26 -27 0 -9 vhcurveto
          -370 hlineto
          -9 -27 0 -26 -25 31 -53 callsubr
          358 hlineto
          11 31 0 25 hvcurveto
          endchar
        </CharString>
        <CharString name="ereversed">
          -6 -16 callsubr
          hstem
          460 214 rmoveto
          121 -95 99 -117 -128 -62 -97 -112 -28 14 0 17 vhcurveto
          320 hlineto
          -106 -20 -82 -55 -82 hhcurveto
          -32 -60 11 63 -28 hvcurveto
          10 -4 -6 1 -12 hhcurveto
          -4 -21 0 -19 -24 47 -84 127 128 100 99 121 hvcurveto
          -52 25 rmoveto
          -299 hlineto
          126 11 70 27 58 hhcurveto
          77 65 -60 -93 18 hvcurveto
          endchar
        </CharString>
        <CharString name="estimated">
          -5 42 264 41 237 42 hstem
          34 52 340 53 vstem
          479 104 rmoveto
          16 -16 2 -12 vhcurveto
          0 -5 -1 -3 -3 vhcurveto
          -68 -62 -47 -13 -43 hhcurveto
          -117 -88 135 107 hvcurveto
          12 vlineto
          11 10 rlineto
          351 hlineto
          19 12 6 22 hvcurveto
          7 vlineto
          131 -58 154 -154 -161 -72 -181 -133 -140 82 -172 164 72 85 19 74 37 vhcurveto
          2 5 3 6 5 vvcurveto
          -53 238 rmoveto
          -338 hlineto
          107 6 69 130 105 hhcurveto
          114 44 -132 -105 hvcurveto
          endchar
        </CharString>
        <CharString name="eth">
          29 callsubr
          191 -20 hstem
          139 callsubr
          50 vlineto
          124 -65 107 -96 62 vhcurveto
          53 28 rlineto
          9 5 6 9 9 vvcurveto
          10 -8 8 -12 -5 -5 -1 -2 -4 vhcurveto
          -79 -41 -46 21 -53 12 -54 -1 rlinecurve
          -15 -11 -10 -11 -12 12 -9 14 36 35 -5 -12 32 hvcurveto
          -49 -25 rlineto
          -8 -5 -7 -8 -10 vvcurveto
          -10 9 -8 12 5 4 1 3 5 vhcurveto
          77 40 58 -33 46 -51 27 -62 rlinecurve
          35 -49 -36 13 -40 hhcurveto
          -110 -92 -98 -123 -125 94 -94 108 54 50 23 40 37 hvcurveto
          40 41 21 57 58 79 callgsubr
        </CharString>
        <CharString name="etilde">
          -6 -16 callsubr
          78 46 11 46 hstemhm
          hintmask 11100000
          -104 callsubr
          hintmask 00011000
          25 353 -102 callgsubr
        </CharString>
        <CharString name="eturned">
          -3 callsubr
        </CharString>
        <CharString name="exclam">
          0 83 539 -20 hstem
          221 82 vstem
          303 574 rmoveto
          44 -33 4 -8 -8 -33 -4 -44 vhcurveto
          10 -367 rlineto
          -17 1 20 0 10 hhcurveto
          29 1 8 32 2 hvcurveto
          9 -189 -49 callgsubr
          endchar
        </CharString>
        <CharString name="exclamdown">
          -220 -21 540 82 hstem
          221 82 vstem
          303 340 rmoveto
          23 40 callgsubr
          -23 -38 callsubr
          -532 vmoveto
          -10 367 rlineto
          16 -1 -21 0 -9 hhcurveto
          -28 -2 -7 -32 -2 hvcurveto
          -9 -344 rlineto
          -45 33 -4 8 8 33 4 45 vhcurveto
          endchar
        </CharString>
        <CharString name="f">
          -31 callgsubr
          341 137 hlineto
          -66 callgsubr
          -137 59 hlineto
          90 76 1 45 vhcurveto
          -14 8 -31 27 16 19 13 23 vhcurveto
          endchar
        </CharString>
        <CharString name="five">
          -11 42 308 42 188 42 hstemhm
          55 72 -35 51 275 51 hintmask 11101100
          469 186 8 callsubr
          hintmask 10010100
          63 callsubr
        </CharString>
        <CharString name="five.taboldstyle">
          -241 42 308 42 188 42 hstem
          92 51 275 51 vstem
          469 -44 8 callsubr
          63 callsubr
        </CharString>
        <CharString name="florin">
          -31 callgsubr
          341 137 hlineto
          -66 callgsubr
          -137 59 hlineto
          90 76 1 45 vhcurveto
          -14 8 -31 27 16 19 13 23 vhcurveto
          endchar
        </CharString>
        <CharString name="four">
          0 42 133 42 364 42 hstem
          333 38 vstem
          493 195 rmoveto
          22 -20 0 -11 vhcurveto
          -91 374 106 callgsubr
          -376 117 callgsubr
          -133 -74 43 callsubr
          186 -52 callsubr
          -19 0 -12 hvcurveto
          -74 133 106 callsubr
          364 rlineto
          27 hlineto
          endchar
        </CharString>
        <CharString name="four.taboldstyle">
          -187 42 145 42 352 42 hstem
          333 38 vstem
          493 20 rmoveto
          22 -20 0 -11 vhcurveto
          -91 362 106 callgsubr
          -364 117 callgsubr
          -145 -74 43 callsubr
          186 -52 callsubr
          -19 0 -12 hvcurveto
          -74 145 106 callsubr
          352 rlineto
          27 hlineto
          endchar
        </CharString>
        <CharString name="fraction">
          5 -21 643 -20 hstem
          445 609 18 callgsubr
          23 callgsubr
          endchar
        </CharString>
        <CharString name="fraction.alt">
          -107 5 -21 643 -20 hstem
          184 609 18 callgsubr
          23 callgsubr
          endchar
        </CharString>
        <CharString name="g">
          -5 callsubr
          hstemhm
          72 50 110 50 110 50 cntrmask 0000001110000000
          hintmask 0000011110000000
          13 callsubr
          hintmask 1111001110000000
          -9 callgsubr
          -69 callgsubr
          -13 17 -2 26 0 vvcurveto
          5 3 17 9 23 vhcurveto
          -9 14 36 -22 48 hhcurveto
          89 71 70 86 29 -9 28 -22 37 hvcurveto
          hintmask 0010101110000000
          33 18 26 5 24 2 rrcurveto
          -30 6 18 -6 8 hhcurveto
          13 18 9 23 hvcurveto
          -165 -115 rmoveto
          -65 -51 -50 -59 -62 -48 54 60 vhcurveto
          hintmask 1101001110000000
          65 51 50 59 62 48 -54 -60 vhcurveto
          111 -371 rmoveto
          -49 -81 -51 -110 -111 -80 51 49 21 10 37 37 23 vhcurveto
          17 27 10 1 79 hhcurveto
          98 121 -5 -94 hvcurveto
          endchar
        </CharString>
        <CharString name="gacute">
          -5 callsubr
          90 -21 117 -20 107 callsubr
          hintmask 0000010000000100
          13 callsubr
          hintmask 0001000001010000
          -9 callgsubr
          hintmask 1100000010110010
          -69 callgsubr
          hintmask 0000000001000000
          -13 17 -2 26 0 vvcurveto
          hintmask 0010100000110100
          -60 callsubr
          hintmask 1101000011011010
          -56 callsubr
          hintmask 0000001100000000
          -127 692 -103 callsubr
        </CharString>
        <CharString name="gbreve">
          -5 callsubr
          80 45 51 -20 107 callsubr
          hintmask 0000010000000100
          13 callsubr
          hintmask 0001000001010000
          -9 callgsubr
          hintmask 1100000010110010
          -69 callgsubr
          hintmask 0000000001000000
          -13 17 -2 26 0 vvcurveto
          hintmask 0010100000110100
          -60 callsubr
          hintmask 1101000011011010
          -56 callsubr
          hintmask 0000001100000000
          -54 685 -67 callgsubr
        </CharString>
        <CharString name="gcaron">
          -5 callsubr
          185 -20 107 callsubr
          hintmask 0000010000001000
          13 callsubr
          hintmask 0001000010100000
          -9 callgsubr
          hintmask 1100000101100100
          -69 callgsubr
          hintmask 0000000010000000
          -13 17 -2 26 0 vvcurveto
          hintmask 0010100001101000
          -60 callsubr
          hintmask 1101000110110100
          -56 callsubr
          hintmask 0000001001000000
          -83 694 -94 callsubr
        </CharString>
        <CharString name="gcedilla">
          -58 callgsubr
        </CharString>
        <CharString name="gcircumflex">
          -5 callsubr
          91 -21 107 callsubr
          hintmask 0000010000001000
          13 callsubr
          hintmask 0001000010100000
          -9 callgsubr
          hintmask 1100000101100100
          -69 callgsubr
          hintmask 0000000010000000
          -13 17 -2 26 0 vvcurveto
          hintmask 0010100001101000
          -60 callsubr
          hintmask 1101000110110100
          -56 callsubr
          hintmask 0000001001000000
          -83 623 -98 callgsubr
          endchar
        </CharString>
        <CharString name="gcommaaccent">
          -58 callgsubr
        </CharString>
        <CharString name="gdotaccent">
          -5 callsubr
          86 83 69 callsubr
          52 82 -36 69 callgsubr
          hintmask 0000010000000100
          13 callsubr
          hintmask 0001000010010000
          -9 callgsubr
          hintmask 1100000101010010
          -69 callgsubr
          hintmask 0000000010000000
          -13 17 -2 26 0 vvcurveto
          hintmask 0010100001010100
          -60 callsubr
          hintmask 1101000110011010
          -56 callsubr
          hintmask 0000001000100000
          -185 658 -49 callgsubr
          endchar
        </CharString>
        <CharString name="germandbls">
          -41 callsubr
        </CharString>
        <CharString name="germandbls.dup">
          -41 callsubr
        </CharString>
        <CharString name="gnaborretni">
          -306 -21 209 82 335 82 hstemhm
          66 50 37 62 -10 71 -61 62 -60 71 -67 50 116 71 hintmask 0010010000000000
          100 callgsubr
          vhcurveto
          hintmask 0100000101000000
          24 18 18 23 hvcurveto
          90 callsubr
          hintmask 0000010000000000
          -31 -31 -47 -10 -46 -4 rrcurveto
          hintmask 0100000010000000
          -5 157 -2 117 rlineto
          hintmask 1101001001000000
          8 28 0 23 16 75 callgsubr
          -21 7 -81 142 -15 vhcurveto
          -43 vlineto
          -44 26 -5 5 6 25 5 44 vhcurveto
          43 vlineto
          71 5 110 17 93 vvcurveto
          -237 118 rmoveto
          -1 -111 rlineto
          hintmask 0101100100000000
          -3 -80 rlineto
          -52 8 -49 18 49 vvcurveto
          33 22 16 15 9 vhcurveto
          hintmask 0000000010000000
          20 13 16 13 32 32 rrcurveto
          endchar
        </CharString>
        <CharString name="grave">
          526 67 callsubr
          hstem
          361 536 -79 callsubr
        </CharString>
        <CharString name="grave.cap">
          513 89 callsubr
          hstem
          361 523 -86 callsubr
        </CharString>
        <CharString name="grave.ts1">
          514 89 callsubr
          hstem
          321 524 -86 callsubr
        </CharString>
        <CharString name="greater">
          79 -21 496 -20 hstem
          465 306 rmoveto
          10 -7 8 -7 5 vhcurveto
          -344 216 rlineto
          8 -12 -2 1 -8 hhcurveto
          -12 -14 -9 -17 -13 12 -8 8 -5 hvcurveto
          311 -196 -311 -196 rlineto
          -8 -5 -12 -8 -13 vvcurveto
          -17 14 -9 12 8 2 1 8 11 vhcurveto
          341 214 rlineto
          7 4 11 8 13 vvcurveto
          endchar
        </CharString>
        <CharString name="guarani">
          -75 -21 84 42 186 42 323 42 84 -20 hstemhm
          41 50 129 43 131 51 -50 50 -26 43 hintmask 0111001001000000
          494 238 rmoveto
          20 150 callsubr
          -124 hlineto
          -11 132 callsubr
          11 hvcurveto
          55 hlineto
          -13 -128 -52 -51 -65 -7 rrcurveto
          551 vlineto
          hintmask 0000000010000000
          50 -6 63 -27 19 -117 rrcurveto
          hintmask 0000000001000000
          -10 2 6 -6 16 hhcurveto
          hintmask 1101111010000000
          26 0 16 16 hvcurveto
          143 vlineto
          12 0 20 -21 -15 -5 -11 -42 -18 vhcurveto
          -42 36 -35 14 -46 4 rrcurveto
          62 vlineto
          128 callgsubr
          -12 -9 -10 -12 vhcurveto
          -68 vlineto
          -106 -34 -73 -122 -155 vvcurveto
          -157 75 -121 104 -34 vhcurveto
          -68 vlineto
          -12 9 147 callsubr
          62 vlineto
          hintmask 0010011100000000
          59 4 36 28 36 40 rrcurveto
          -44 0 -16 26 25 0 18 14 vhcurveto
          184 vlineto
          29 20 0 22 hvcurveto
          -274 -198 rmoveto
          -79 47 -50 96 122 vvcurveto
          125 52 94 77 46 vhcurveto
          endchar
        </CharString>
        <CharString name="guillemotleft">
          115 callgsubr
          475 106 rmoveto
          13 -7 6 -5 139 callgsubr
          5 5 7 144 callsubr
          -4 -2 -1 -6 -6 75 callsubr
          6 2 -1 4 hhcurveto
          7 5 8 14 hvcurveto
          -168 hmoveto
          13 -6 6 -5 5 vhcurveto
          -204 176 204 176 rlineto
          5 5 6 144 callsubr
          -3 -2 -1 -6 -7 vhcurveto
          -222 -192 rlineto
          -5 -4 -6 -7 -12 vvcurveto
          -9 4 -8 4 -4 vhcurveto
          225 -194 rlineto
          -6 7 2 -1 3 hhcurveto
          7 5 8 14 hvcurveto
          endchar
        </CharString>
        <CharString name="guillemotright">
          115 callgsubr
          474 306 rmoveto
          12 -7 7 -4 4 vhcurveto
          -222 192 rlineto
          6 -7 -2 1 -3 hhcurveto
          -7 -6 -8 -14 -13 7 -6 5 -5 hvcurveto
          204 -176 -204 -176 rlineto
          -5 -5 -7 -6 -13 vvcurveto
          -14 6 -8 7 3 2 1 6 7 vhcurveto
          225 194 rlineto
          4 4 4 8 9 vvcurveto
          -168 hmoveto
          130 callsubr
          -6 -2 51 callgsubr
          2 1 6 6 118 callgsubr
        </CharString>
        <CharString name="guilsinglleft">
          115 callgsubr
          391 106 rmoveto
          13 -6 6 -6 139 callgsubr
          6 5 6 144 callsubr
          -4 -1 -1 -6 -7 75 callsubr
          7 1 -1 4 hhcurveto
          7 5 8 14 hvcurveto
          endchar
        </CharString>
        <CharString name="guilsinglright">
          115 callgsubr
          391 306 rmoveto
          130 callsubr
          -7 -1 51 callgsubr
          1 1 6 7 118 callgsubr
        </CharString>
        <CharString name="h">
          124 callgsubr
          hstem
          48 callsubr
          vstem
          -82 callgsubr
          endchar
        </CharString>
        <CharString name="h_uni0303">
          124 callgsubr
          52 46 10 47 hstemhm
          48 callsubr
          hintmask 11100110
          -82 callgsubr
          hintmask 00011000
          -76 722 -107 callsubr
        </CharString>
</ttFont>
